<svg xmlns="http://www.w3.org/2000/svg" viewBox="0 0 26 26">
  <defs>
    <style>
      .cls-1 {
        fill: #637082;
      }
    </style>
  </defs>
  <path id="Union_2" data-name="Union 2" class="cls-1" d="M-4133-4113a1,1,0,0,1-1-1v-3c0-.014,0-.027,0-.041a9.871,9.871,0,0,1-2.7-1.037,9.44,9.44,0,0,1-3.529-3.532,8.892,8.892,0,0,1-.988-2.39H-4144a1,1,0,0,1-1-1v-2a1,1,0,0,1,1-1h2.632a9.833,9.833,0,0,1,1.136-3.2,9.434,9.434,0,0,1,3.529-3.53,8.892,8.892,0,0,1,2.7-1.06V-4138a1,1,0,0,1,1-1h2a1,1,0,0,1,1,1v2.189a9.822,9.822,0,0,1,2.89,1.078,10.124,10.124,0,0,1,3.531,3.53,8.867,8.867,0,0,1,1.151,3.2H-4120a1,1,0,0,1,1,1v2a1,1,0,0,1-1,1h-2.616a9.843,9.843,0,0,1-.963,2.39,9.443,9.443,0,0,1-3.531,3.532,8.186,8.186,0,0,1-2.89,1.1V-4114a1,1,0,0,1-1,1Zm-2.345-19.29a6.325,6.325,0,0,0-2.445,2.442,6.534,6.534,0,0,0-.9,3.44,6.525,6.525,0,0,0,.9,3.44,6.337,6.337,0,0,0,2.445,2.442,6.507,6.507,0,0,0,3.439.906,6.506,6.506,0,0,0,3.438-.906,6.332,6.332,0,0,0,2.445-2.442,6.534,6.534,0,0,0,.9-3.44,6.543,6.543,0,0,0-.9-3.44,6.33,6.33,0,0,0-2.445-2.442,6.513,6.513,0,0,0-3.438-.9A6.514,6.514,0,0,0-4135.344-4132.289Zm.723,8.422a.333.333,0,0,1-.271-.09.334.334,0,0,1-.09-.271v-.817a.33.33,0,0,1,.09-.27.331.331,0,0,1,.271-.091h2.806v-4.435a.328.328,0,0,1,.092-.271.327.327,0,0,1,.271-.092h.814a.332.332,0,0,1,.271.092.331.331,0,0,1,.09.271v5.612a.334.334,0,0,1-.09.271.334.334,0,0,1-.271.09Z" transform="translate(4145 4139)"/>
</svg>
