<svg xmlns="http://www.w3.org/2000/svg" width="20.156" height="20.156" viewBox="0 0 20.156 20.156"><defs><style>.a{fill:#6e7b8d;}</style></defs><path class="a" d="M17.636-9a2.433,2.433,0,0,1,1.789.731,2.433,2.433,0,0,1,.731,1.789V8.636a2.458,2.458,0,0,1-.731,1.764,2.392,2.392,0,0,1-1.789.756H2.519A2.417,2.417,0,0,1,.756,10.4,2.417,2.417,0,0,1,0,8.636V-6.481A2.392,2.392,0,0,1,.756-8.269,2.458,2.458,0,0,1,2.519-9ZM16.377,2.338V-.182H11.338V-5.221H8.818V-.182H3.779V2.338H8.818V7.377h2.519V2.338Z" transform="translate(0 9)"/></svg>