<svg xmlns="http://www.w3.org/2000/svg" width="25.195" height="19.807" viewBox="0 0 25.195 19.807"><defs><style>.a{fill:#6e7b8d;}</style></defs><path class="a" d="M0-1.278A5.672,5.672,0,0,1,1.335-4.906a9,9,0,0,1,3.6-2.62A12.631,12.631,0,0,1,9.9-8.484a12.631,12.631,0,0,1,4.963.957,9,9,0,0,1,3.6,2.62A5.672,5.672,0,0,1,19.8-1.278a5.573,5.573,0,0,1-1.335,3.6,9.324,9.324,0,0,1-3.6,2.62A12.06,12.06,0,0,1,9.9,5.9a13.922,13.922,0,0,1-2.469-.227A11.7,11.7,0,0,1,3.527,7.489Q3,7.615,2.318,7.716h-.05a.473.473,0,0,1-.3-.126.36.36,0,0,1-.151-.277.214.214,0,0,1,0-.2.193.193,0,0,0,.025-.076l.025-.076.1-.151.076-.05q.076-.05.05-.076L2.8,5.927A2.216,2.216,0,0,0,3.1,5.5a4.816,4.816,0,0,1,.353-.529,1.691,1.691,0,0,0,.277-.63A8.1,8.1,0,0,1,1.008,1.871,5.7,5.7,0,0,1,0-1.278Zm1.789,0A3.835,3.835,0,0,0,2.545.939,6.238,6.238,0,0,0,4.636,2.778L6,3.584,5.518,4.743q.479-.277.857-.529L7,3.761l.756.151a11.689,11.689,0,0,0,2.142.2,10.881,10.881,0,0,0,4.006-.731,7.532,7.532,0,0,0,2.973-1.99,3.991,3.991,0,0,0,1.109-2.671,4.083,4.083,0,0,0-1.109-2.7,7.2,7.2,0,0,0-2.973-1.99A11.618,11.618,0,0,0,9.9-6.7a10.417,10.417,0,0,0-4.031.731A7.645,7.645,0,0,0,2.9-3.974,4.118,4.118,0,0,0,1.789-1.278ZM8.667,7.641q.806.076,1.235.076a14.778,14.778,0,0,0,4.333-.63,12.823,12.823,0,0,0,3.729-1.814,9.848,9.848,0,0,0,2.7-3,6.9,6.9,0,0,0,.932-3.552,7.2,7.2,0,0,0-.328-2.142A8.189,8.189,0,0,1,24.137-.926a5.5,5.5,0,0,1,1.058,3.212,5.575,5.575,0,0,1-1.008,3.187,8.068,8.068,0,0,1-2.721,2.469,4.424,4.424,0,0,0,.277.63A3.623,3.623,0,0,0,22.1,9.1l.68.831a2.438,2.438,0,0,0,.328.353l.126.126.1.151.076.252a.193.193,0,0,1-.025.076.687.687,0,0,1-.176.328.373.373,0,0,1-.328.1q-.68-.1-1.209-.227a12.4,12.4,0,0,1-3.905-1.814,13.922,13.922,0,0,1-2.469.227A11.742,11.742,0,0,1,8.667,7.641Z" transform="translate(0 8.484)"/></svg>