<svg xmlns="http://www.w3.org/2000/svg" width="43.823" height="62" viewBox="0 0 43.823 62"><defs><style>.a,.c{fill:#6e7b8d;}.a{font-size:11px;font-family:Roboto-Regular, Roboto;}.b{fill:none;}</style></defs><g transform="translate(-2579 126)"><text class="a" transform="translate(2587 -67)"><tspan x="0" y="0">Diário</tspan></text><rect class="b" width="43.823" height="43.823" rx="21.911" transform="translate(2579 -126)"/><path class="c" d="M.239,7.86q0-.05.025-.378a2.692,2.692,0,0,1,.076-.5,1.129,1.129,0,0,0-.05-.3A1.081,1.081,0,0,1,.239,6.4a.776.776,0,0,1,.126-.3l.454-.655a8.341,8.341,0,0,0,.63-1.285,9.51,9.51,0,0,0,.428-1.285.9.9,0,0,0,0-.428.847.847,0,0,1,0-.416A1.494,1.494,0,0,1,2.1,1.662l.252-.328A7.22,7.22,0,0,0,2.934.05a7.246,7.246,0,0,0,.353-1.285,1.36,1.36,0,0,0-.025-.428.77.77,0,0,1,0-.4,1.118,1.118,0,0,1,.3-.428l.328-.328a5.928,5.928,0,0,0,.579-1.184,6.382,6.382,0,0,0,.4-1.361,2.123,2.123,0,0,0-.05-.353A.988.988,0,0,1,4.8-6.085a.822.822,0,0,1,.126-.265,3.464,3.464,0,0,1,.252-.328l.252-.277.227-.428a3.153,3.153,0,0,0,.2-.5,2.222,2.222,0,0,1,.227-.5l.277-.454a.911.911,0,0,1,.378-.328,1.445,1.445,0,0,1,.5-.151,2,2,0,0,1,.655.076v.025A3.875,3.875,0,0,1,8.6-9.348H19.311a1.81,1.81,0,0,1,1.587.806,2.023,2.023,0,0,1,.252,1.814L17.321,6.021a5.626,5.626,0,0,1-1.008,2.167,2.476,2.476,0,0,1-1.814.479H2.279a.6.6,0,0,0-.529.214.645.645,0,0,0-.025.592q.353.983,2.041.983H16.741a1.64,1.64,0,0,0,.781-.2.911.911,0,0,0,.479-.6L22.234-4.208a2.35,2.35,0,0,0,.076-.806,1.818,1.818,0,0,1,.831.6A2.023,2.023,0,0,1,23.392-2.6l-3.88,12.723a2.791,2.791,0,0,1-1.058,1.512,2.981,2.981,0,0,1-1.738.63H3.741a3.443,3.443,0,0,1-2.091-.756A3.857,3.857,0,0,1,.264,9.649,2.374,2.374,0,0,1,.239,7.885ZM7.016-.782a.278.278,0,0,0,.025.3.415.415,0,0,0,.277.151h8.541a.544.544,0,0,0,.353-.151,1,1,0,0,0,.252-.3l.277-.907a.326.326,0,0,0-.025-.328.266.266,0,0,0-.277-.126H7.9a.534.534,0,0,0-.353.126,1,1,0,0,0-.252.328Zm1.159-3.6a.37.37,0,0,0,.025.3.351.351,0,0,0,.277.151h8.541a.571.571,0,0,0,.378-.151.714.714,0,0,0,.227-.3l.3-.907a.318.318,0,0,0-.05-.3.415.415,0,0,0-.277-.151H9.057a.544.544,0,0,0-.353.151.714.714,0,0,0-.227.3Z" transform="translate(2588.919 -105.652)"/></g></svg>