<svg xmlns="http://www.w3.org/2000/svg" width="20.156" height="22.675" viewBox="0 0 20.156 22.675"><defs><style>.a{fill:#6e7b8d;}</style></defs><path class="a" d="M17.636-9.6a2.433,2.433,0,0,1,1.789.731,2.433,2.433,0,0,1,.731,1.789V10.556a2.458,2.458,0,0,1-.731,1.764,2.392,2.392,0,0,1-1.789.756H2.519a2.417,2.417,0,0,1-1.764-.756A2.417,2.417,0,0,1,0,10.556V-7.081A2.392,2.392,0,0,1,.756-8.869,2.458,2.458,0,0,1,2.519-9.6Zm0,20.156V-7.081H2.519V10.556Zm-6.3-6.3v1.26h-6.3V4.257ZM15.117-.782V.478H10.078V-.782Zm-5.039-1.26V-4.561h5.039v2.519ZM8.818-4.561V.478H5.039V-4.561Zm-1.26,6.3V3H5.039V1.738ZM8.818,3V1.738h6.3V3Zm6.3,3.779v1.26H5.039V6.777ZM12.6,5.517V4.257h2.519v1.26Z" transform="translate(0 9.6)"/></svg>