<svg xmlns="http://www.w3.org/2000/svg" width="25.195" height="21.613" viewBox="0 0 25.195 21.613"><defs><style>.a{fill:#6e7b8d;}</style></defs><path class="a" d="M23.4-2.23a1.734,1.734,0,0,1,1.272.527A1.734,1.734,0,0,1,25.195-.43,1.734,1.734,0,0,1,24.667.842a1.734,1.734,0,0,1-1.272.527v5.4a1.825,1.825,0,0,1-1.8,1.8Q15.733,3.689,10.179,3.225A2.444,2.444,0,0,0,8.9,4.153a2.26,2.26,0,0,0-.436,1.413,1.908,1.908,0,0,0,.562,1.3,2.158,2.158,0,0,0-.323.921,1.906,1.906,0,0,0,.084.815,2.612,2.612,0,0,0,.471.773,6.121,6.121,0,0,0,.675.7q.33.288.865.71A2.413,2.413,0,0,1,9.23,11.956a5.256,5.256,0,0,1-2.369.162,3.5,3.5,0,0,1-1.856-.78q-.1-.323-.415-1.23t-.45-1.329q-.134-.422-.323-1.251a7.772,7.772,0,0,1-.211-1.42,11.365,11.365,0,0,1,.049-1.385,7.3,7.3,0,0,1,.309-1.554H2.25A2.166,2.166,0,0,1,.661,2.508,2.166,2.166,0,0,1,0,.919v-2.7A2.166,2.166,0,0,1,.661-3.369,2.166,2.166,0,0,1,2.25-4.03H9q6.116,0,12.6-5.4a1.729,1.729,0,0,1,1.265.534A1.729,1.729,0,0,1,23.4-7.629ZM21.6,6.262V-7.151A21.9,21.9,0,0,1,10.8-2.329v3.8A21.958,21.958,0,0,1,21.6,6.262Z" transform="translate(0 9.429)"/></svg>