<svg xmlns="http://www.w3.org/2000/svg" width="19.796" height="25.195" viewBox="0 0 19.796 25.195"><defs><style>.a{fill:#6e7b8d;}</style></defs><path class="a" d="M9-9.386v9a2.634,2.634,0,0,1-.5,1.561,2.629,2.629,0,0,1-1.3.984V13.109a1.729,1.729,0,0,1-.534,1.265,1.729,1.729,0,0,1-1.265.534H3.6a1.729,1.729,0,0,1-1.265-.534A1.729,1.729,0,0,1,1.8,13.109V2.157A2.629,2.629,0,0,1,.5,1.173,2.634,2.634,0,0,1,0-.388v-9a.865.865,0,0,1,.267-.633A.865.865,0,0,1,.9-10.286a.865.865,0,0,1,.633.267.865.865,0,0,1,.267.633v5.849a.865.865,0,0,0,.267.633.865.865,0,0,0,.633.267A.865.865,0,0,0,3.332-2.9.865.865,0,0,0,3.6-3.537V-9.386a.865.865,0,0,1,.267-.633.865.865,0,0,1,.633-.267.865.865,0,0,1,.633.267.865.865,0,0,1,.267.633v5.849a.865.865,0,0,0,.267.633.865.865,0,0,0,.633.267A.865.865,0,0,0,6.931-2.9.865.865,0,0,0,7.2-3.537V-9.386a.865.865,0,0,1,.267-.633.865.865,0,0,1,.633-.267.865.865,0,0,1,.633.267A.865.865,0,0,1,9-9.386Zm10.8,0v22.5a1.825,1.825,0,0,1-1.8,1.8H16.2a1.825,1.825,0,0,1-1.8-1.8v-7.2H11.248a.456.456,0,0,1-.45-.45V-5.787a4.332,4.332,0,0,1,1.322-3.177A4.332,4.332,0,0,1,15.3-10.286h3.6a.865.865,0,0,1,.633.267A.865.865,0,0,1,19.8-9.386Z" transform="translate(0 10.286)"/></svg>