<?xml version="1.0" encoding="utf-8"?>
<!-- Generator: Adobe Illustrator 22.1.0, SVG Export Plug-In . SVG Version: 6.00 Build 0)  -->
<svg version="1.1" id="Camada_1" xmlns="http://www.w3.org/2000/svg" xmlns:xlink="http://www.w3.org/1999/xlink" x="0px" y="0px"
	 viewBox="0 0 105.2 24.7" style="enable-background:new 0 0 105.2 24.7;" xml:space="preserve">
<style type="text/css">
	.st0{fill:#085972;}
	.st1{fill:#1C85A5;}
	.st2{fill:url(#Path_14652_1_);}
	.st3{enable-background:new    ;}
	.st4{fill:#3E4F67;}
</style>
<g id="Group_19684" transform="translate(1233.406 832.013)">
	<path id="Path_14650" class="st0" d="M-1209.5-832v16.9l-2.8,2.8l0,0v-17.2L-1209.5-832z M-1217.9-823.9v13.5l0,0l1.9-1.9l0.3-0.2
		v-13.2L-1217.9-823.9z M-1222.7-818.5v10l0,0l1.6-1.6v-9.9L-1222.7-818.5z M-1227-814.1v6.8l0,0l1.1-1.1v-6.6L-1227-814.1z"/>
	<path id="Path_14651" class="st1" d="M-1212.3-829.6h-16.4l2.5-2.4h16.6L-1212.3-829.6z M-1228.7-825.8L-1228.7-825.8l-2,1.9h12.9
		l2.2-1.9H-1228.7z M-1228.7-820h-2.1l-1.5,1.4h9.6l1.6-1.4H-1228.7z M-1228.7-815h-3.7l-1,1h6.4l1.1-1H-1228.7z"/>
	
		<linearGradient id="Path_14652_1_" gradientUnits="userSpaceOnUse" x1="-1791.6425" y1="-476.5687" x2="-1790.7875" y2="-475.7156" gradientTransform="matrix(21.12 0 0 -22.276 36606.4492 -11423.834)">
		<stop  offset="0" style="stop-color:#B7D333"/>
		<stop  offset="0.68" style="stop-color:#0A7098"/>
	</linearGradient>
	<path id="Path_14652" class="st2" d="M-1212.3-812.4L-1212.3-812.4l-2.7,0v-14.2h-13.7v-3.1h16.4L-1212.3-812.4z M-1230.7-814.1
		h-2.7v6.8h6.4v-6.8H-1230.7z M-1230.7-818.5h-1.6v2.8h7.1v7.3h2.5v-10L-1230.7-818.5L-1230.7-818.5z M-1217.8-823.9h-12.9v3.2h10.3
		v10.3h2.6v0l0,0L-1217.8-823.9L-1217.8-823.9z"/>
</g>
<g class="st3">
	<path class="st4" d="M42.1,15.5h-4.4L36.9,18h-2.6l4.5-12.1h2.3L45.6,18H43L42.1,15.5z M38.4,13.5h3L39.9,9L38.4,13.5z"/>
	<path class="st4" d="M54.3,13.6c0,1.4-0.3,2.5-0.9,3.3c-0.6,0.8-1.5,1.2-2.5,1.2c-0.9,0-1.6-0.3-2.2-0.9v4.2h-2.4V9h2.2l0.1,0.9
		c0.6-0.7,1.3-1,2.3-1c1.1,0,2,0.4,2.6,1.2s0.9,1.9,0.9,3.4V13.6z M51.9,13.4c0-0.8-0.1-1.5-0.4-1.9s-0.7-0.7-1.3-0.7
		c-0.8,0-1.3,0.3-1.6,0.9v3.7c0.3,0.6,0.8,0.9,1.6,0.9C51.3,16.2,51.9,15.3,51.9,13.4z"/>
	<path class="st4" d="M60.8,11.3c-0.3,0-0.6-0.1-0.9-0.1c-0.9,0-1.5,0.3-1.8,0.9V18h-2.4V9H58l0.1,1.1c0.5-0.8,1.1-1.2,2-1.2
		c0.3,0,0.5,0,0.7,0.1L60.8,11.3z"/>
	<path class="st4" d="M62,6.7c0-0.4,0.1-0.7,0.4-0.9c0.2-0.2,0.6-0.3,1-0.3c0.4,0,0.7,0.1,1,0.3c0.2,0.2,0.4,0.5,0.4,0.9
		c0,0.4-0.1,0.7-0.4,0.9s-0.6,0.3-1,0.3c-0.4,0-0.7-0.1-1-0.3C62.1,7.4,62,7.1,62,6.7z M64.5,18h-2.4V9h2.4V18z"/>
	<path class="st4" d="M68.7,9l0.1,1c0.6-0.8,1.5-1.2,2.6-1.2c1.2,0,2,0.5,2.4,1.4c0.6-0.9,1.5-1.4,2.7-1.4c1,0,1.7,0.3,2.2,0.9
		c0.5,0.6,0.7,1.4,0.7,2.6V18h-2.4v-5.7c0-0.5-0.1-0.9-0.3-1.1c-0.2-0.2-0.6-0.4-1.1-0.4c-0.7,0-1.2,0.3-1.5,1l0,6.2h-2.4v-5.7
		c0-0.5-0.1-0.9-0.3-1.1c-0.2-0.2-0.6-0.3-1-0.3c-0.7,0-1.2,0.3-1.5,0.8V18h-2.4V9H68.7z"/>
	<path class="st4" d="M80.8,13.4c0-0.9,0.2-1.7,0.5-2.4c0.3-0.7,0.8-1.2,1.5-1.6c0.6-0.4,1.4-0.6,2.2-0.6c1.2,0,2.2,0.4,3,1.1
		s1.2,1.7,1.3,3l0,0.6c0,1.4-0.4,2.5-1.2,3.3c-0.8,0.8-1.8,1.2-3.1,1.2s-2.3-0.4-3.1-1.2c-0.8-0.8-1.2-2-1.2-3.4V13.4z M83.2,13.6
		c0,0.9,0.2,1.5,0.5,2c0.3,0.5,0.8,0.7,1.4,0.7c0.6,0,1-0.2,1.4-0.7c0.3-0.4,0.5-1.2,0.5-2.1c0-0.8-0.2-1.5-0.5-1.9
		c-0.3-0.5-0.8-0.7-1.4-0.7c-0.6,0-1,0.2-1.4,0.7C83.4,11.9,83.2,12.6,83.2,13.6z"/>
	<path class="st4" d="M95.9,11.3c-0.3,0-0.6-0.1-0.9-0.1c-0.9,0-1.5,0.3-1.8,0.9V18h-2.4V9h2.3l0.1,1.1c0.5-0.8,1.1-1.2,2-1.2
		c0.3,0,0.5,0,0.7,0.1L95.9,11.3z"/>
	<path class="st4" d="M102,18c-0.1-0.2-0.2-0.5-0.2-0.8c-0.6,0.6-1.3,1-2.3,1c-0.9,0-1.6-0.3-2.2-0.8c-0.6-0.5-0.9-1.2-0.9-1.9
		c0-1,0.4-1.7,1.1-2.2c0.7-0.5,1.7-0.8,3.1-0.8h1.1V12c0-0.4-0.1-0.7-0.3-1c-0.2-0.2-0.5-0.4-1-0.4c-0.4,0-0.7,0.1-1,0.3
		c-0.2,0.2-0.3,0.5-0.3,0.8h-2.4c0-0.5,0.2-1,0.5-1.4c0.3-0.4,0.8-0.8,1.4-1c0.6-0.3,1.2-0.4,2-0.4c1.1,0,2,0.3,2.6,0.8
		c0.7,0.6,1,1.3,1,2.3v3.9c0,0.9,0.1,1.5,0.4,1.9V18H102z M100,16.3c0.4,0,0.7-0.1,1-0.2c0.3-0.2,0.5-0.4,0.7-0.6v-1.5h-0.9
		c-1.2,0-1.8,0.4-1.9,1.2l0,0.1c0,0.3,0.1,0.5,0.3,0.7C99.3,16.2,99.6,16.3,100,16.3z"/>
</g>
</svg>
