<?xml version="1.0" encoding="utf-8"?>
<!-- Generator: Adobe Illustrator 22.1.0, SVG Export Plug-In . SVG Version: 6.00 Build 0)  -->
<svg version="1.1" id="Camada_1" xmlns="http://www.w3.org/2000/svg" xmlns:xlink="http://www.w3.org/1999/xlink" x="0px" y="0px"
	 viewBox="0 0 528.8 327.3" style="enable-background:new 0 0 528.8 327.3;" xml:space="preserve">
<style type="text/css">
	.st0{fill:#E7E7E2;}
	.st1{fill:none;}
</style>
<g id="Group_9513_1_" transform="translate(229.286 80.274)">
	<g id="Group_9503_1_" transform="translate(25.281)">
		<path id="Path_6796_1_" class="st0" d="M11.3,32.6c-9.4,0.1-17.1-7.5-17.2-17C-6,6.2,1.6-1.5,11.1-1.5c9.4-0.1,17.1,7.5,17.2,17
			c0,2.9-0.7,5.8-2.1,8.3l4.7,4.7L30,29.4c-0.2,0.2-0.4,0.4-0.5,0.6c-3,3-7.8,3.5-11.4,1.2C16,32.1,13.6,32.6,11.3,32.6z M11.3,1.2
			c-8,0-14.4,6.4-14.5,14.4c0,8,6.4,14.4,14.4,14.5c2.2,0,4.5-0.5,6.5-1.5l0.7-0.3l0.6,0.5c2.4,1.9,5.9,1.9,8.2-0.1l-4.4-4.4
			l0.5-0.8c4.2-6.8,2.2-15.7-4.6-20C16.5,2,13.9,1.3,11.3,1.2L11.3,1.2z"/>
	</g>
	<g id="Group_9504_1_" transform="translate(0 12.163)">
		<path id="Path_6797_1_" class="st0" d="M14.4,32.4c-2.4,0-4.7-0.5-6.9-1.4c-3.6,2.3-8.3,1.8-11.4-1.2c-0.2-0.2-0.4-0.4-0.5-0.6
			l-0.8-0.9l4.7-4.7C-5,15.3-1.9,5,6.3,0.5c8.2-4.5,18.5-1.5,23,6.8c4.5,8.2,1.5,18.5-6.8,23C20,31.7,17.2,32.4,14.4,32.4L14.4,32.4
			z M7.3,28l0.7,0.3c2,1,4.2,1.5,6.5,1.5c8,0,14.5-6.4,14.5-14.4c0-8-6.4-14.5-14.4-14.5C6.5,0.8,0,7.3,0,15.3
			c0,2.7,0.8,5.4,2.2,7.7l0.5,0.8l-4.4,4.4c2.4,2,5.8,2,8.2,0.1L7.3,28z"/>
	</g>
	<g id="Group_9508_1_" transform="translate(11.12 28.322)">
		<g id="Group_9505_1_" transform="translate(0 0)">
			<path id="Path_6798_1_" class="st0" d="M-1.8-0.2c0,1-0.8,1.8-1.8,1.8c-1,0-1.8-0.8-1.8-1.8c0-1,0.8-1.8,1.8-1.8
				C-2.6-1.9-1.9-1.2-1.8-0.2z"/>
		</g>
		<g id="Group_9506_1_" transform="translate(7.037)">
			<circle id="Ellipse_16_1_" class="st0" cx="-3.8" cy="-0.2" r="1.8"/>
		</g>
		<g id="Group_9507_1_" transform="translate(14.248 0)">
			<path id="Path_6799_1_" class="st0" d="M-2.1-0.2c0,1-0.8,1.8-1.8,1.8c-1,0-1.8-0.8-1.8-1.8c0-1,0.8-1.8,1.8-1.8
				C-3-1.9-2.2-1.2-2.1-0.2z"/>
		</g>
	</g>
	<g id="Group_9512_1_" transform="translate(35.011 15.898)">
		<g id="Group_9509_1_">
			<path id="Path_6800_1_" class="st0" d="M-3-0.2c0,0.8-0.6,1.4-1.4,1.4c-0.8,0-1.4-0.6-1.4-1.4c0-0.8,0.6-1.4,1.4-1.4l0,0
				C-3.7-1.7-3-1.1-3-0.2C-3-0.3-3-0.3-3-0.2z"/>
		</g>
		<g id="Group_9510_1_" transform="translate(5.647)">
			<path id="Path_6801_1_" class="st0" d="M-3.2-0.2c0,0.8-0.6,1.4-1.4,1.4c-0.8,0-1.4-0.6-1.4-1.4c0-0.8,0.6-1.4,1.4-1.4l0,0
				C-3.8-1.7-3.2-1.1-3.2-0.2C-3.2-0.3-3.2-0.3-3.2-0.2z"/>
		</g>
		<g id="Group_9511_1_" transform="translate(11.294)">
			<path id="Path_6802_1_" class="st0" d="M-3.3-0.2c0,0.8-0.6,1.4-1.4,1.4c-0.8,0-1.4-0.6-1.4-1.4c0-0.8,0.6-1.4,1.4-1.4l0,0
				C-3.9-1.7-3.3-1.1-3.3-0.2C-3.3-0.3-3.3-0.3-3.3-0.2z"/>
		</g>
	</g>
</g>
<g id="Group_9514_1_" transform="translate(119.908 21.372)">
	<path id="Path_6803_1_" class="st0" d="M12,25.4c-1.7,0-3.4-0.3-4.9-1c-2.8,1.7-6.3,1.2-8.6-1l-0.4-0.4L-2.7,22l3.5-3.5
		c-3.2-6.2-0.7-13.8,5.5-17s13.8-0.7,17,5.5s0.7,13.8-5.5,17C16,24.9,14,25.4,12,25.4L12,25.4z M6.7,21.4l0.7,0.3
		c1.4,0.7,2.9,1.1,4.5,1.1c5.6,0,10.1-4.5,10.1-10.1c0-5.6-4.5-10.1-10.1-10.1S1.8,7.2,1.8,12.7c0,1.9,0.5,3.7,1.5,5.3l0.5,0.8
		L0.8,22c1.6,1.1,3.7,1,5.2-0.2L6.7,21.4z"/>
</g>
<g id="Group_9515_1_" transform="translate(92.628 16.593)">
	<path id="Path_6804_1_" class="st0" d="M10.6,25.4c-7,0-12.7-5.7-12.7-12.7c0-7,5.7-12.7,12.7-12.7c7,0,12.7,5.7,12.7,12.7
		c0,2-0.5,4.1-1.4,5.9l3.4,3.4l-0.8,0.9c-0.1,0.2-0.3,0.3-0.4,0.4c-2.3,2.3-5.8,2.7-8.6,1C13.9,25.1,12.2,25.4,10.6,25.4z M10.6,2.6
		C5,2.6,0.5,7.2,0.5,12.7S5,22.9,10.6,22.9c1.6,0,3.1-0.4,4.5-1.1l0.7-0.3l0.6,0.5c1.5,1.2,3.6,1.3,5.2,0.2L18.5,19l0.5-0.8
		c1-1.6,1.5-3.5,1.5-5.4c0.2-5.5-4.1-10-9.6-10.2C10.8,2.6,10.7,2.6,10.6,2.6z"/>
</g>
<g id="Group_9516_1_" transform="translate(177.768 215.194)">
	<path id="Path_6805_1_" class="st0" d="M15.2,34c-10.6,0-19.3-8.5-19.4-19.2S4.4-4.5,15-4.5c10.6,0,19.3,8.5,19.4,19.2
		c0,3.3-0.8,6.6-2.5,9.5l5.4,5.4l-0.8,0.9c-0.2,0.2-0.4,0.4-0.6,0.6c-3.4,3.5-8.8,4-12.8,1.3C20.6,33.4,17.9,34,15.2,34z M15.2-1.8
		C6-1.8-1.4,5.6-1.4,14.8c0,9.2,7.5,16.6,16.6,16.6c2.6,0,5.1-0.6,7.4-1.8l0.7-0.3l0.6,0.5c2.9,2.3,7,2.2,9.8-0.3l-5-5l0.5-0.8
		c1.7-2.6,2.6-5.7,2.5-8.8c0.1-9.1-7.1-16.6-16.3-16.7C15.4-1.8,15.3-1.8,15.2-1.8z"/>
</g>
<g id="Group_9522_1_" transform="translate(141.974 47.348)">
	<g id="Group_9517_1_">
		<path id="Path_6806_1_" class="st0" d="M43.7,42.5H1.4c-2.5,0-4.6-2-4.6-4.5c0,0,0,0,0,0V4c0-2.5,2-4.6,4.5-4.6c0,0,0,0,0,0h42.3
			c2.5,0,4.6,2,4.6,4.5c0,0,0,0,0,0v33.9C48.3,40.4,46.2,42.4,43.7,42.5z M1.4,2c-1.1,0-2,0.9-2,2v33.9c0,1.1,0.9,2,2,2h42.3
			c1.1,0,2-0.9,2-2V4c0-1.1-0.9-2-2-2L1.4,2z"/>
	</g>
	<g id="Group_9518_1_" transform="translate(1.303 30.407)">
		<rect id="Rectangle_1820_1_" x="-3.2" y="-1.3" class="st0" width="48.9" height="2.5"/>
	</g>
	<g id="Group_9519_1_" transform="translate(24.326 35.446)">
		<path id="Path_6807_1_" class="st1" d="M0.2,0.6c0,1.1-0.9,2-2,2s-2-0.9-2-2s0.9-2,2-2C-0.7-1.3,0.1-0.5,0.2,0.6z"/>
	</g>
	<g id="Group_9520_1_" transform="translate(19.026 41.44)">
		<path id="Path_6808_1_" class="st0" d="M10.7,7.4H-3.6v-8.9h14.3V7.4z M-1.1,4.8h9.2V1h-9.2V4.8z"/>
	</g>
	<g id="Group_9521_1_" transform="translate(11.641 48.043)">
		<path id="Path_6809_1_" class="st0" d="M22.1,6.1H-0.2c-1.8,0-3.2-1.4-3.2-3.2v0V1.6c0-1.8,1.4-3.2,3.2-3.2c0,0,0,0,0,0h22.3
			c1.8,0,3.2,1.4,3.2,3.2v0v1.3C25.3,4.6,23.9,6,22.1,6.1z M-0.3,0.8C-0.7,0.8-1,1.1-1,1.4c0,0,0,0,0,0v1.3c0,0.4,0.3,0.7,0.7,0.7
			c0,0,0,0,0,0H22c0.4,0,0.7-0.3,0.7-0.7c0,0,0,0,0,0V1.5c0-0.4-0.3-0.7-0.7-0.7c0,0,0,0,0,0H-0.3z"/>
	</g>
</g>
<g id="Group_9528_1_" transform="translate(207.393 159.245)">
	<g id="Group_9523_1_">
		<path id="Path_6810_1_" class="st0" d="M36.9,35.5H-0.1c-2.5,0-4.6-2-4.6-4.5c0,0,0,0,0,0V1.5c0-2.5,2-4.6,4.5-4.6c0,0,0,0,0,0
			h36.9c2.5,0,4.6,2,4.6,4.5c0,0,0,0,0,0v29.4C41.4,33.4,39.4,35.4,36.9,35.5z M-0.1-0.6c-1.1,0-2,0.9-2,2v29.4c0,1.1,0.9,2,2,2
			h36.9c1.1,0,2-0.9,2-2V1.5c0-1.1-0.9-2-2-2L-0.1-0.6z"/>
	</g>
	<g id="Group_9524_1_" transform="translate(1.303 27.019)">
		<rect id="Rectangle_1821_1_" x="-4.7" y="-3.7" class="st0" width="43.6" height="2.5"/>
	</g>
	<g id="Group_9525_1_" transform="translate(21.893 31.71)">
		<path id="Path_6811_1_" class="st1" d="M-1.7-2.1c0,0.9-0.8,1.7-1.7,1.7s-1.7-0.8-1.7-1.7c0-0.9,0.8-1.7,1.7-1.7c0,0,0,0,0,0
			C-2.5-3.8-1.7-3.1-1.7-2.1z"/>
	</g>
	<g id="Group_9526_1_" transform="translate(16.941 36.836)">
		<path id="Path_6812_1_" class="st0" d="M8,4.3H-5v-8.2H8V4.3z M-2.5,1.8h7.9v-3.1h-7.9V1.8z"/>
	</g>
	<g id="Group_9527_1_" transform="translate(10.338 42.743)">
		<path id="Path_6813_1_" class="st0" d="M17.8,3.1H-1.7c-1.8,0-3.2-1.4-3.2-3.2l0,0v-0.7c0-1.8,1.4-3.2,3.2-3.2l0,0h19.5
			c1.8,0,3.2,1.4,3.2,3.2v0.7c0,1.8-1.4,3.2-3.1,3.2C17.9,3.1,17.8,3.1,17.8,3.1z M-1.7-1.6c-0.4,0-0.7,0.3-0.7,0.7c0,0,0,0,0,0v0.7
			c0,0.4,0.3,0.7,0.7,0.7c0,0,0,0,0,0h19.5c0.4,0,0.7-0.3,0.7-0.7c0,0,0,0,0,0v-0.7c0-0.4-0.3-0.7-0.7-0.7c0,0,0,0,0,0H-1.7z"/>
	</g>
</g>
<g id="Group_9534_1_" transform="translate(418.677 217.279)">
	<g id="Group_9529_1_">
		<path id="Path_6814_1_" class="st0" d="M37.5,38.6H-4.8c-2.5,0-4.6-2-4.6-4.5c0,0,0,0,0,0V0.2c0-2.5,2-4.6,4.5-4.6c0,0,0,0,0,0
			h42.3c2.5,0,4.6,2,4.6,4.5c0,0,0,0,0,0V34C42,36.5,40,38.5,37.5,38.6z M-4.9-1.9c-1.1,0-2,0.9-2,2V34c0,1.1,0.9,2,2,2h42.4
			c1.1,0,2-0.9,2-2V0.2c0-1.1-0.9-2-2-2L-4.9-1.9z"/>
	</g>
	<g id="Group_9530_1_" transform="translate(1.216 30.32)">
		<rect id="Rectangle_1822_1_" x="-9.4" y="-5.1" class="st0" width="48.9" height="2.5"/>
	</g>
	<g id="Group_9531_1_" transform="translate(24.239 35.359)">
		<path id="Path_6815_1_" class="st1" d="M-6-3.2c0,1.1-0.9,2-2,2c-1.1,0-2-0.9-2-2s0.9-2,2-2C-6.9-5.2-6.1-4.3-6-3.2z"/>
	</g>
	<g id="Group_9532_1_" transform="translate(19.026 41.353)">
		<path id="Path_6816_1_" class="st0" d="M4.5,3.6H-9.8v-8.9H4.5V3.6z M-7.3,1h9.2v-3.8h-9.2L-7.3,1L-7.3,1z"/>
	</g>
	<g id="Group_9533_1_" transform="translate(11.555 47.956)">
		<path id="Path_6817_1_" class="st0" d="M15.9,2.3H-6.4c-1.8,0-3.2-1.4-3.2-3.2v-1.3c0-1.8,1.4-3.2,3.2-3.2h22.3
			c1.8,0,3.2,1.4,3.2,3.2V-1C19.1,0.8,17.7,2.2,15.9,2.3z M-6.4-3c-0.4,0-0.7,0.3-0.7,0.7c0,0,0,0,0,0v1.3c0,0.4,0.3,0.7,0.7,0.7
			c0,0,0,0,0,0h22.3c0.4,0,0.7-0.3,0.7-0.7c0,0,0,0,0,0v-1.3c0-0.4-0.3-0.7-0.7-0.7c0,0,0,0,0,0H-6.4z"/>
	</g>
</g>
<g id="Group_9536_1_" transform="translate(187.845 107.422)">
	<g id="Group_9535_1_">
		<path id="Path_6818_1_" class="st0" d="M10.2,24.8c-1.2,0-2.3-0.4-3.1-1.3l-10-10c-1.7-1.8-1.7-4.5,0-6.3c1.8-1.7,4.5-1.7,6.3,0
			l6.5,6.5L20.5-0.2c0.7-0.9,1.8-1.5,3-1.7c1.1-0.2,2.3,0.1,3.2,0.8c0.9,0.7,1.6,1.8,1.7,3c0.2,1.1-0.1,2.3-0.8,3.2L13.8,23
			c-0.8,1-2,1.6-3.2,1.7C10.5,24.7,10.3,24.8,10.2,24.8z M0.2,8.4c-0.5,0-1,0.2-1.4,0.5c-0.3,0.4-0.5,0.9-0.5,1.4
			c0,0.5,0.2,1,0.5,1.4l10,10c0.4,0.3,0.9,0.5,1.4,0.5h0.1c0.5,0,1-0.3,1.4-0.8L25.4,3.5c0.3-0.4,0.4-0.9,0.3-1.4
			c-0.1-0.5-0.3-0.9-0.7-1.3c-0.4-0.3-0.9-0.4-1.4-0.3c-0.5,0.1-0.9,0.3-1.3,0.7L10,17.4L1.4,8.8C1.1,8.5,0.6,8.4,0.2,8.4L0.2,8.4z"
			/>
	</g>
</g>
<g id="Group_9538_1_" transform="translate(410.25 54.254)">
	<g id="Group_9537_1_">
		<path id="Path_6819_1_" class="st0" d="M5.2,26c-1.2,0-2.3-0.4-3.1-1.3l-10-10c-1.7-1.7-1.7-4.6,0-6.3c1.7-1.7,4.5-1.7,6.3,0
			l6.5,6.5L15.5,1c0.7-0.9,1.8-1.5,3-1.7c1.1-0.2,2.3,0.1,3.2,0.8c0.9,0.7,1.6,1.8,1.7,3c0.2,1.1-0.1,2.3-0.8,3.2L8.8,24.2
			c-0.8,1-2,1.6-3.2,1.7C5.5,25.9,5.4,26,5.2,26z M-4.8,9.7c-0.5,0-1,0.2-1.4,0.5c-0.7,0.7-0.8,1.8-0.1,2.5c0,0,0.1,0.1,0.1,0.1
			l10,10c0.4,0.3,0.9,0.5,1.4,0.5h0.1c0.5,0,1-0.3,1.4-0.8L20.4,4.7c0.3-0.4,0.4-0.9,0.3-1.4c-0.1-0.5-0.3-0.9-0.7-1.3
			c-0.4-0.3-0.9-0.4-1.4-0.3c-0.5,0.1-0.9,0.3-1.3,0.7L5,18.6L-3.6,10C-3.9,9.8-4.4,9.7-4.8,9.7L-4.8,9.7z"/>
	</g>
</g>
<g id="Group_9540_1_" transform="translate(41.284 277.701)">
	<g id="Group_9539_1_">
		<path id="Path_6820_1_" class="st0" d="M13.5,21c-1.2,0-2.3-0.4-3.1-1.3l-10-10c-1.7-1.7-1.7-4.5,0-6.3s4.5-1.7,6.3,0c0,0,0,0,0,0
			l6.5,6.5L23.8-4c0.7-0.9,1.8-1.5,3-1.7c1.1-0.2,2.3,0.1,3.2,0.8c0.9,0.7,1.6,1.8,1.7,3c0.2,1.1-0.1,2.3-0.8,3.2L17.1,19.2
			c-0.8,1-2,1.6-3.2,1.7C13.7,20.9,13.6,21,13.5,21z M3.5,4.6c-0.5,0-1,0.2-1.4,0.5C1.8,5.4,1.6,5.9,1.6,6.4c0,0.5,0.2,1,0.5,1.4
			l10,10c0.4,0.3,0.9,0.5,1.4,0.5h0.1c0.5,0,1-0.3,1.4-0.8L28.7-0.3c0.3-0.4,0.4-0.9,0.3-1.4c-0.1-0.5-0.3-0.9-0.7-1.3
			C28-3.2,27.5-3.4,27-3.2c-0.5,0.1-0.9,0.3-1.3,0.7L13.3,13.6L4.7,5C4.4,4.7,3.9,4.5,3.5,4.6z"/>
	</g>
</g>
<g id="Group_9545_1_" transform="translate(344.05 130.576)">
	<g id="Group_9541_1_" transform="translate(0 19.287)">
		<path id="Path_6821_1_" class="st0" d="M0.2,18.5h-6.6c-0.7,0-1.3-0.6-1.3-1.3V-1.6c0-0.7,0.6-1.3,1.3-1.3h6.6
			c0.7,0,1.3,0.6,1.3,1.3v18.9C1.5,17.9,0.9,18.5,0.2,18.5C0.2,18.5,0.2,18.5,0.2,18.5z M-5.2,16h4.1V-0.3h-4.1V16z"/>
	</g>
	<g id="Group_9542_1_" transform="translate(13.118 13.987)">
		<path id="Path_6822_1_" class="st0" d="M-0.1,23.8h-6.6c-0.7,0-1.3-0.6-1.3-1.3v-24c0-0.7,0.6-1.3,1.3-1.3h6.6
			c0.7,0,1.3,0.6,1.3,1.3v24C1.2,23.2,0.6,23.8-0.1,23.8C-0.1,23.8-0.1,23.8-0.1,23.8z M-5.5,21.3h4.1V-0.2h-4.1V21.3z"/>
	</g>
	<g id="Group_9543_1_" transform="translate(26.237 8.427)">
		<path id="Path_6823_1_" class="st0" d="M-0.4,29.4H-7c-0.7,0-1.3-0.6-1.3-1.3V-1.4c0-0.7,0.6-1.3,1.3-1.3h6.6
			c0.7,0,1.3,0.6,1.3,1.3v29.5C0.9,28.8,0.3,29.4-0.4,29.4C-0.4,29.4-0.4,29.4-0.4,29.4z M-5.8,26.8h4.1V-0.1h-4.1V26.8z"/>
	</g>
	<g id="Group_9544_1_" transform="translate(39.355)">
		<path id="Path_6824_1_" class="st0" d="M-0.7,37.8h-6.6c-0.7,0-1.3-0.6-1.3-1.3V-1.2c0-0.7,0.6-1.3,1.3-1.3h6.6
			c0.7,0,1.3,0.6,1.3,1.3v37.8C0.5,37.3,0,37.8-0.7,37.8z M-6,35.2H-2V0H-6V35.2z"/>
	</g>
</g>
<g id="Group_9550_1_" transform="translate(17.74 190.868)">
	<g id="Group_9546_1_" transform="translate(32.318 15.812)">
		<path id="Path_6825_1_" class="st0" d="M5.6,13.9H0.1c-0.7,0-1.3-0.6-1.3-1.3V-2.9c0-0.7,0.6-1.3,1.3-1.3h5.4
			c0.7,0,1.3,0.6,1.3,1.3v15.5C6.8,13.3,6.3,13.9,5.6,13.9z M1.4,11.4h2.9v-13H1.4V11.4z"/>
	</g>
	<g id="Group_9547_1_" transform="translate(21.545 11.555)">
		<path id="Path_6826_1_" class="st0" d="M5.8,18.2H0.4c-0.7,0-1.3-0.6-1.3-1.3V-2.8c0-0.7,0.6-1.3,1.3-1.3h5.4
			c0.7,0,1.3,0.6,1.3,1.3v19.7C7.1,17.6,6.5,18.2,5.8,18.2z M1.7,15.6h2.9V-1.5H1.7V15.6z"/>
	</g>
	<g id="Group_9548_1_" transform="translate(10.773 6.95)">
		<path id="Path_6827_1_" class="st0" d="M6.1,22.8H0.6c-0.7,0-1.3-0.6-1.3-1.3V-2.7c0-0.7,0.6-1.3,1.3-1.3h5.4
			c0.7,0,1.3,0.6,1.3,1.3v24.2C7.3,22.2,6.8,22.8,6.1,22.8z M1.9,20.2h2.9V-1.4H1.9V20.2z"/>
	</g>
	<g id="Group_9549_1_">
		<path id="Path_6828_1_" class="st0" d="M6.3,29.7H0.9c-0.7,0-1.3-0.6-1.3-1.3v-31c0-0.7,0.6-1.3,1.3-1.3h5.4
			c0.7,0,1.3,0.6,1.3,1.3v31C7.6,29.2,7,29.7,6.3,29.7z M2.1,27.2H5V-1.3H2.1V27.2z"/>
	</g>
</g>
<g id="Group_9551_1_" transform="translate(110.785 189.392)">
	<path id="Path_6829_1_" class="st0" d="M9.8,32.1c-0.4,0-0.8-0.2-1-0.5C8.4,31-2.5,15.6-2.5,8.6c0-6.8,5.6-12.4,12.4-12.4
		c6.8,0,12.4,5.6,12.4,12.4c0,6.8-10.9,22.4-11.3,23C10.7,31.9,10.3,32.1,9.8,32.1L9.8,32.1z M9.8-1.2C4.4-1.2,0,3.2,0,8.6
		c0,4.6,6.4,14.9,9.9,20c3.5-5.2,9.9-15.5,9.9-20C19.7,3.2,15.3-1.2,9.8-1.2z M9.8,12.8c-3,0-5.4-2.4-5.4-5.4s2.4-5.4,5.4-5.4
		c3,0,5.4,2.4,5.4,5.4l0,0C15.2,10.3,12.8,12.8,9.8,12.8z M9.8,4.5c-1.6,0-2.9,1.3-2.9,2.9c0,1.6,1.3,2.9,2.9,2.9
		c1.6,0,2.9-1.3,2.9-2.9c0,0,0,0,0,0C12.7,5.8,11.4,4.5,9.8,4.5L9.8,4.5z"/>
</g>
<g id="Group_9552_1_" transform="translate(366.29 64.984)">
	<path id="Path_6830_1_" class="st0" d="M4.1,34.9c-0.4,0-0.8-0.2-1-0.5c-0.4-0.7-11.3-16.1-11.3-23C-8.2,4.6-2.7-1,4.2-1
		C11-1,16.6,4.6,16.6,11.4c0,6.8-10.9,22.4-11.3,23C5,34.7,4.5,34.9,4.1,34.9z M4.1,1.5c-5.4,0-9.9,4.4-9.9,9.9
		c0,4.6,6.4,14.9,9.9,20c3.5-5.2,9.9-15.5,9.9-20C14,5.9,9.5,1.5,4.1,1.5L4.1,1.5z M4.1,15.5c-3,0-5.4-2.4-5.4-5.4s2.4-5.4,5.4-5.4
		c3,0,5.4,2.4,5.4,5.4c0,0,0,0,0,0c0,3-2.3,5.4-5.3,5.4C4.2,15.5,4.2,15.5,4.1,15.5L4.1,15.5z M4.1,7.2c-1.6,0-2.9,1.3-2.9,2.9
		c0,1.6,1.3,2.9,2.9,2.9c1.6,0,2.9-1.3,2.9-2.9C7,8.5,5.7,7.2,4.1,7.2C4.1,7.2,4.1,7.2,4.1,7.2L4.1,7.2z"/>
</g>
<g id="Group_9553_1_" transform="translate(280.282 121.454)">
	<path id="Path_6831_1_" class="st0" d="M6,33.7c-0.4,0-0.8-0.2-1-0.5c-0.4-0.7-11.3-16.1-11.3-23c0-6.8,5.6-12.4,12.4-12.4
		c6.8,0,12.4,5.6,12.4,12.4c0,6.8-10.9,22.4-11.3,23C6.9,33.4,6.5,33.6,6,33.7L6,33.7z M6,0.2c-5.4,0-9.9,4.4-9.9,9.9
		c0,4.6,6.4,14.9,9.9,20c3.5-5.2,9.9-15.5,9.9-20C15.9,4.6,11.5,0.2,6,0.2z M6,14.2c-3,0-5.4-2.4-5.4-5.4S3,3.4,6,3.4
		s5.4,2.4,5.4,5.4l0,0c0,3-2.3,5.4-5.3,5.4C6.1,14.2,6.1,14.2,6,14.2z M6,5.9c-1.6,0-2.9,1.3-2.9,2.9c0,1.6,1.3,2.9,2.9,2.9
		c1.6,0,2.9-1.3,2.9-2.9C8.9,7.2,7.7,5.9,6,5.9C6.1,5.9,6,5.9,6,5.9z"/>
</g>
<g id="Group_9554_1_" transform="translate(88.719 53.69)">
	<path id="Path_6832_1_" class="st0" d="M10.4,35.3c-0.4,0-0.8-0.2-1-0.5C8.9,34.1-2,18.6-2,11.7C-2,4.8,3.6-0.7,10.4-0.7
		c6.8,0,12.4,5.6,12.4,12.4c0,6.8-10.9,22.4-11.3,23C11.2,35,10.8,35.2,10.4,35.3z M10.4,1.8c-5.4,0-9.8,4.4-9.9,9.9
		c0,4.6,6.4,14.9,9.9,20c3.5-5.2,9.9-15.5,9.9-20C20.3,6.2,15.8,1.8,10.4,1.8L10.4,1.8z M10.4,15.8c-3,0-5.4-2.4-5.4-5.4
		C5,7.4,7.4,5,10.4,5c3,0,5.4,2.4,5.4,5.4c0,0,0,0,0,0C15.9,13.4,13.4,15.8,10.4,15.8C10.4,15.8,10.4,15.8,10.4,15.8L10.4,15.8z
		 M10.4,7.5c-1.6,0-2.9,1.3-2.9,2.9c0,1.6,1.3,2.9,2.9,2.9c1.6,0,2.9-1.3,2.9-2.9C13.3,8.8,12,7.5,10.4,7.5
		C10.4,7.5,10.4,7.5,10.4,7.5L10.4,7.5z"/>
</g>
<g id="Group_9555_1_" transform="translate(498.777 4.17)">
	<path id="Path_6833_1_" class="st0" d="M1.2,36.4c-0.4,0-0.8-0.2-1-0.5c-0.5-0.7-11.4-16.1-11.4-23.1c0-6.8,5.6-12.4,12.4-12.4
		c6.8,0,12.4,5.5,12.4,12.4c0,6.8-10.9,22.4-11.3,23C2,36.1,1.7,36.3,1.2,36.4L1.2,36.4z M1.2,2.9c-5.4,0-9.8,4.4-9.9,9.9
		c0,4.6,6.4,14.9,9.9,20c3.5-5.2,9.9-15.5,9.9-20C11.1,7.3,6.7,2.9,1.2,2.9L1.2,2.9z M1.2,16.9c-3,0-5.4-2.4-5.4-5.4
		s2.4-5.4,5.4-5.4s5.4,2.4,5.4,5.4v0C6.7,14.5,4.2,16.9,1.2,16.9C1.2,16.9,1.2,16.9,1.2,16.9L1.2,16.9z M1.2,8.6
		c-1.6,0-2.9,1.3-2.9,2.9c0,1.6,1.3,2.9,2.9,2.9c1.6,0,2.9-1.3,2.9-2.9c0,0,0,0,0,0C4.1,9.9,2.8,8.6,1.2,8.6
		C1.3,8.6,1.2,8.6,1.2,8.6L1.2,8.6z"/>
</g>
<g id="Group_9556_1_" transform="translate(241.709 220.059)">
	<path id="Path_6834_1_" class="st0" d="M10.2,41.3c-0.4,0-0.8-0.2-1-0.5C8.6,40-5.4,20.1-5.4,11.2c0-8.6,7-15.6,15.6-15.6
		s15.6,7,15.6,15.6c0,8.7-14,28.8-14.6,29.6C11,41.1,10.6,41.3,10.2,41.3L10.2,41.3z M10.2-1.9C3-1.9-2.9,3.9-2.9,11.2
		C-2.9,18,7,33,10.2,37.8c3.2-4.8,13.1-20,13.1-26.7C23.3,3.9,17.4-1.9,10.2-1.9L10.2-1.9z M10.2,16.3c-3.7,0-6.6-3-6.6-6.6
		S6.5,3,10.2,3s6.6,3,6.6,6.6C16.8,13.3,13.9,16.3,10.2,16.3L10.2,16.3z M10.2,5.5C8,5.5,6.1,7.3,6.1,9.5c0,2.2,1.8,4,4.1,4.1
		c2.3,0,4.1-1.8,4.1-4.1C14.3,7.3,12.4,5.5,10.2,5.5L10.2,5.5z"/>
</g>
<g id="Group_9557_1_" transform="translate(363.25 297.206)">
	<path id="Path_6835_1_" class="st0" d="M1.2,22.7c-0.4,0-0.8-0.2-1-0.5c-0.4-0.7-11.3-16.1-11.3-23c0-6.8,5.6-12.4,12.4-12.4
		c6.8,0,12.4,5.6,12.4,12.4c0,6.8-10.9,22.4-11.3,23C2,22.5,1.6,22.7,1.2,22.7L1.2,22.7z M1.2-10.6c-5.4,0-9.8,4.4-9.9,9.9
		c0,4.6,6.4,14.9,9.9,20C4.7,14.1,11,3.7,11-0.8C11-6.2,6.6-10.6,1.2-10.6z M1.2,3.4c-3,0-5.4-2.4-5.4-5.4s2.4-5.4,5.4-5.4
		s5.4,2.4,5.4,5.4l0,0C6.6,0.9,4.2,3.3,1.2,3.4z M1.2-5c-1.6,0-2.9,1.3-2.9,2.9c0,1.6,1.3,2.9,2.9,2.9c1.6,0,2.9-1.3,2.9-2.9
		C4-3.7,2.8-4.9,1.2-5z"/>
</g>
<g id="Group_9558_1_" transform="translate(82.464 250.205)">
	<path id="Path_6836_1_" class="st0" d="M10.5,30.8c-0.4,0-0.8-0.2-1-0.5C9,29.6-1.8,14.2-1.8,7.3c0-6.8,5.6-12.4,12.4-12.4
		c6.8,0,12.4,5.6,12.4,12.4c0,6.8-10.9,22.4-11.3,23C11.3,30.6,10.9,30.8,10.5,30.8L10.5,30.8z M10.5-2.6C5-2.6,0.6,1.8,0.6,7.3
		c0,4.6,6.4,14.9,9.9,20c3.5-5.2,9.9-15.5,9.9-20C20.3,1.8,15.9-2.6,10.5-2.6z M10.5,11.4C7.5,11.4,5,9,5,6c0-3,2.4-5.4,5.4-5.4
		c3,0,5.4,2.4,5.4,5.4l0,0C15.9,9,13.5,11.4,10.5,11.4C10.5,11.4,10.5,11.4,10.5,11.4z M10.5,3.1C8.9,3.1,7.6,4.4,7.6,6
		c0,1.6,1.3,2.9,2.9,2.9c1.6,0,2.9-1.3,2.9-2.9C13.4,4.4,12.1,3.1,10.5,3.1C10.5,3.1,10.5,3.1,10.5,3.1L10.5,3.1z"/>
</g>
<g id="Group_9571_1_" transform="translate(408.165 84.618)">
	<g id="Group_9564_1_" transform="translate(35.793)">
		<g id="Group_9559_1_">
			<path id="Path_6837_1_" class="st0" d="M25.7,34c-0.3,0-0.5-0.1-0.8-0.3l-11.2-8.2H5.1c-0.7,0-1.3-0.6-1.3-1.3
				c0-0.7,0.6-1.3,1.3-1.3h9.1c0.3,0,0.5,0.1,0.8,0.3l9.3,6.8l-0.4-5.7c0-0.3,0.1-0.7,0.3-0.9c0.2-0.3,0.6-0.4,0.9-0.4
				c3.6,0,6.5-2.9,6.5-6.5v-9c0-3.6-2.9-6.5-6.5-6.5H-0.8c-3.6,0-6.5,2.9-6.5,6.5v0.1l-0.2,2c0,0.7-0.6,1.2-1.3,1.2
				c-0.7,0-1.2-0.6-1.2-1.3c0,0,0,0,0,0l0.2-2c0-4.9,4.1-8.9,9-8.9h25.9c5,0,9,4,9,9v9c0,4.4-3.2,8.2-7.6,8.8l0.5,7.1
				c0,0.5-0.3,0.9-0.7,1.2C26.2,33.9,25.9,34,25.7,34z"/>
		</g>
		<g id="Group_9560_1_" transform="translate(8.688 6.776)">
			<path id="Path_6838_1_" class="st0" d="M11.8,1H-8.9c-0.7,0-1.3-0.6-1.3-1.3s0.6-1.3,1.3-1.3h20.7c0.7,0,1.3,0.6,1.3,1.3
				C13.1,0.4,12.6,1,11.8,1C11.9,1,11.9,1,11.8,1z"/>
		</g>
		<g id="Group_9561_1_" transform="translate(20.069 17.723)">
			<path id="Path_6839_1_" class="st0" d="M5.6,0.7H-9.1c-0.7,0-1.3-0.6-1.3-1.3s0.6-1.3,1.3-1.3H5.6c0.7,0,1.3,0.6,1.3,1.3
				C6.9,0.1,6.4,0.7,5.6,0.7C5.7,0.7,5.7,0.7,5.6,0.7z"/>
		</g>
		<g id="Group_9562_1_" transform="translate(24.586 12.25)">
			<path id="Path_6840_1_" class="st0" d="M1.1,0.8H-9.2c-0.7,0-1.3-0.6-1.3-1.3s0.6-1.3,1.3-1.3H1.1c0.7,0,1.3,0.6,1.3,1.3
				C2.4,0.3,1.9,0.8,1.1,0.8C1.2,0.8,1.1,0.8,1.1,0.8z"/>
		</g>
		<g id="Group_9563_1_" transform="translate(11.989 12.25)">
			<path id="Path_6841_1_" class="st0" d="M-2.3,0.8H-9c-0.7,0-1.3-0.6-1.3-1.3S-9.7-1.7-9-1.7h6.6c0.7,0,1.3,0.6,1.3,1.3
				S-1.6,0.8-2.3,0.8L-2.3,0.8L-2.3,0.8z"/>
		</g>
	</g>
	<g id="Group_9570_1_" transform="translate(0 10.078)">
		<g id="Group_9565_1_">
			<path id="Path_6842_1_" class="st0" d="M0.5,39.6c-0.2,0-0.4-0.1-0.6-0.2c-0.4-0.2-0.7-0.7-0.7-1.2l0.6-8.7
				c-5.2-0.7-9-5.1-9-10.3V8.7C-9.1,3-4.5-1.6,1.2-1.7h30.6c5.7,0,10.3,4.6,10.4,10.4v10.6c0,5.7-4.6,10.3-10.4,10.4H14.6L1.3,39.4
				C1.1,39.5,0.8,39.6,0.5,39.6z M1.2,0.8c-4.3,0-7.8,3.5-7.8,7.8c0,0,0,0,0,0v10.6c0,4.3,3.5,7.8,7.8,7.8c0,0,0,0,0,0
				c0.4,0,0.7,0.2,0.9,0.4c0.2,0.3,0.4,0.6,0.3,0.9L2,35.6l11.5-8.3c0.2-0.2,0.5-0.2,0.8-0.3h17.6c4.3,0,7.8-3.5,7.8-7.8
				c0,0,0,0,0,0V8.6c0-4.3-3.5-7.8-7.8-7.8c0,0,0,0,0,0L1.2,0.8L1.2,0.8z"/>
		</g>
		<g id="Group_9566_1_" transform="translate(14.769 7.993)">
			<path id="Path_6843_1_" class="st0" d="M16.3,0.7H-8.2c-0.7,0-1.3-0.6-1.3-1.3s0.6-1.3,1.3-1.3h24.5c0.7,0,1.3,0.6,1.3,1.3
				C17.5,0.1,17,0.7,16.3,0.7C16.3,0.7,16.3,0.7,16.3,0.7z"/>
		</g>
		<g id="Group_9567_1_" transform="translate(8.601 20.85)">
			<path id="Path_6844_1_" class="st0" d="M9.3,0.4H-8.1c-0.7,0-1.3-0.6-1.3-1.3c0-0.7,0.6-1.3,1.3-1.3H9.3c0.7,0,1.3,0.6,1.3,1.3
				C10.6-0.1,10,0.4,9.3,0.4L9.3,0.4z"/>
		</g>
		<g id="Group_9568_1_" transform="translate(8.601 14.422)">
			<path id="Path_6845_1_" class="st0" d="M4.2,0.6H-8.1c-0.7,0-1.3-0.6-1.3-1.3S-8.8-2-8.1-2H4.2c0.7,0,1.3,0.6,1.3,1.3
				S4.9,0.6,4.2,0.6L4.2,0.6z"/>
		</g>
		<g id="Group_9569_1_" transform="translate(31.102 14.422)">
			<path id="Path_6846_1_" class="st0" d="M-0.8,0.6h-7.7c-0.7,0-1.3-0.6-1.3-1.3S-9.3-2-8.6-2h7.8c0.7,0,1.3,0.6,1.3,1.3
				C0.5,0-0.1,0.6-0.8,0.6z"/>
		</g>
	</g>
</g>
<g id="Group_9584_1_" transform="translate(235.28 276.616)">
	<g id="Group_9577_1_" transform="translate(35.793)">
		<g id="Group_9572_1_">
			<path id="Path_6847_1_" class="st0" d="M29.6,29.7c-0.3,0-0.5-0.1-0.8-0.3l-11.2-8.2H9c-0.7,0-1.3-0.6-1.3-1.3
				c0-0.7,0.6-1.3,1.3-1.3H18c0.3,0,0.5,0.1,0.8,0.3l9.3,6.8l-0.4-5.7c0-0.3,0.1-0.7,0.3-0.9c0.2-0.3,0.6-0.4,0.9-0.4
				c3.6,0,6.5-2.9,6.5-6.5l0,0v-9c0-3.6-2.9-6.5-6.5-6.5l0,0H3.1c-3.6,0-6.5,2.9-6.5,6.5l0,0v0.1l-0.2,2c0,0.7-0.6,1.2-1.3,1.2
				c-0.7,0-1.2-0.6-1.2-1.3c0,0,0,0,0,0l0.2-2c0-4.9,4.1-8.9,9-8.9H29c5,0,9,4,9,9v9c0,4.4-3.2,8.2-7.6,8.8l0.5,7.1
				c0,0.5-0.3,0.9-0.7,1.2C30,29.6,29.8,29.7,29.6,29.7z"/>
		</g>
		<g id="Group_9573_1_" transform="translate(8.688 6.776)">
			<path id="Path_6848_1_" class="st0" d="M15.7-3.3H-5c-0.7,0-1.3-0.6-1.3-1.3c0-0.7,0.6-1.3,1.3-1.3h20.7c0.7,0,1.3,0.6,1.3,1.3
				C17-3.9,16.5-3.4,15.7-3.3C15.8-3.3,15.7-3.3,15.7-3.3z"/>
		</g>
		<g id="Group_9574_1_" transform="translate(20.069 17.723)">
			<path id="Path_6849_1_" class="st0" d="M9.5-3.6H-5.3c-0.7,0-1.3-0.6-1.3-1.3c0-0.7,0.6-1.3,1.3-1.3H9.5c0.7,0,1.3,0.6,1.3,1.3
				C10.8-4.2,10.3-3.6,9.5-3.6C9.6-3.6,9.5-3.6,9.5-3.6z"/>
		</g>
		<g id="Group_9575_1_" transform="translate(24.586 12.25)">
			<path id="Path_6850_1_" class="st0" d="M5-3.5H-5.4c-0.7,0-1.3-0.6-1.3-1.3C-6.6-5.4-6.1-6-5.4-6H5c0.7,0,1.3,0.6,1.3,1.3
				C6.3-4,5.7-3.5,5-3.5C5-3.5,5-3.5,5-3.5z"/>
		</g>
		<g id="Group_9576_1_" transform="translate(11.989 12.25)">
			<path id="Path_6851_1_" class="st0" d="M1.6-3.5h-6.6c-0.7,0-1.3-0.6-1.3-1.3C-6.3-5.4-5.8-6-5.1-6h6.6c0.7,0,1.3,0.6,1.3,1.3
				C2.8-4,2.3-3.5,1.6-3.5L1.6-3.5z"/>
		</g>
	</g>
	<g id="Group_9583_1_" transform="translate(0 10.078)">
		<g id="Group_9578_1_">
			<path id="Path_6852_1_" class="st0" d="M4.4,35.3c-0.2,0-0.4-0.1-0.6-0.2c-0.4-0.2-0.7-0.7-0.7-1.2l0.6-8.7
				c-5.2-0.7-9-5.1-9-10.3V4.4C-5.3-1.3-0.6-5.9,5.1-6h30.6C41.4-5.9,46-1.3,46,4.4V15c0,5.7-4.6,10.3-10.4,10.4H18.5L5.2,35.1
				C4.9,35.2,4.7,35.3,4.4,35.3z M5.1-3.5C0.8-3.5-2.7,0-2.7,4.3c0,0,0,0,0,0v10.6c0,4.3,3.5,7.8,7.8,7.8c0,0,0,0,0,0
				c0.4,0,0.7,0.2,0.9,0.4c0.2,0.3,0.4,0.6,0.3,0.9l-0.5,7.2L17.3,23c0.2-0.2,0.5-0.2,0.8-0.3h17.6c4.3,0,7.8-3.5,7.8-7.8
				c0,0,0,0,0,0V4.3c0-4.3-3.5-7.8-7.8-7.8c0,0,0,0,0,0H5.1L5.1-3.5z"/>
		</g>
		<g id="Group_9579_1_" transform="translate(14.769 7.993)">
			<path id="Path_6853_1_" class="st0" d="M20.1-3.6H-4.3c-0.7,0-1.3-0.6-1.3-1.3c0-0.7,0.6-1.3,1.3-1.3h24.5c0.7,0,1.3,0.6,1.3,1.3
				C21.4-4.2,20.9-3.6,20.1-3.6C20.2-3.6,20.1-3.6,20.1-3.6z"/>
		</g>
		<g id="Group_9580_1_" transform="translate(8.601 20.85)">
			<path id="Path_6854_1_" class="st0" d="M13.2-3.9H-4.2c-0.7,0-1.3-0.6-1.3-1.3c0-0.7,0.6-1.3,1.3-1.3h17.4c0.7,0,1.3,0.6,1.3,1.3
				C14.5-4.4,13.9-3.9,13.2-3.9L13.2-3.9z"/>
		</g>
		<g id="Group_9581_1_" transform="translate(8.601 14.422)">
			<path id="Path_6855_1_" class="st0" d="M8-3.7H-4.2c-0.7,0-1.3-0.6-1.3-1.3c0-0.7,0.6-1.3,1.3-1.3H8c0.7,0,1.3,0.6,1.3,1.3
				C9.3-4.3,8.7-3.7,8-3.7L8-3.7z"/>
		</g>
		<g id="Group_9582_1_" transform="translate(31.102 14.422)">
			<path id="Path_6856_1_" class="st0" d="M3-3.7h-7.7C-5.4-3.7-6-4.3-6-5c0-0.7,0.6-1.3,1.3-1.3l0,0h7.8c0.7,0,1.3,0.6,1.3,1.3
				C4.4-4.3,3.8-3.7,3-3.7z"/>
		</g>
	</g>
</g>
<g id="Group_9591_1_" transform="translate(111.133 100.256)">
	<g id="Group_9585_1_" transform="translate(0 0.087)">
		<path id="Path_6857_1_" class="st0" d="M20.4,44.1C7.8,44.1-2.5,33.8-2.5,21.1S7.8-1.8,20.4-1.8S43.4,8.5,43.4,21.1l0,0
			C43.4,33.8,33.1,44.1,20.4,44.1z M20.4,0.7C9.2,0.7,0.1,9.8,0.1,21.1s9.1,20.4,20.4,20.4s20.4-9.1,20.4-20.4
			C40.8,9.8,31.7,0.7,20.4,0.7L20.4,0.7z"/>
	</g>
	<g id="Group_9586_1_" transform="translate(5.908 5.995)">
		<path id="Path_6858_1_" class="st0" d="M14.5,32.4c-9.5,0-17.2-7.7-17.2-17.2c0-9.5,7.7-17.2,17.2-17.2c9.5,0,17.2,7.7,17.2,17.2
			C31.7,24.7,24,32.4,14.5,32.4z M14.5,0.6C6.5,0.6-0.1,7.1-0.1,15.2s6.5,14.6,14.6,14.6s14.6-6.5,14.6-14.6v0
			C29.1,7.1,22.6,0.5,14.5,0.6C14.5,0.5,14.5,0.5,14.5,0.6L14.5,0.6z"/>
	</g>
	<g id="Group_9587_1_" transform="translate(22.154)">
		<path id="Path_6859_1_" class="st0" d="M-1.7,6.5C-2.4,6.5-3,6-3,5.3v-5.8c0-0.7,0.6-1.3,1.3-1.3c0.7,0,1.3,0.6,1.3,1.3v5.8
			C-0.5,6-1,6.5-1.7,6.5z"/>
	</g>
	<g id="Group_9588_1_" transform="translate(36.224 10.856)">
		<path id="Path_6860_1_" class="st0" d="M-2,3.6c-0.4,0-0.9-0.2-1.1-0.6c-0.3-0.6-0.2-1.4,0.4-1.8l4.8-3.1C2.7-2.2,3.5-2,3.9-1.4
			C4.3-0.8,4.1,0,3.5,0.4l0,0l-4.8,3.1C-1.6,3.5-1.8,3.6-2,3.6z"/>
	</g>
	<g id="Group_9589_1_" transform="translate(3.06 10.966)">
		<path id="Path_6861_1_" class="st0" d="M3.5,3.7c-0.2,0-0.5-0.1-0.7-0.2L-2,0.3c-0.6-0.4-0.7-1.2-0.3-1.8C-1.9-2-1.1-2.2-0.5-1.8
			l4.8,3.1C4.9,1.7,5,2.5,4.7,3.1c0,0,0,0,0,0C4.4,3.5,4,3.7,3.5,3.7z"/>
	</g>
	<g id="Group_9590_1_" transform="translate(5.864 7.167)">
		<path id="Path_6862_1_" class="st0" d="M2.8,4.6c-0.3,0-0.7-0.1-0.9-0.3l-4.1-4.1c-0.5-0.5-0.5-1.3,0-1.8c0.5-0.5,1.3-0.5,1.8,0
			c0,0,0,0,0,0l4.1,4.1c0.5,0.5,0.5,1.2,0,1.7c0,0,0,0,0,0C3.4,4.5,3.1,4.6,2.8,4.6z"/>
	</g>
</g>
<g id="Group_9598_1_" transform="translate(427.799 150.905)">
	<g id="Group_9592_1_" transform="translate(0 0.087)">
		<path id="Path_6863_1_" class="st0" d="M13.3,42.9C0.7,42.9-9.6,32.7-9.6,20C-9.6,7.3,0.7-2.9,13.3-2.9C26-2.9,36.3,7.3,36.3,20
			c0,0,0,0,0,0C36.3,32.7,26,42.9,13.3,42.9z M13.3-0.5C2.1-0.5-7,8.7-7,19.9c0,11.3,9.1,20.4,20.4,20.4s20.4-9.1,20.4-20.4v0
			C33.7,8.7,24.6-0.4,13.3-0.5z"/>
	</g>
	<g id="Group_9593_1_" transform="translate(5.908 5.995)">
		<path id="Path_6864_1_" class="st0" d="M7.4,31.3c-9.5,0-17.2-7.7-17.2-17.2C-9.7,4.6-2-3,7.4-3c9.5,0,17.2,7.7,17.2,17.2
			C24.6,23.6,16.9,31.3,7.4,31.3z M7.4-0.6C-0.6-0.6-7.2,6-7.2,14c0,8.1,6.5,14.6,14.6,14.6S22,22.1,22,14v0C22,6,15.5-0.6,7.4-0.6
			C7.4-0.6,7.4-0.6,7.4-0.6L7.4-0.6z"/>
	</g>
	<g id="Group_9594_1_" transform="translate(22.154)">
		<path id="Path_6865_1_" class="st0" d="M-8.8,5.4c-0.7,0-1.3-0.6-1.3-1.3v-5.8c0-0.7,0.6-1.3,1.3-1.3c0.7,0,1.3,0.6,1.3,1.3v5.8
			C-7.5,4.8-8.1,5.4-8.8,5.4C-8.8,5.4-8.8,5.4-8.8,5.4z"/>
	</g>
	<g id="Group_9595_1_" transform="translate(36.224 10.856)">
		<path id="Path_6866_1_" class="st0" d="M-9.1,2.4c-0.4,0-0.9-0.2-1.1-0.6c-0.3-0.6-0.2-1.4,0.4-1.8L-5-3c0.6-0.4,1.4-0.2,1.8,0.4
			S-3-1.2-3.6-0.8l0,0l-4.8,3.1C-8.7,2.4-8.9,2.4-9.1,2.4z"/>
	</g>
	<g id="Group_9596_1_" transform="translate(3.06 11.053)">
		<path id="Path_6867_1_" class="st0" d="M-3.6,2.5c-0.2,0-0.5-0.1-0.7-0.2l-4.8-3.1C-9.7-1.2-9.8-2-9.4-2.6C-9-3.2-8.2-3.3-7.6-2.9
			l4.8,3.1C-2.2,0.6-2.1,1.4-2.4,2c0,0,0,0,0,0C-2.7,2.3-3.1,2.5-3.6,2.5z"/>
	</g>
	<g id="Group_9597_1_" transform="translate(5.864 7.167)">
		<path id="Path_6868_1_" class="st0" d="M-4.3,3.5c-0.3,0-0.7-0.1-0.9-0.3l-4.1-4.1c-0.5-0.5-0.5-1.3,0-1.8c0.5-0.5,1.3-0.5,1.7,0
			l4.1,4.1C-3,1.9-3,2.6-3.4,3.1c0,0,0,0,0,0C-3.7,3.4-4,3.5-4.3,3.5z"/>
	</g>
</g>
<g id="Group_9605_1_" transform="translate(38.591 15.377)">
	<g id="Group_9599_1_" transform="translate(0 0.087)">
		<path id="Path_6869_1_" class="st0" d="M22.1,46C9.4,46-0.9,35.7-0.9,23.1c0-12.7,10.3-22.9,22.9-22.9C34.7,0.1,45,10.4,45,23.1
			c0,0,0,0,0,0C45,35.7,34.7,46,22.1,46z M22.1,2.6C10.8,2.6,1.7,11.7,1.7,23s9.1,20.4,20.4,20.4S42.4,34.2,42.4,23
			C42.4,11.7,33.3,2.6,22.1,2.6z"/>
	</g>
	<g id="Group_9600_1_" transform="translate(5.908 5.994)">
		<path id="Path_6870_1_" class="st0" d="M16.2,34.3C6.7,34.3-1,26.6-1,17.1C-1,7.7,6.7,0,16.2,0c9.5,0,17.2,7.7,17.2,17.2
			C33.3,26.6,25.6,34.3,16.2,34.3z M16.2,2.5C8.1,2.5,1.5,9,1.5,17.1s6.5,14.6,14.6,14.6s14.6-6.5,14.6-14.6c0,0,0,0,0,0
			C30.8,9,24.2,2.5,16.2,2.5C16.2,2.5,16.2,2.5,16.2,2.5L16.2,2.5z"/>
	</g>
	<g id="Group_9601_1_" transform="translate(22.154)">
		<path id="Path_6871_1_" class="st0" d="M-0.1,8.4c-0.7,0-1.3-0.6-1.3-1.3V1.4c0-0.7,0.6-1.3,1.3-1.3s1.3,0.6,1.3,1.3v5.8
			C1.2,7.9,0.7,8.4-0.1,8.4C-0.1,8.4-0.1,8.4-0.1,8.4z"/>
	</g>
	<g id="Group_9602_1_" transform="translate(36.224 10.856)">
		<path id="Path_6872_1_" class="st0" d="M-0.4,5.5c-0.4,0-0.9-0.2-1.1-0.6c-0.3-0.6-0.2-1.4,0.4-1.8l4.8-3.1
			c0.6-0.4,1.4-0.2,1.8,0.4c0.4,0.6,0.2,1.4-0.4,1.8L0.3,5.3C0.1,5.4-0.2,5.5-0.4,5.5z"/>
	</g>
	<g id="Group_9603_1_" transform="translate(3.06 11.053)">
		<path id="Path_6873_1_" class="st0" d="M5.2,5.5c-0.2,0-0.5-0.1-0.7-0.2l-4.8-3.1C-1,1.8-1.1,1-0.7,0.5s1.2-0.7,1.8-0.3l4.8,3.1
			C6.5,3.6,6.7,4.4,6.3,5c0,0,0,0,0,0C6,5.4,5.6,5.5,5.2,5.5z"/>
	</g>
	<g id="Group_9604_1_" transform="translate(5.864 7.167)">
		<path id="Path_6874_1_" class="st0" d="M4.4,6.5c-0.3,0-0.7-0.1-0.9-0.3l-4.1-4.1c-0.5-0.5-0.5-1.3,0-1.8c0.5-0.5,1.3-0.5,1.7,0
			l4.1,4.1c0.5,0.5,0.5,1.2,0,1.7c0,0,0,0,0,0C5,6.4,4.7,6.6,4.4,6.5z"/>
	</g>
</g>
<g id="Group_9626_1_" transform="translate(221.032 6.505)">
	<g id="Group_9612_1_" transform="translate(0 6.527)">
		<g id="Group_9606_1_" transform="translate(9.383 29.278)">
			<path id="Path_6875_1_" class="st0" d="M-3.7,37.5h-1.4v-37h2.5v34.3c1.8-0.5,3.2-2,3.4-3.8L5.3-0.5l2.5,0.3L3.3,31.3
				C2.8,34.8-0.2,37.4-3.7,37.5z"/>
		</g>
		<g id="Group_9611_1_">
			<g id="Group_9607_1_" transform="translate(33.534 12.51)">
				<path id="Path_6876_1_" class="st0" d="M-5.7,17.4V-0.1L-4.3,0c0.2,0,4.2,0.2,6.7,2.9c1.4,1.6,2,3.7,1.9,5.8l0,0
					c-0.3,6-5.7,8.2-8.5,8.5L-5.7,17.4z M-3.2,2.7v11.6c2.7-0.7,4.6-3,4.8-5.8l0,0c0.2-1.4-0.3-2.8-1.2-3.9C-0.6,3.7-1.8,3-3.2,2.7
					L-3.2,2.7z"/>
			</g>
			<g id="Group_9608_1_" transform="translate(0 5.386)">
				<path id="Path_6877_1_" class="st0" d="M26.4,31.4h-2.5c0-1.6-0.6-3.1-1.8-4.2c-1.1-1.1-2.7-1.8-4.2-1.8H4.7
					C-0.6,25.4-5,21.2-5,15.9c-0.1-5.3,4.2-9.7,9.5-9.8c0.1,0,0.1,0,0.2,0h13.1c3.3,0,6-2.7,6-6h2.5L26.4,31.4L26.4,31.4z M4.7,8.6
					c-3.9,0.1-7.1,3.2-7.1,7.1c0,3.9,3.2,7.1,7.1,7.1h13.1c2.3,0,4.4,0.9,6,2.5V6.2c-1.6,1.6-3.8,2.5-6,2.5L4.7,8.6z"/>
			</g>
			<g id="Group_9609_1_" transform="translate(13.9 12.858)">
				<rect id="Rectangle_1823_1_" x="-5.3" y="-0.1" class="st0" width="2.5" height="16.3"/>
			</g>
			<g id="Group_9610_1_" transform="translate(29.364)">
				<path id="Path_6878_1_" class="st0" d="M-2.3,41.4c-1.8,0-3.3-1.5-3.3-3.3V3.5c0-1.8,1.5-3.3,3.3-3.3C-0.5,0.1,1,1.6,1,3.4
					c0,0,0,0.1,0,0.1v34.7C1,39.9-0.5,41.4-2.3,41.4z M-2.3,2.8c-0.4,0-0.8,0.3-0.8,0.8c0,0,0,0,0,0v34.7c0,0.4,0.3,0.8,0.8,0.8
					s0.8-0.3,0.8-0.8c0,0,0,0,0,0V3.5C-1.6,3.1-1.9,2.8-2.3,2.8z"/>
			</g>
		</g>
	</g>
	<g id="Group_9625_1_" transform="translate(42.906)">
		<g id="Group_9615_1_">
			<g id="Group_9613_1_" transform="translate(15.377)">
				<path id="Path_6879_1_" class="st0" d="M-5,7.7c-0.4,0-0.8-0.2-1-0.5c-0.4-0.5-0.3-1.3,0.2-1.7c0,0,0,0,0.1,0l6.4-4.8
					C1.2,0.2,2,0.3,2.4,0.8s0.3,1.4-0.3,1.8l0,0l-6.4,4.8C-4.4,7.6-4.7,7.7-5,7.7z"/>
			</g>
			<g id="Group_9614_1_" transform="translate(0 9.296)">
				<path id="Path_6880_1_" class="st0" d="M-4.6,9.8c-0.4,0-0.8-0.2-1-0.5C-6.1,8.8-6,8-5.5,7.6c0,0,0,0,0.1,0l9.3-7.1
					C4.5,0,5.3,0.1,5.7,0.6C6.1,1.2,6,2,5.5,2.4l-9.3,7.1C-4.1,9.7-4.4,9.8-4.6,9.8z"/>
			</g>
		</g>
		<g id="Group_9617_1_" transform="translate(15.843 10.37)">
			<g id="Group_9616_1_">
				<path id="Path_6881_1_" class="st0" d="M-5,8c-0.7,0-1.2-0.6-1.2-1.2c0-0.5,0.3-0.9,0.7-1.1L4.9,0.2c0.6-0.3,1.4,0,1.7,0.6
					c0.3,0.6,0,1.4-0.6,1.7l0,0L-4.4,7.9C-4.6,8-4.8,8-5,8z"/>
			</g>
		</g>
		<g id="Group_9620_1_" transform="translate(0 35.967)">
			<g id="Group_9618_1_" transform="translate(15.464 11.728)">
				<path id="Path_6882_1_" class="st0" d="M1.4,6.7c-0.3,0-0.5-0.1-0.8-0.3l-6.4-4.8C-6.3,1.1-6.4,0.3-6-0.2
					c0.4-0.6,1.2-0.7,1.8-0.3l6.4,4.8c0.6,0.4,0.7,1.2,0.3,1.7c0,0,0,0,0,0.1C2.2,6.5,1.8,6.6,1.4,6.7z"/>
			</g>
			<g id="Group_9619_1_">
				<path id="Path_6883_1_" class="st0" d="M4.7,9.2c-0.3,0-0.5-0.1-0.8-0.3l-9.3-7.1C-6,1.4-6.1,0.6-5.7,0c0.4-0.6,1.2-0.7,1.8-0.3
					l0,0l9.3,7.1C6,7.3,6.2,8.1,5.8,8.6c0,0,0,0,0,0.1C5.5,9,5.1,9.2,4.7,9.2z"/>
			</g>
		</g>
		<g id="Group_9622_1_" transform="translate(15.896 36.746)">
			<g id="Group_9621_1_">
				<path id="Path_6884_1_" class="st0" d="M5.5,7.4c-0.2,0-0.4-0.1-0.6-0.2L-5.6,1.9c-0.6-0.3-0.9-1.1-0.6-1.7
					c0.3-0.6,1.1-0.9,1.7-0.6l0,0L6,4.9C6.6,5.3,6.8,6,6.6,6.6C6.4,7.1,5.9,7.4,5.5,7.4z"/>
			</g>
		</g>
		<g id="Group_9623_1_" transform="translate(15.909 26.335)">
			<path id="Path_6885_1_" class="st0" d="M4.1,2.3H-5c-0.7,0-1.3-0.6-1.3-1.3c0-0.7,0.6-1.3,1.3-1.3h9.1c0.7,0,1.3,0.6,1.3,1.3
				C5.4,1.7,4.8,2.3,4.1,2.3z"/>
		</g>
		<g id="Group_9624_1_" transform="translate(30.765 26.421)">
			<path id="Path_6886_1_" class="st0" d="M-1.6,2.3h-3.7C-6,2.3-6.6,1.7-6.6,1c0-0.7,0.6-1.3,1.3-1.3h3.7c0.7,0,1.3,0.6,1.3,1.3
				C-0.3,1.7-0.9,2.3-1.6,2.3C-1.6,2.3-1.6,2.3-1.6,2.3z"/>
		</g>
	</g>
</g>
<g id="Group_9634_1_" transform="translate(139.368 146.301)">
	<g id="Group_9627_1_" transform="translate(0 38.052)">
		<path id="Path_6887_1_" class="st0" d="M35.9,7H3.2c-3.5,0-6.3-2.8-6.3-6.3c0,0,0,0,0,0v-3.1c0-0.7,0.6-1.3,1.3-1.3
			c0.7,0,1.3,0.6,1.3,1.3v3.1c0,2.1,1.7,3.7,3.7,3.7h32.8c0.7,0,1.3,0.6,1.3,1.3C37.2,6.4,36.6,6.9,35.9,7L35.9,7L35.9,7z"/>
	</g>
	<g id="Group_9628_1_">
		<path id="Path_6888_1_" class="st0" d="M35.9,45c-3.2,0-5.8-2.6-5.8-5.8v-2.3h-32c-0.7,0-1.3-0.6-1.3-1.3c0-0.7,0.6-1.3,1.3-1.3
			h8.2V-1.5c0-0.7,0.6-1.3,1.3-1.3h32.8c0.7,0,1.3,0.6,1.3,1.3v40.8c0.1,3.1-2.4,5.7-5.5,5.8C36,45,36,45,35.9,45z M8.8,34.4h22.6
			c0.7,0,1.3,0.6,1.3,1.3v3.6c0,1.8,1.4,3.2,3.2,3.2c1.8,0,3.2-1.4,3.2-3.2V-0.3H8.9L8.8,34.4L8.8,34.4z"/>
	</g>
	<g id="Group_9633_1_" transform="translate(15.898 8.688)">
		<g id="Group_9629_1_">
			<path id="Path_6889_1_" class="st0" d="M15.5-0.5H-2.2c-0.7,0-1.3-0.6-1.3-1.3C-3.5-2.4-2.9-3-2.2-3h17.8c0.7,0,1.3,0.6,1.3,1.3
				C16.8-1,16.2-0.5,15.5-0.5L15.5-0.5z"/>
		</g>
		<g id="Group_9630_1_" transform="translate(0 18.157)">
			<path id="Path_6890_1_" class="st0" d="M15.5-0.9H-2.2c-0.7,0-1.3-0.6-1.3-1.3c0-0.7,0.6-1.3,1.3-1.3h17.8c0.7,0,1.3,0.6,1.3,1.3
				C16.8-1.4,16.2-0.9,15.5-0.9L15.5-0.9z"/>
		</g>
		<g id="Group_9631_1_" transform="translate(0 12.076)">
			<path id="Path_6891_1_" class="st0" d="M15.5-0.7H-2.2c-0.7,0-1.3-0.6-1.3-1.3c0-0.7,0.6-1.3,1.3-1.3h17.8c0.7,0,1.3,0.6,1.3,1.3
				C16.8-1.3,16.2-0.7,15.5-0.7L15.5-0.7z"/>
		</g>
		<g id="Group_9632_1_" transform="translate(0 6.081)">
			<path id="Path_6892_1_" class="st0" d="M9.9-0.6H-2.2c-0.7,0-1.3-0.6-1.3-1.3c0-0.7,0.6-1.3,1.3-1.3H9.9c0.7,0,1.3,0.6,1.3,1.3
				C11.1-1.2,10.6-0.6,9.9-0.6z"/>
		</g>
	</g>
</g>
<g id="Group_9634_2_" transform="translate(139.368 146.301)">
	<g id="Group_9627_2_" transform="translate(0 38.052)">
		<path id="Path_6887_2_" class="st0" d="M375.9-35.4h-32.8c-3.5,0-6.3-2.8-6.3-6.3c0,0,0,0,0,0v-3.1c0-0.7,0.6-1.3,1.3-1.3
			s1.3,0.6,1.3,1.3v3.1c0,2.1,1.7,3.7,3.7,3.7h32.8c0.7,0,1.3,0.6,1.3,1.3C377.2-36,376.6-35.4,375.9-35.4L375.9-35.4L375.9-35.4z"
			/>
	</g>
	<g id="Group_9628_2_">
		<path id="Path_6888_2_" class="st0" d="M375.9,2.7c-3.2,0-5.8-2.6-5.8-5.8v-2.3h-32c-0.7,0-1.3-0.6-1.3-1.3c0-0.7,0.6-1.3,1.3-1.3
			h8.2v-35.9c0-0.7,0.6-1.3,1.3-1.3h32.8c0.7,0,1.3,0.6,1.3,1.3v40.8c0.1,3.1-2.4,5.7-5.5,5.8C376,2.7,375.9,2.7,375.9,2.7z
			 M348.8-8h22.6c0.7,0,1.3,0.6,1.3,1.3v3.6c0,1.8,1.4,3.2,3.2,3.2c1.8,0,3.2-1.4,3.2-3.2v-39.5h-30.2L348.8-8L348.8-8z"/>
	</g>
	<g id="Group_9633_2_" transform="translate(15.898 8.688)">
		<g id="Group_9629_2_">
			<path id="Path_6889_2_" class="st0" d="M355.5-42.8h-17.8c-0.7,0-1.3-0.6-1.3-1.3c0-0.7,0.6-1.3,1.3-1.3h17.8
				c0.7,0,1.3,0.6,1.3,1.3C356.8-43.4,356.2-42.8,355.5-42.8L355.5-42.8z"/>
		</g>
		<g id="Group_9630_2_" transform="translate(0 18.157)">
			<path id="Path_6890_2_" class="st0" d="M355.5-43.2h-17.8c-0.7,0-1.3-0.6-1.3-1.3c0-0.7,0.6-1.3,1.3-1.3h17.8
				c0.7,0,1.3,0.6,1.3,1.3C356.8-43.8,356.2-43.2,355.5-43.2L355.5-43.2z"/>
		</g>
		<g id="Group_9631_2_" transform="translate(0 12.076)">
			<path id="Path_6891_2_" class="st0" d="M355.5-43.1h-17.8c-0.7,0-1.3-0.6-1.3-1.3c0-0.7,0.6-1.3,1.3-1.3h17.8
				c0.7,0,1.3,0.6,1.3,1.3C356.8-43.6,356.2-43.1,355.5-43.1L355.5-43.1z"/>
		</g>
		<g id="Group_9632_2_" transform="translate(0 6.081)">
			<path id="Path_6892_2_" class="st0" d="M349.8-42.9h-12.1c-0.7,0-1.3-0.6-1.3-1.3c0-0.7,0.6-1.3,1.3-1.3h12.1
				c0.7,0,1.3,0.6,1.3,1.3C351.1-43.5,350.5-42.9,349.8-42.9z"/>
		</g>
	</g>
</g>
<g id="Group_9644_1_" transform="translate(348.741 189.131)">
	<g id="Group_9635_1_">
		<path id="Path_6893_1_" class="st0" d="M48.3,33.8H-3.5c-2.4,0-4.3-1.9-4.3-4.3V0.6c0-2.4,1.9-4.3,4.3-4.3h51.8
			c2.4,0,4.3,1.9,4.3,4.3v28.9C52.6,31.8,50.7,33.8,48.3,33.8z M-3.5-1.3c-1,0-1.8,0.7-1.8,1.7c0,0,0,0.1,0,0.1v28.9
			c0,1,0.7,1.8,1.7,1.8c0,0,0.1,0,0.1,0h51.8c1,0,1.8-0.7,1.8-1.7c0,0,0-0.1,0-0.1V0.5c0-1-0.7-1.8-1.7-1.8c0,0-0.1,0-0.1,0
			L-3.5-1.3L-3.5-1.3z"/>
	</g>
	<g id="Group_9636_1_" transform="translate(6.342 28.496)">
		<path id="Path_6894_1_" class="st0" d="M8.3-1.9h-15C-7.4-1.9-8-2.4-8-3.1c0-0.7,0.6-1.3,1.3-1.3h15c0.7,0,1.3,0.6,1.3,1.3
			C9.6-2.4,9-1.9,8.3-1.9L8.3-1.9z"/>
	</g>
	<g id="Group_9637_1_" transform="translate(28.93 28.496)">
		<path id="Path_6895_1_" class="st0" d="M3.9-1.9h-11c-0.7,0-1.3-0.6-1.3-1.3c0-0.7,0.6-1.3,1.3-1.3h11c0.7,0,1.3,0.6,1.3,1.3
			C5.1-2.4,4.6-1.9,3.9-1.9L3.9-1.9z"/>
	</g>
	<g id="Group_9638_1_" transform="translate(47.435 28.496)">
		<path id="Path_6896_1_" class="st0" d="M-2.1-1.9h-5.5c-0.7,0-1.3-0.6-1.3-1.3c0-0.7,0.6-1.3,1.3-1.3h5.5c0.7,0,1.3,0.6,1.3,1.3
			C-0.8-2.4-1.4-1.9-2.1-1.9L-2.1-1.9z"/>
	</g>
	<g id="Group_9642_1_" transform="translate(7.819 7.819)">
		<g id="Group_9639_1_" transform="translate(0 0)">
			<path id="Path_6897_1_" class="st0" d="M3.6,9H-6.7C-7.4,8.9-8,8.4-8,7.7V-2.7c0-0.7,0.6-1.3,1.3-1.3H3.6c0.7,0,1.3,0.6,1.3,1.3
				V7.7C4.9,8.4,4.4,8.9,3.6,9C3.7,9,3.7,9,3.6,9z M-5.5,6.4h7.8v-7.8h-7.8L-5.5,6.4z"/>
		</g>
		<g id="Group_9640_1_" transform="translate(7.037)">
			<path id="Path_6898_1_" class="st0" d="M-6.9,2.7c-0.7,0-1.3-0.6-1.3-1.3v-4.1C-8.2-3.4-7.6-4-6.9-4c0.7,0,1.3,0.6,1.3,1.3v4.1
				C-5.6,2.1-6.1,2.7-6.9,2.7C-6.8,2.7-6.9,2.7-6.9,2.7z"/>
		</g>
		<g id="Group_9641_1_" transform="translate(3.214 5.299)">
			<path id="Path_6899_1_" class="st0" d="M-6.8,2.6C-7.5,2.5-8,2-8.1,1.3v-4.1c0-0.7,0.6-1.3,1.3-1.3c0.7,0,1.3,0.6,1.3,1.3v4.1
				C-5.5,2-6.1,2.5-6.8,2.6C-6.8,2.6-6.8,2.6-6.8,2.6z"/>
		</g>
	</g>
	<g id="Group_9643_1_" transform="translate(53.082 0)">
		<path id="Path_6900_1_" class="st0" d="M-7.7,33.8c-0.7,0-1.3-0.6-1.3-1.3v-35c0-0.7,0.6-1.3,1.3-1.3c0.7,0,1.3,0.6,1.3,1.3v35
			C-6.5,33.2-7,33.8-7.7,33.8z"/>
	</g>
</g>
<g id="Group_9654_1_" transform="translate(17.653 97.65)">
	<g id="Group_9645_1_">
		<path id="Path_6901_1_" class="st0" d="M55.7,35.8H3.9c-2.4,0-4.3-1.9-4.3-4.3V2.6c0-2.4,1.9-4.3,4.3-4.3h51.8
			c2.4,0,4.3,1.9,4.3,4.3v28.9C60.1,33.9,58.1,35.8,55.7,35.8z M3.9,0.8c-1,0-1.8,0.7-1.8,1.7c0,0,0,0.1,0,0.1v28.9
			c0,1,0.7,1.8,1.7,1.8c0,0,0.1,0,0.1,0h51.8c1,0,1.8-0.7,1.8-1.7c0,0,0-0.1,0-0.1V2.6c0-1-0.7-1.8-1.7-1.8c0,0-0.1,0-0.1,0L3.9,0.8
			z"/>
	</g>
	<g id="Group_9646_1_" transform="translate(6.342 28.496)">
		<path id="Path_6902_1_" class="st0" d="M15.8,0.2h-15C0,0.2-0.5-0.4-0.5-1.1c0-0.7,0.6-1.3,1.3-1.3h15c0.7,0,1.3,0.6,1.3,1.3
			C17-0.4,16.5,0.2,15.8,0.2z"/>
	</g>
	<g id="Group_9647_1_" transform="translate(28.843 28.496)">
		<path id="Path_6903_1_" class="st0" d="M11.3,0.2h-11C-0.5,0.2-1-0.4-1-1.1c0-0.7,0.6-1.3,1.3-1.3h11c0.7,0,1.3,0.6,1.3,1.3
			C12.6-0.4,12,0.2,11.3,0.2C11.3,0.2,11.3,0.2,11.3,0.2z"/>
	</g>
	<g id="Group_9648_1_" transform="translate(47.348 28.496)">
		<path id="Path_6904_1_" class="st0" d="M5.3,0.2h-5.5c-0.7,0-1.3-0.6-1.3-1.3c0-0.7,0.6-1.3,1.3-1.3h5.5c0.7,0,1.3,0.6,1.3,1.3
			C6.6-0.4,6.1,0.2,5.3,0.2C5.4,0.2,5.4,0.2,5.3,0.2z"/>
	</g>
	<g id="Group_9652_1_" transform="translate(7.732 7.906)">
		<g id="Group_9649_1_">
			<path id="Path_6905_1_" class="st0" d="M11.1,11H0.7C0,11-0.6,10.4-0.6,9.7V-0.6c0-0.7,0.6-1.3,1.3-1.3h10.4
				c0.7,0,1.3,0.6,1.3,1.3V9.7C12.3,10.4,11.8,11,11.1,11C11.1,11,11.1,11,11.1,11z M2,8.5h7.8V0.6H2L2,8.5z"/>
		</g>
		<g id="Group_9650_1_" transform="translate(7.124)">
			<path id="Path_6906_1_" class="st0" d="M0.5,4.7c-0.7,0-1.3-0.6-1.3-1.3v-4.1c0-0.7,0.6-1.3,1.3-1.3c0.7,0,1.3,0.6,1.3,1.3v4.1
				C1.8,4.1,1.2,4.7,0.5,4.7z"/>
		</g>
		<g id="Group_9651_1_" transform="translate(3.301 5.299)">
			<path id="Path_6907_1_" class="st0" d="M0.6,4.6c-0.7,0-1.3-0.6-1.3-1.3v-4.1C-0.6-1.5-0.1-2,0.6-2c0.7,0,1.3,0.6,1.3,1.3l0,0
				v4.1C1.9,4,1.3,4.6,0.6,4.6z"/>
		</g>
	</g>
	<g id="Group_9653_1_" transform="translate(52.995 0)">
		<path id="Path_6908_1_" class="st0" d="M-0.3,35.8c-0.7,0-1.3-0.6-1.3-1.3v-35c0-0.7,0.6-1.3,1.3-1.3S1-1.2,1-0.5v35
			C1,35.2,0.4,35.8-0.3,35.8C-0.3,35.8-0.3,35.8-0.3,35.8z"/>
	</g>
</g>
<g id="Group_9655_1_" transform="translate(136.718 229.647)">
	<path id="Path_6909_1_" class="st0" d="M13.8,30.8c-4.3,0-8.1-2.5-9.9-6.5l-6.1-14.1C-4.5,4.8-2-1.5,3.4-3.8c0,0,0,0,0,0l1-0.4
		c1.1-0.5,2.4-0.5,3.5-0.1C9.1-4,10-3.1,10.4-2l2,4.6C12.9,4,12.8,5.5,12,6.8c-0.5,0.8-1.2,1.4-2,1.8C9.4,8.8,8.8,8.9,8.2,8.9
		c-0.4,0.8-0.4,1.7-0.1,2.5l2,4.7c0.3,0.8,1,1.4,1.9,1.6c0.4-0.5,1-0.8,1.5-1.1c0.9-0.3,1.8-0.4,2.7-0.3c1.4,0.3,2.6,1.3,3.2,2.6
		l2,4.6c1,2.3-0.1,4.9-2.4,5.9c0,0,0,0,0,0l-1,0.4C16.7,30.5,15.3,30.8,13.8,30.8z M6.3-2.2C6.1-2.1,5.8-2.1,5.6-2L4.5-1.6
		C0.3,0.2-1.6,5,0.2,9.1c0,0,0,0,0,0l6.1,14.1c1.8,4.1,6.6,6,10.7,4.3c0,0,0,0,0,0l1-0.4c0.5-0.2,0.9-0.6,1-1.1c0.2-0.5,0.2-1,0-1.5
		l-2-4.6c-0.2-0.6-0.8-1-1.4-1.1c-0.4-0.1-0.8-0.1-1.2,0.1c-0.4,0.1-0.7,0.4-0.8,0.8c-0.3,0.4-0.7,0.6-1.2,0.6
		c-2.1-0.1-3.9-1.3-4.7-3.2l-2-4.7l0,0c-0.8-1.9-0.5-4.1,0.8-5.7c0.3-0.3,0.8-0.5,1.3-0.4C8.2,6.3,8.7,6.2,9,6.1
		c0.4-0.1,0.7-0.4,0.8-0.8c0.4-0.5,0.4-1.2,0.2-1.8l-2-4.6C7.9-1.6,7.5-1.9,7-2.1C6.8-2.1,6.6-2.2,6.3-2.2L6.3-2.2z"/>
</g>
<g id="Group_9656_1_" transform="translate(282.714 157.594)">
	<path id="Path_6910_1_" class="st0" d="M2.7,35.3c-1.1,0-2.3-0.4-3.1-1.1l-1.1-0.8C-7,29.1-7.9,21.4-3.7,16L7.4,1.7
		c4.2-5.4,12-6.3,17.4-2.1l1.1,0.8c1.1,0.8,1.8,2,1.9,3.4c0.2,1.3-0.2,2.7-1,3.7l-3.7,4.6c-1,1.3-2.6,2-4.2,2c-1-0.1-2-0.4-2.9-1
		c-0.6-0.4-1.1-1-1.4-1.7c-1.1,0-2.2,0.5-3,1.4l0,0l-3.7,4.8c-0.7,0.9-0.9,2.1-0.6,3.2c0.7,0.2,1.4,0.5,2,0.9
		c0.9,0.6,1.5,1.5,1.7,2.5c0.5,1.6,0.2,3.3-0.8,4.6l-3.7,4.6C5.6,34.6,4.2,35.4,2.7,35.3z M17.3-0.4c-3,0-5.9,1.4-7.7,3.7L-1.7,17.7
		C-5,22-4.2,28.1,0,31.5l1.1,0.8c1.1,0.9,2.7,0.7,3.6-0.4l3.7-4.6C8.9,26.7,9,25.8,8.8,25c-0.1-0.5-0.4-0.9-0.8-1.3
		c-0.4-0.3-0.9-0.5-1.4-0.5c-0.5,0-0.9-0.3-1.1-0.8c-1-2.1-0.8-4.6,0.7-6.5l3.7-4.8c1.4-1.9,3.8-2.7,6.1-2.2
		c0.4,0.1,0.8,0.4,0.9,0.8c0.1,0.5,0.4,0.9,0.8,1.3c0.4,0.3,0.9,0.5,1.4,0.5c0.8,0,1.6-0.3,2.1-0.9l3.7-4.6c0.4-0.5,0.6-1.2,0.5-1.9
		c-0.1-0.7-0.4-1.3-0.9-1.7l-1.1-0.8C21.7,0.3,19.5-0.4,17.3-0.4z"/>
</g>
<g id="Group_9666_1_" transform="translate(164.493 271.143)">
	<g id="Group_9662_1_" transform="translate(2.556)">
		<g id="Group_9657_1_" transform="translate(20.426)">
			<path id="Path_6911_1_" class="st0" d="M-0.6,11.5c-0.1,0-0.3,0-0.4-0.1c-0.4-0.1-0.8-0.6-0.8-1L-4.2-4.2c0-0.4,0-0.7,0.3-1
				C-3.7-5.4-3.3-5.6-3-5.6h0.2c5.3,0,10.5,2,14.4,5.6C11.9,0.3,12,0.6,12,1c0,0.4-0.2,0.7-0.5,0.9L0.2,11.1
				C-0.1,11.3-0.3,11.4-0.6,11.5z M-1.5-3.1L0.3,7.7l8.5-6.9C5.8-1.4,2.3-2.7-1.5-3.1L-1.5-3.1z"/>
		</g>
		<g id="Group_9658_1_" transform="translate(0 1.072)">
			<path id="Path_6912_1_" class="st0" d="M13.9,13.1H-2.5c-0.4,0-0.7-0.2-0.9-0.4c-0.2-0.3-0.3-0.7-0.3-1C-2.4,3.6,3.2-3,10.9-5.6
				c0.3-0.1,0.7-0.1,1,0.1c0.3,0.2,0.5,0.5,0.6,0.8l2.6,16.2c0,0.4,0,0.7-0.3,1C14.7,12.9,14.3,13.1,13.9,13.1z M-0.9,10.6h13.3
				L10.3-2.6C4.7-0.3,0.5,4.6-0.9,10.6z"/>
		</g>
		<g id="Group_9659_1_" transform="translate(29.591 10.393)">
			<path id="Path_6913_1_" class="st0" d="M8.1,3.8H-3.2c-0.5,0-1-0.3-1.2-0.8c-0.2-0.5,0-1.1,0.4-1.4l8.7-7c0.3-0.2,0.7-0.3,1-0.3
				c0.4,0.1,0.7,0.3,0.8,0.6C8-2.9,8.9-0.4,9.2,2.3c0,0.4,0,0.7-0.3,1C8.8,3.6,8.4,3.8,8.1,3.8z M0.4,1.2h6C6.1-0.1,5.7-1.4,5.1-2.6
				L0.4,1.2z"/>
		</g>
		<g id="Group_9660_1_" transform="translate(5.419 26.29)">
			<path id="Path_6914_1_" class="st0" d="M12.2,11.3c-5.9,0-11.6-2.5-15.7-6.8C-4,4-4,3.1-3.4,2.6c0,0,0,0,0.1-0.1L9.1-6
				c0.4-0.2,0.8-0.3,1.2-0.1c0.4,0.2,0.7,0.5,0.8,0.9l2.4,14.9c0,0.4,0,0.7-0.3,1C13,11.1,12.6,11.2,12.2,11.3L12.2,11.3z M-0.6,3.9
				c3.1,2.9,7.1,4.6,11.4,4.9L8.9-2.7L-0.6,3.9z"/>
		</g>
		<g id="Group_9661_1_" transform="translate(24.248 24.152)">
			<path id="Path_6915_1_" class="st0" d="M-0.4,12.5c-0.2,0-0.5-0.1-0.7-0.2c-0.3-0.2-0.5-0.5-0.6-0.8L-4.3-4.7c0-0.4,0-0.7,0.3-1
				C-3.8-6-3.4-6.1-3.1-6.2h16.4c0.4,0,0.7,0.2,0.9,0.4c0.2,0.3,0.3,0.7,0.3,1c-1.3,8-6.9,14.6-14.6,17.2
				C-0.1,12.4-0.3,12.5-0.4,12.5z M-1.5-3.7L0.7,9.5c5.6-2.4,9.7-7.3,11.2-13.2L-1.5-3.7z"/>
		</g>
	</g>
	<g id="Group_9665_1_" transform="translate(0 22.637)">
		<g id="Group_9663_1_" transform="translate(0 0.491)">
			<path id="Path_6916_1_" class="st0" d="M2.1,3.2C1.9,3.2,1.7,3.1,1.5,3L-3,0.7C-3.6,0.4-3.9-0.4-3.5-1l2.4-4.5
				C-0.8-6.1-0.1-6.3,0.5-6s0.9,1.1,0.5,1.7c0,0,0,0,0,0l-1.8,3.4l3.3,1.8C3.2,1.2,3.4,2,3.1,2.6C2.9,3,2.5,3.2,2.1,3.2z"/>
		</g>
		<g id="Group_9664_1_" transform="translate(2.202)">
			<path id="Path_6917_1_" class="st0" d="M-2.4,0.5c-0.6,0-1.1-0.4-1.3-0.9c-0.2-0.7,0.3-1.4,0.9-1.5l16.3-4.2
				c0.7-0.2,1.4,0.1,1.6,0.8S15-3.9,14.3-3.7c-0.1,0-0.1,0-0.2,0L-2.2,0.5L-2.4,0.5z"/>
		</g>
	</g>
</g>
<g id="Group_9669_1_" transform="translate(298.092 58.034)">
	<g id="Group_9667_1_">
		<path id="Path_6918_1_" class="st1" d="M33.1,23.1l5.5-0.8l-0.8-6.5l-5.5,0.8c-0.2-0.5-0.4-1.1-0.6-1.6l4.5-3.1l-3.7-5.3l-4.5,3.1
			C27.5,9.4,27,9,26.6,8.6l2.5-4.9l-5.8-3l-2.5,4.9c-0.8-0.3-1.6-0.4-2.5-0.5v-5.9h-6.5v6.3L10.1,6L7.3,1.2L1.7,4.5l2.8,4.8
			C4.1,9.7,3.7,10,3.3,10.5l-4.7-2.9l-3.4,5.5l4.7,2.9c-0.2,0.5-0.4,1.1-0.5,1.6l-5.5-0.4l-0.5,6.5l5.5,0.4c0.1,0.6,0.2,1.2,0.3,1.7
			L-6,27.9l2.5,5.9l5.1-2.1c0.3,0.5,0.7,0.9,1,1.4l-3.5,4.2l5,4.2l3.5-4.2c0.5,0.3,1,0.5,1.6,0.8l-1.2,5.4l6.4,1.4l1.2-5.4h0.4
			c0.5,0,0.9,0,1.4-0.1l1.4,5.4l6.3-1.7l-1.4-5.4c0.5-0.3,1-0.5,1.5-0.8l3.7,4.1l4.8-4.4L30,32.4c0.4-0.4,0.7-0.9,0.9-1.4l5.2,1.9
			l2.2-6.1l-5.2-1.9C33,24.3,33,23.7,33.1,23.1z M15.8,31.4c-5.1,0-9.2-4.1-9.2-9.2s4.1-9.2,9.2-9.2c5.1,0,9.2,4.1,9.2,9.2l0,0
			C25,27.2,20.9,31.3,15.8,31.4C15.9,31.4,15.8,31.4,15.8,31.4L15.8,31.4z"/>
	</g>
	<g id="Group_9668_1_" transform="translate(12.337 12.858)">
		<path id="Path_6919_1_" class="st0" d="M3.5,19.8C-2.3,19.8-7,15.1-7,9.3S-2.3-1.1,3.5-1.1c5.8,0,10.4,4.7,10.4,10.4
			C13.9,15.1,9.3,19.8,3.5,19.8C3.5,19.8,3.5,19.8,3.5,19.8z M3.5,1.3c-4.4,0-7.9,3.5-7.9,7.9s3.5,7.9,7.9,7.9
			c4.4,0,7.9-3.5,7.9-7.9c0,0,0,0,0,0C11.4,4.9,7.8,1.4,3.5,1.3L3.5,1.3z"/>
	</g>
</g>
<g id="Group_9672_1_" transform="translate(102.185 288.952)">
	<g id="Group_9670_1_">
		<path id="Path_6920_1_" class="st1" d="M29,12.8l4.3-0.6l-0.7-5l-4.3,0.6l-0.5-1.3l3.6-2.5l-2.9-4.2l-3.6,2.5
			c-0.3-0.3-0.7-0.6-1-0.9l2-3.8l-4.5-2.4l-2,3.8c-0.6-0.2-1.3-0.3-2-0.4V-6h-5.1v4.9c-0.5,0.1-1,0.2-1.4,0.4L8.7-4.4L4.3-1.8
			l2.2,3.7C6.2,2.2,5.9,2.5,5.6,2.8L2,0.5l-2.7,4.3l3.7,2.3C2.7,7.6,2.6,8,2.5,8.4l-4.3-0.3l-0.4,5.1L2,13.5c0,0.5,0.1,0.9,0.3,1.4
			l-4,1.7l2,4.7l4-1.7c0.3,0.4,0.5,0.8,0.8,1.1L2.4,24l3.9,3.2L9,23.9c0.4,0.2,0.8,0.4,1.3,0.6l-0.9,4.2l4.9,1.1l0.9-4.2h0.3
			c0.4,0,0.7,0,1.1-0.1l1.1,4.2l4.9-1.4l-1.1-4.2c0.4-0.2,0.8-0.4,1.2-0.7l3,3.2l3.7-3.5l-3-3.2c0.3-0.3,0.5-0.8,0.8-1.1l4.1,1.4
			l1.7-4.8L29,14.1C28.9,13.7,28.9,13.3,29,12.8z M15.5,19.3c-4,0-7.2-3.2-7.2-7.2c0-4,3.2-7.2,7.2-7.2c4,0,7.2,3.2,7.2,7.2
			C22.8,16.1,19.5,19.3,15.5,19.3C15.6,19.3,15.5,19.3,15.5,19.3L15.5,19.3z"/>
	</g>
	<g id="Group_9671_1_" transform="translate(9.556 9.817)">
		<path id="Path_6921_1_" class="st0" d="M6,10.8c-4.7,0-8.5-3.8-8.5-8.5c0-4.7,3.8-8.5,8.5-8.5c4.7,0,8.5,3.8,8.5,8.5l0,0
			C14.5,6.9,10.7,10.7,6,10.8z M6-3.6C2.7-3.6,0-0.9,0,2.3S2.7,8.3,6,8.3c3.3,0,5.9-2.7,5.9-5.9l0,0C11.9-0.9,9.3-3.6,6-3.6z"/>
	</g>
</g>
<g id="Group_9673_1_" transform="translate(162.738 233.959)">
	<path id="Path_6922_1_" class="st0" d="M-0.2,2.2c-1.9,0-3.5-1.6-3.5-3.5c0-1.9,1.6-3.5,3.5-3.5c1.9,0,3.5,1.6,3.5,3.5
		C3.3,0.6,1.8,2.2-0.2,2.2C-0.1,2.2-0.1,2.2-0.2,2.2z M-0.2-2.2c-0.5,0-0.9,0.4-0.9,0.9s0.4,0.9,0.9,0.9c0.5,0,0.9-0.4,0.9-0.9l0,0
		C0.8-1.8,0.3-2.2-0.2-2.2z"/>
</g>
<g id="Group_9674_1_" transform="translate(339.619 184.526)">
	<path id="Path_6923_1_" class="st0" d="M-4.1,3.3c-1.9,0-3.5-1.6-3.5-3.5s1.6-3.5,3.5-3.5c1.9,0,3.5,1.6,3.5,3.5
		C-0.7,1.7-2.2,3.3-4.1,3.3z M-4.1-1c-0.5,0-0.9,0.4-0.9,0.9c0,0.5,0.4,0.9,0.9,0.9s0.9-0.4,0.9-0.9v0C-3.2-0.6-3.6-1-4.1-1z"/>
</g>
<g id="Group_9675_1_" transform="translate(341.791 113.374)">
	<path id="Path_6924_1_" class="st0" d="M-4.2,4.8L-4.2,4.8c-1.9,0-3.5-1.5-3.5-3.4c0-1.9,1.5-3.5,3.4-3.5c0,0,0.1,0,0.1,0
		c0.9,0,1.8,0.4,2.5,1c0.7,0.6,1,1.5,1,2.5c0,0.9-0.4,1.8-1,2.5C-2.4,4.5-3.3,4.8-4.2,4.8z M-4.2,0.4c-0.5,0-0.9,0.4-0.9,1
		c0,0.5,0.4,0.9,0.9,0.9c0.5,0,0.9-0.4,1-0.9C-3.2,0.8-3.6,0.4-4.2,0.4C-4.1,0.4-4.2,0.4-4.2,0.4z"/>
</g>
<g id="Group_9676_1_" transform="translate(104.878 137.439)">
	<path id="Path_6925_1_" class="st0" d="M1.1,4.4c-1.9,0-3.5-1.6-3.5-3.5s1.6-3.5,3.5-3.5c1.9,0,3.5,1.6,3.5,3.5l0,0
		C4.6,2.8,3.1,4.3,1.1,4.4C1.2,4.4,1.2,4.4,1.1,4.4z M1.1-0.1c-0.5,0-0.9,0.4-0.9,0.9c0,0.5,0.4,0.9,0.9,0.9s0.9-0.4,0.9-0.9l0,0
		C2.1,0.4,1.6-0.1,1.1-0.1z"/>
</g>
<g id="Group_9677_1_" transform="translate(304.868 17.375)">
	<path id="Path_6926_1_" class="st0" d="M-3.4,7c-1.9,0-3.5-1.6-3.5-3.5s1.6-3.5,3.5-3.5c1.9,0,3.5,1.6,3.5,3.5C0.2,5.5-1.4,7-3.4,7
		C-3.3,7-3.3,7-3.4,7z M-3.4,2.6c-0.5,0-0.9,0.4-0.9,0.9c0,0.5,0.4,0.9,0.9,0.9c0.5,0,0.9-0.4,0.9-0.9c0,0,0,0,0,0
		C-2.4,3-2.8,2.6-3.4,2.6z"/>
</g>
<g id="Group_9678_1_" transform="translate(197.141 30.581)">
	<path id="Path_6927_1_" class="st0" d="M-0.9,6.7c-1.9,0-3.5-1.6-3.5-3.5c0-1.9,1.6-3.5,3.5-3.5c1.9,0,3.5,1.6,3.5,3.5v0
		C2.6,5.2,1,6.7-0.9,6.7C-0.9,6.7-0.9,6.7-0.9,6.7z M-0.9,2.3c-0.5,0-0.9,0.4-0.9,0.9s0.4,0.9,0.9,0.9S0,3.8,0,3.3v0
		C0,2.7-0.4,2.3-0.9,2.3z"/>
</g>
<g id="Group_9679_1_" transform="translate(348.915 13.813)">
	<path id="Path_6928_1_" class="st0" d="M-0.6,14.7c-4,0-7.2-3.2-7.2-7.2c0-4,3.2-7.2,7.2-7.3l0,0c4,0,7.2,3.2,7.2,7.2l0,0
		c0,1.9-0.8,3.8-2.1,5.1C3.2,13.9,1.3,14.7-0.6,14.7L-0.6,14.7z M-0.6,2.8L-0.6,2.8c-2.6-0.1-4.8,2-4.9,4.7c-0.1,2.6,2,4.8,4.7,4.9
		c2.6,0.1,4.8-2,4.9-4.7c0-1.3-0.5-2.5-1.4-3.5C1.9,3.3,0.7,2.8-0.6,2.8z"/>
</g>
<g id="Group_9680_1_" transform="translate(271.508 68.546)">
	<path id="Path_6929_1_" class="st0" d="M-2.6,5.9c-1.9,0-3.5-1.6-3.5-3.5s1.6-3.5,3.5-3.5c1.9,0,3.5,1.6,3.5,3.5
		C0.9,4.3-0.6,5.9-2.6,5.9C-2.6,5.9-2.6,5.9-2.6,5.9z M-2.6,1.5c-0.5,0-0.9,0.4-0.9,0.9c0,0.5,0.4,0.9,0.9,0.9
		c0.5,0,0.9-0.4,0.9-0.9c0,0,0,0,0,0C-1.7,1.9-2.1,1.5-2.6,1.5z"/>
</g>
<g id="Group_9681_1_" transform="translate(68.216 165.587)">
	<path id="Path_6930_1_" class="st0" d="M2,3.7C0,3.7-1.5,2.2-1.5,0.2S0-3.2,2-3.2c1.9,0,3.5,1.6,3.5,3.5l0,0C5.5,2.1,3.9,3.7,2,3.7
		C2,3.7,2,3.7,2,3.7z M2-0.6C1.4-0.6,1-0.2,1,0.3C1,0.8,1.4,1.3,2,1.3s0.9-0.4,0.9-0.9l0,0C2.9-0.2,2.5-0.6,2-0.6z"/>
</g>
<g id="Group_9682_1_" transform="translate(124.338 81.23)">
	<path id="Path_6931_1_" class="st0" d="M0.7,5.6c-1.9,0-3.5-1.6-3.5-3.5c0-1.9,1.6-3.5,3.5-3.5c1.9,0,3.5,1.6,3.5,3.5v0
		C4.2,4,2.6,5.6,0.7,5.6z M0.7,1.3c-0.5,0-0.9,0.4-0.9,0.9s0.4,0.9,0.9,0.9c0.5,0,0.9-0.4,0.9-0.9c0,0,0,0,0,0
		C1.6,1.7,1.2,1.3,0.7,1.3z"/>
</g>
<g id="Group_9683_1_" transform="translate(330.15 126.753)">
	<path id="Path_6932_1_" class="st0" d="M-3.9,4.6c-1.9,0-3.5-1.6-3.5-3.5s1.6-3.5,3.5-3.5c1.9,0,3.5,1.6,3.5,3.5
		C-0.4,3-1.9,4.6-3.9,4.6C-3.9,4.6-3.9,4.6-3.9,4.6z M-3.9,0.3c-0.5,0-0.9,0.4-0.9,0.9c0,0.5,0.4,0.9,0.9,0.9S-3,1.7-3,1.2v0
		C-3,0.7-3.4,0.3-3.9,0.3z"/>
</g>
<g id="Group_9684_1_" transform="translate(263.254 133.703)">
	<path id="Path_6933_1_" class="st0" d="M-2.4,4.4c-1.9,0-3.5-1.6-3.5-3.5s1.6-3.5,3.5-3.5C-0.5-2.5,1.1-1,1.1,1
		C1.1,2.9-0.4,4.4-2.4,4.4C-2.4,4.4-2.4,4.4-2.4,4.4z M-2.4,0.1c-0.5,0-0.9,0.4-0.9,0.9C-3.4,1.6-2.9,2-2.4,2S-1.5,1.6-1.5,1v0
		C-1.5,0.5-1.9,0.1-2.4,0.1z"/>
</g>
<g id="Group_9685_1_" transform="translate(266.208 188.088)">
	<path id="Path_6934_1_" class="st0" d="M-2.5,3.1L-2.5,3.1C-4.4,3.1-6,1.6-6-0.4c0-1.9,1.6-3.4,3.4-3.4c0,0,0,0,0,0
		c0.9,0,1.8,0.4,2.5,1c0.7,0.6,1,1.5,1,2.5c0,0.9-0.4,1.8-1,2.5C-0.7,2.8-1.6,3.1-2.5,3.1z M-2.5-1.3c-0.5,0-0.9,0.4-1,0.9
		c0,0.5,0.4,0.9,0.9,1c0,0,0,0,0.1,0c0.5,0,0.9-0.4,1-0.9S-1.9-1.3-2.5-1.3C-2.4-1.3-2.5-1.3-2.5-1.3z"/>
</g>
<g id="Group_9686_1_" transform="translate(225.029 221.449)">
	<path id="Path_6935_1_" class="st0" d="M-1.6,2.5C-3.5,2.5-5,0.9-5-1s1.6-3.5,3.5-3.5c1.9,0,3.5,1.6,3.5,3.5
		C1.9,0.9,0.4,2.4-1.6,2.5C-1.5,2.5-1.5,2.5-1.6,2.5z M-1.6-1.9c-0.5,0-0.9,0.4-0.9,0.9C-2.5-0.4-2.1,0-1.6,0C-1,0-0.6-0.4-0.6-0.9
		l0,0C-0.6-1.4-1-1.9-1.6-1.9z"/>
</g>
<g id="Group_9687_1_" transform="translate(225.376 128.143)">
	<path id="Path_6936_1_" class="st0" d="M-1.6,4.5L-1.6,4.5C-3.5,4.5-5,3-5.1,1.1c0-1.9,1.5-3.5,3.4-3.5c0,0,0.1,0,0.1,0
		c0.9,0,1.8,0.4,2.5,1c0.7,0.6,1,1.5,1,2.5c0,0.9-0.4,1.8-1,2.5C0.2,4.1-0.7,4.5-1.6,4.5z M-1.6,0.1c-0.5,0-0.9,0.4-1,0.9
		c0,0.5,0.4,0.9,0.9,1c0,0,0,0,0.1,0c0.5,0,0.9-0.4,1-0.9S-1,0.1-1.6,0.1C-1.5,0.1-1.6,0.1-1.6,0.1z"/>
</g>
<g id="Group_9688_1_" transform="translate(320.593 202.076)">
	<path id="Path_6937_1_" class="st0" d="M-3.7,2.9c-1.9,0-3.5-1.6-3.5-3.5s1.6-3.5,3.5-3.5c1.9,0,3.5,1.6,3.5,3.5
		C-0.2,1.3-1.8,2.9-3.7,2.9z M-3.7-1.5c-0.5,0-0.9,0.4-0.9,0.9c0,0.5,0.4,0.9,0.9,0.9s0.9-0.4,0.9-0.9v0C-2.8-1.1-3.2-1.5-3.7-1.5
		L-3.7-1.5z"/>
</g>
<g id="Group_9689_1_" transform="translate(221.901 279.222)">
	<path id="Path_6938_1_" class="st0" d="M-1.5,1.2C-3.4,1.2-5-0.4-5-2.3c0-1.9,1.6-3.5,3.5-3.5C0.4-5.8,2-4.2,2-2.3
		C2-0.4,0.5,1.2-1.5,1.2C-1.4,1.2-1.5,1.2-1.5,1.2z M-1.5-3.2c-0.5,0-0.9,0.4-0.9,0.9c0,0.5,0.4,0.9,0.9,0.9c0.5,0,0.9-0.4,0.9-0.9
		l0,0C-0.6-2.8-1-3.2-1.5-3.2z"/>
</g>
<g id="Group_9690_1_" transform="translate(118.17 244.211)">
	<path id="Path_6939_1_" class="st0" d="M0.8,2c-1.9,0-3.5-1.6-3.5-3.5C-2.7-3.4-1.1-5,0.8-5c1.9,0,3.5,1.6,3.5,3.5
		C4.3,0.4,2.7,1.9,0.8,2z M0.8-2.5C0.3-2.5-0.1-2-0.1-1.5s0.4,0.9,0.9,0.9c0.5,0,0.9-0.4,0.9-0.9l0,0C1.8-2,1.3-2.5,0.8-2.5z"/>
</g>
<g id="Group_9691_1_" transform="translate(72.125 238.129)">
	<path id="Path_6940_1_" class="st0" d="M1.9,2.1c-1.9,0-3.5-1.6-3.5-3.5c0-1.9,1.6-3.5,3.5-3.5s3.5,1.6,3.5,3.5
		C5.3,0.5,3.8,2.1,1.9,2.1z M1.9-2.3c-0.5,0-0.9,0.4-0.9,0.9s0.4,0.9,0.9,0.9s0.9-0.4,0.9-0.9l0,0C2.8-1.9,2.4-2.3,1.9-2.3z"/>
</g>
<g id="Group_9692_1_" transform="translate(80.813 293.731)">
	<path id="Path_6941_1_" class="st0" d="M1.7,0.8c-1.9,0-3.5-1.6-3.5-3.5c0-1.9,1.6-3.5,3.5-3.5s3.5,1.6,3.5,3.5
		C5.1-0.7,3.6,0.8,1.7,0.8z M1.7-3.6c-0.5,0-0.9,0.4-0.9,0.9s0.4,0.9,0.9,0.9s0.9-0.4,0.9-0.9l0,0C2.6-3.1,2.2-3.6,1.7-3.6z"/>
</g>
<g id="Group_9693_1_" transform="translate(37.375 233.786)">
	<path id="Path_6942_1_" class="st0" d="M2.6,2.2c-1.9,0-3.5-1.6-3.5-3.5c0-1.9,1.6-3.5,3.5-3.5c1.9,0,3.5,1.6,3.5,3.5
		C6.1,0.6,4.5,2.2,2.6,2.2z M2.6-2.2c-0.5,0-0.9,0.4-0.9,0.9c0,0.5,0.4,0.9,0.9,0.9s0.9-0.4,0.9-0.9l0,0C3.6-1.8,3.2-2.2,2.6-2.2z"
		/>
</g>
<g id="Group_9694_1_" transform="translate(104.878 170.018)">
	<path id="Path_6943_1_" class="st0" d="M1.1,3.6c-1.9,0-3.5-1.6-3.5-3.5s1.6-3.5,3.5-3.5c1.9,0,3.5,1.6,3.5,3.5l0,0
		C4.6,2,3.1,3.6,1.1,3.6C1.2,3.6,1.2,3.6,1.1,3.6z M1.1-0.7c-0.5,0-0.9,0.4-0.9,0.9c0,0.5,0.4,0.9,0.9,0.9s0.9-0.4,0.9-0.9l0,0
		C2.1-0.3,1.6-0.7,1.1-0.7z"/>
</g>
<g id="Group_9695_1_" transform="translate(6.968 40.571)">
	<path id="Path_6944_1_" class="st0" d="M5.4,10.6c-3,0-5.5-2.5-5.5-5.5s2.5-5.5,5.5-5.5s5.5,2.5,5.5,5.5
		C10.9,8.1,8.4,10.6,5.4,10.6C5.4,10.6,5.4,10.6,5.4,10.6z M5.4,2.2c-1.6,0-3,1.3-3,3s1.3,3,3,3s3-1.3,3-3l0,0
		C8.3,3.5,7,2.2,5.4,2.2L5.4,2.2z"/>
</g>
<g id="Group_9696_1_" transform="translate(214.69 53.082)">
	<path id="Path_6945_1_" class="st0" d="M-1.3,6.2c-1.9,0-3.5-1.6-3.5-3.5c0-1.9,1.6-3.5,3.5-3.5c1.9,0,3.5,1.6,3.5,3.5v0
		C2.2,4.7,0.6,6.2-1.3,6.2C-1.3,6.2-1.3,6.2-1.3,6.2z M-1.3,1.8c-0.5,0-0.9,0.4-0.9,0.9c0,0.5,0.4,0.9,0.9,0.9
		c0.5,0,0.9-0.4,0.9-0.9v0C-0.4,2.2-0.8,1.8-1.3,1.8z"/>
</g>
<g id="Group_9697_1_" transform="translate(79.162 1.824)">
	<path id="Path_6946_1_" class="st0" d="M1.7,7.4c-1.9,0-3.5-1.5-3.5-3.4c0,0,0-0.1,0-0.1c0-1.9,1.6-3.5,3.5-3.5
		c1.9,0,3.5,1.6,3.5,3.5C5.2,5.8,3.7,7.4,1.7,7.4C1.8,7.4,1.7,7.4,1.7,7.4z M1.7,3C1.2,3,0.8,3.4,0.8,3.9s0.4,0.9,0.9,0.9
		c0.5,0,0.9-0.4,0.9-0.9C2.6,3.4,2.2,3,1.7,3z"/>
</g>
<g id="Group_9698_1_" transform="translate(410.511 175.491)">
	<path id="Path_6947_1_" class="st0" d="M-5.7,3.5c-1.9,0-3.5-1.6-3.5-3.5s1.6-3.5,3.5-3.5c1.9,0,3.5,1.6,3.5,3.5
		C-2.2,1.9-3.8,3.5-5.7,3.5z M-5.7-0.9c-0.5,0-0.9,0.4-0.9,0.9C-6.7,0.5-6.2,1-5.7,1S-4.8,0.5-4.8,0v0C-4.8-0.5-5.2-0.9-5.7-0.9z"/>
</g>
<g id="Group_9699_1_" transform="translate(171.686 326.483)">
	<path id="Path_6948_1_" class="st0" d="M-0.4,0.1c-1.9,0-3.5-1.6-3.5-3.5c0-1.9,1.6-3.5,3.5-3.5c1.9,0,3.5,1.6,3.5,3.5
		C3.1-1.4,1.6,0.1-0.4,0.1z M-0.4-4.3c-0.5,0-0.9,0.4-0.9,0.9s0.4,0.9,0.9,0.9c0.5,0,0.9-0.4,0.9-0.9l0,0C0.6-3.9,0.1-4.3-0.4-4.3z"
		/>
</g>
<g id="Group_9700_1_" transform="translate(177.768 9.209)">
	<path id="Path_6949_1_" class="st0" d="M-0.5,7.2C-2.4,7.2-4,5.7-4,3.7c0-1.9,1.6-3.5,3.5-3.5C1.4,0.3,3,1.8,3,3.7c0,0,0,0,0,0
		C3,5.6,1.5,7.2-0.5,7.2C-0.5,7.2-0.5,7.2-0.5,7.2z M-0.5,2.8c-0.5,0-0.9,0.4-0.9,0.9S-1,4.7-0.5,4.7c0.5,0,0.9-0.4,0.9-0.9
		c0,0,0,0,0,0C0.4,3.2,0,2.8-0.5,2.8z"/>
</g>
<g id="Group_9701_1_" transform="translate(332.408 309.455)">
	<path id="Path_6950_1_" class="st0" d="M-4,0.5c-1.9,0-3.5-1.6-3.5-3.5S-5.9-6.5-4-6.5C-2-6.5-0.5-4.9-0.5-3C-0.5-1.1-2,0.5-4,0.5
		C-3.9,0.5-3.9,0.5-4,0.5z M-4-3.8c-0.5,0-0.9,0.4-0.9,0.9C-4.9-2.4-4.5-2-4-2C-3.5-2-3-2.4-3-2.9l0,0C-3-3.4-3.5-3.8-4-3.8z"/>
</g>
<g id="Group_9702_1_" transform="translate(393.917 263.411)">
	<path id="Path_6951_1_" class="st0" d="M-5.3,1.5C-7.3,1.5-8.8,0-8.8-2s1.6-3.5,3.5-3.5c1.9,0,3.5,1.6,3.5,3.5
		C-1.9,0-3.4,1.5-5.3,1.5z M-5.3-2.9c-0.5,0-0.9,0.4-0.9,0.9C-6.3-1.4-5.9-1-5.3-1C-4.8-1-4.4-1.4-4.4-2l0,0
		C-4.4-2.5-4.8-2.9-5.3-2.9L-5.3-2.9z"/>
</g>
<g id="Group_9705_1_" transform="translate(148.143 207.201)">
	<g id="Group_9703_1_" transform="translate(0 7.906)">
		<path id="Path_6952_1_" class="st0" d="M23.2-1.8H-2.1c-0.7,0-1.3-0.6-1.3-1.3c0-0.7,0.6-1.3,1.3-1.3h25.2c0.7,0,1.3,0.6,1.3,1.3
			C24.4-2.4,23.9-1.8,23.2-1.8L23.2-1.8L23.2-1.8z"/>
	</g>
	<g id="Group_9704_1_" transform="translate(8.775)">
		<path id="Path_6953_1_" class="st0" d="M13.4-1.6H-2.2c-0.7,0-1.3-0.6-1.3-1.3c0-0.7,0.6-1.3,1.3-1.3h15.5c0.7,0,1.3,0.6,1.3,1.3
			C14.6-2.2,14.1-1.7,13.4-1.6z"/>
	</g>
</g>
<g id="Group_9708_1_" transform="translate(59.528 220.928)">
	<g id="Group_9706_1_" transform="translate(0 5.908)">
		<path id="Path_6954_1_" class="st0" d="M14.5-2.1H-0.1c-0.7,0-1.3-0.6-1.3-1.3c0-0.7,0.6-1.3,1.3-1.3h14.5c0.7,0,1.3,0.6,1.3,1.3
			C15.7-2.6,15.2-2.1,14.5-2.1z"/>
	</g>
	<g id="Group_9707_1_" transform="translate(5.039)">
		<path id="Path_6955_1_" class="st0" d="M8.8-1.9h-9c-0.7,0-1.3-0.6-1.3-1.3c0-0.7,0.6-1.3,1.3-1.3h9c0.7,0,1.3,0.6,1.3,1.3
			C10.1-2.5,9.5-1.9,8.8-1.9L8.8-1.9z"/>
	</g>
</g>
<g id="Group_9711_1_" transform="translate(319.551 31.102)">
	<g id="Group_9709_1_" transform="translate(0 7.906)">
		<path id="Path_6956_1_" class="st0" d="M19.3,2.1H-5.9c-0.7,0-1.3-0.6-1.3-1.3c0-0.7,0.6-1.3,1.3-1.3l0,0h25.2
			c0.7,0,1.3,0.6,1.3,1.3C20.6,1.6,20,2.1,19.3,2.1L19.3,2.1z"/>
	</g>
	<g id="Group_9710_1_" transform="translate(1.043)">
		<path id="Path_6957_1_" class="st0" d="M9.6,2.3H-5.9c-0.7,0-1.3-0.6-1.3-1.3c0-0.7,0.6-1.3,1.3-1.3H9.6c0.7,0,1.3,0.6,1.3,1.3
			C10.9,1.7,10.3,2.3,9.6,2.3z"/>
	</g>
</g>
<g id="Group_9714_1_" transform="translate(54.576 313.452)">
	<g id="Group_9712_1_" transform="translate(0 7.906)">
		<path id="Path_6958_1_" class="st0" d="M25.3-4.2H0c-0.7,0-1.3-0.6-1.3-1.3c0-0.7,0.6-1.3,1.3-1.3l0,0h25.2c0.7,0,1.3,0.6,1.3,1.3
			C26.5-4.8,26-4.2,25.3-4.2L25.3-4.2L25.3-4.2z"/>
	</g>
	<g id="Group_9713_1_" transform="translate(1.043)">
		<path id="Path_6959_1_" class="st0" d="M15.6-4H0c-0.7,0-1.3-0.6-1.3-1.3C-1.3-6-0.7-6.6,0-6.6h15.5c0.7,0,1.3,0.6,1.3,1.3
			C16.8-4.6,16.3-4,15.6-4z"/>
	</g>
</g>
<g id="Group_9717_1_" transform="translate(27.992 148.473)">
	<g id="Group_9715_1_" transform="translate(0 7.906)">
		<path id="Path_6960_1_" class="st0" d="M25.9-0.5H0.6c-0.7,0-1.3-0.6-1.3-1.3C-0.6-2.5-0.1-3,0.6-3h25.2c0.7,0,1.3,0.6,1.3,1.3
			C27.1-1.1,26.6-0.5,25.9-0.5L25.9-0.5L25.9-0.5z"/>
	</g>
	<g id="Group_9716_1_" transform="translate(1.043)">
		<path id="Path_6961_1_" class="st0" d="M16.2-0.3H0.6c-0.7,0-1.3-0.6-1.3-1.3c0-0.7,0.6-1.3,1.3-1.3h15.5c0.7,0,1.3,0.6,1.3,1.3
			C17.4-0.9,16.9-0.3,16.2-0.3L16.2-0.3z"/>
	</g>
</g>
<g id="Group_9718_1_" transform="translate(332.408 293.731)">
	<path id="Path_6962_1_" class="st0" d="M1.5-3.6h-7.6c-0.7,0-1.3-0.6-1.3-1.3c0-0.7,0.6-1.3,1.3-1.3h7.6c0.7,0,1.3,0.6,1.3,1.3
		C2.7-4.2,2.2-3.6,1.5-3.6C1.5-3.6,1.5-3.6,1.5-3.6z"/>
</g>
<g id="Group_9719_1_" transform="translate(84.809 114.156)">
	<path id="Path_6963_1_" class="st0" d="M7,0.5h-7.6c-0.7,0-1.3-0.6-1.3-1.3c0-0.7,0.6-1.3,1.3-1.3H7c0.7,0,1.3,0.6,1.3,1.3
		C8.3-0.1,7.7,0.4,7,0.5C7,0.5,7,0.5,7,0.5z"/>
</g>
<g id="Group_9720_1_" transform="translate(66.826 75.67)">
	<path id="Path_6964_1_" class="st0" d="M7.4,1.3h-7.6c-0.7,0-1.3-0.6-1.3-1.3s0.6-1.3,1.3-1.3h7.6c0.7,0,1.3,0.6,1.3,1.3
		S8.1,1.3,7.4,1.3L7.4,1.3L7.4,1.3z"/>
</g>
<g id="Group_9721_1_" transform="translate(467.762 204.334)">
	<path id="Path_6965_1_" class="st0" d="M-1.6-1.6h-7.6c-0.7,0-1.3-0.6-1.3-1.3c0-0.7,0.6-1.3,1.3-1.3h7.6c0.7,0,1.3,0.6,1.3,1.3
		C-0.3-2.1-0.9-1.6-1.6-1.6L-1.6-1.6L-1.6-1.6z"/>
</g>
<g id="Group_9722_1_" transform="translate(408.86 38.226)">
	<path id="Path_6966_1_" class="st0" d="M-0.2,2.2h-7.6c-0.7,0-1.3-0.6-1.3-1.3c0-0.7,0.6-1.3,1.3-1.3l0,0h7.6C0.5-0.4,1,0.2,1,0.9
		C1,1.6,0.5,2.2-0.2,2.2L-0.2,2.2z"/>
</g>
<g id="Group_9723_1_" transform="translate(43.369 250.205)">
	<path id="Path_6967_1_" class="st0" d="M7.9-2.6H0.3C-0.4-2.6-1-3.2-1-3.9c0-0.7,0.6-1.3,1.3-1.3h7.6c0.7,0,1.3,0.6,1.3,1.3
		C9.2-3.2,8.6-2.6,7.9-2.6L7.9-2.6z"/>
</g>
<g id="Group_9724_1_" transform="translate(49.45 257.155)">
	<path id="Path_6968_1_" class="st0" d="M7.8-2.7H0.2c-0.7,0-1.3-0.6-1.3-1.3c0-0.7,0.6-1.3,1.3-1.3h7.6c0.7,0,1.3,0.6,1.3,1.3
		C9.1-3.3,8.5-2.7,7.8-2.7L7.8-2.7z"/>
</g>
<g id="Group_9725_1_" transform="translate(153.008 316.84)">
	<path id="Path_6969_1_" class="st0" d="M5.5-4.1h-7.6c-0.7,0-1.3-0.6-1.3-1.3c0-0.7,0.6-1.3,1.3-1.3h7.6c0.7,0,1.3,0.6,1.3,1.3
		C6.8-4.7,6.2-4.1,5.5-4.1C5.5-4.1,5.5-4.1,5.5-4.1z"/>
</g>
<g id="Group_9726_1_" transform="translate(145.884 9.556)">
	<path id="Path_6970_1_" class="st0" d="M5.6,2.8H-2c-0.7,0-1.3-0.6-1.3-1.3c0-0.7,0.6-1.3,1.3-1.3l0,0h7.6c0.7,0,1.3,0.6,1.3,1.3
		C6.9,2.2,6.4,2.8,5.6,2.8C5.7,2.8,5.7,2.8,5.6,2.8z"/>
</g>
<g id="Group_9727_1_" transform="translate(144.32 280.873)">
	<path id="Path_6971_1_" class="st0" d="M5.7-3.3H-2c-0.7,0-1.3-0.6-1.3-1.3c0-0.7,0.6-1.3,1.3-1.3h7.6C6.4-5.8,7-5.3,7-4.6
		C7-3.9,6.4-3.3,5.7-3.3L5.7-3.3L5.7-3.3z"/>
</g>
<g id="Group_9728_1_" transform="translate(113.913 253.941)">
	<path id="Path_6972_1_" class="st0" d="M6.4-2.7h-7.6C-2-2.7-2.6-3.2-2.6-4c0-0.7,0.6-1.3,1.3-1.3h7.6c0.7,0,1.3,0.6,1.3,1.3
		C7.6-3.2,7.1-2.7,6.4-2.7L6.4-2.7z"/>
</g>
<g id="Group_9729_1_" transform="translate(310.95 144.911)">
	<path id="Path_6973_1_" class="st0" d="M1.9-0.2h-7.6C-6.4-0.2-7-0.8-7-1.5c0-0.7,0.6-1.3,1.3-1.3h7.6c0.7,0,1.3,0.6,1.3,1.3
		C3.2-0.8,2.6-0.2,1.9-0.2L1.9-0.2L1.9-0.2z"/>
</g>
<g id="Group_9730_1_" transform="translate(372.632 114.504)">
	<path id="Path_6974_1_" class="st0" d="M0.6,0.4h-7.6c-0.7,0-1.3-0.6-1.3-1.3c0-0.7,0.6-1.3,1.3-1.3h7.6c0.7,0,1.3,0.6,1.3,1.3
		C1.8-0.1,1.3,0.4,0.6,0.4L0.6,0.4L0.6,0.4z"/>
</g>
<g id="Group_9731_1_" transform="translate(171.165 35.098)">
	<path id="Path_6975_1_" class="st0" d="M5.1,2.2h-7.6c-0.7,0-1.3-0.6-1.3-1.3c0-0.7,0.6-1.3,1.3-1.3l0,0h7.6c0.7,0,1.3,0.6,1.3,1.3
		C6.4,1.6,5.8,2.2,5.1,2.2C5.1,2.2,5.1,2.2,5.1,2.2z"/>
</g>
<g id="Group_9732_1_" transform="translate(322.765 161.504)">
	<path id="Path_6976_1_" class="st0" d="M1.7-0.6H-6c-0.7,0-1.3-0.6-1.3-1.3c0-0.7,0.6-1.3,1.3-1.3h7.6c0.7,0,1.3,0.6,1.3,1.3
		C3-1.2,2.4-0.6,1.7-0.6C1.7-0.6,1.7-0.6,1.7-0.6z"/>
</g>
<g id="Group_9733_1_" transform="translate(352.303 131.966)">
	<path id="Path_6977_1_" class="st0" d="M1,0.1h-7.6c-0.7,0-1.3-0.6-1.3-1.3c0-0.7,0.6-1.3,1.3-1.3H1c0.7,0,1.3,0.6,1.3,1.3
		C2.3-0.5,1.8,0,1,0.1C1,0.1,1,0.1,1,0.1z"/>
</g>
<g id="Group_9734_1_" transform="translate(324.589 278.527)">
	<path id="Path_6978_1_" class="st0" d="M1.6-3.2H-6c-0.7,0-1.3-0.6-1.3-1.3c0-0.7,0.6-1.3,1.3-1.3h7.6c0.7,0,1.3,0.6,1.3,1.3
		C2.9-3.8,2.4-3.2,1.6-3.2C1.7-3.2,1.7-3.2,1.6-3.2z"/>
</g>
<g id="Group_9735_1_" transform="translate(301.22 117.805)">
	<path id="Path_6979_1_" class="st0" d="M2.2,0.4h-7.6c-0.7,0-1.3-0.6-1.3-1.3c0-0.7,0.6-1.3,1.3-1.3h7.6c0.7,0,1.3,0.6,1.3,1.3
		C3.4-0.2,2.9,0.4,2.2,0.4C2.2,0.4,2.2,0.4,2.2,0.4z"/>
</g>
<g id="Group_9736_1_" transform="translate(227.374 144.737)">
	<path id="Path_6980_1_" class="st0" d="M3.8-0.2h-7.6c-0.7,0-1.3-0.6-1.3-1.3c0-0.7,0.6-1.3,1.3-1.3h7.6c0.7,0,1.3,0.6,1.3,1.3
		C5.1-0.8,4.6-0.2,3.8-0.2C3.8-0.2,3.8-0.2,3.8-0.2z"/>
</g>
<g id="Group_9737_1_" transform="translate(210.781 15.117)">
	<path id="Path_6981_1_" class="st0" d="M4.2,2.7h-7.6c-0.7,0-1.3-0.6-1.3-1.3c0-0.7,0.6-1.3,1.3-1.3l0,0h7.6c0.7,0,1.3,0.6,1.3,1.3
		C5.5,2.1,4.9,2.7,4.2,2.7C4.2,2.7,4.2,2.7,4.2,2.7z"/>
</g>
<g id="Group_9738_1_" transform="translate(401.823 156.9)">
	<path id="Path_6982_1_" class="st0" d="M-0.1-0.5h-7.6C-8.4-0.5-9-1.1-9-1.8C-9-2.5-8.4-3-7.7-3h7.6c0.7,0,1.3,0.6,1.3,1.3
		C1.2-1.1,0.6-0.5-0.1-0.5L-0.1-0.5L-0.1-0.5z"/>
</g>
<g id="Group_9739_1_" transform="translate(231.023 251.248)">
	<path id="Path_6983_1_" class="st0" d="M3.7-2.6h-7.6c-0.7,0-1.3-0.6-1.3-1.3c0-0.7,0.6-1.3,1.3-1.3h7.6C4.4-5.1,5-4.6,5-3.9
		C5-3.2,4.5-2.6,3.7-2.6C3.8-2.6,3.8-2.6,3.7-2.6z"/>
</g>
<g id="Group_9740_1_" transform="translate(251.178 68.111)">
	<path id="Path_6984_1_" class="st0" d="M3.3,1.5h-7.6c-0.7,0-1.3-0.6-1.3-1.3s0.6-1.3,1.3-1.3h7.6C4-1,4.5-0.5,4.6,0.2
		C4.6,0.9,4,1.5,3.3,1.5C3.3,1.5,3.3,1.5,3.3,1.5z"/>
</g>
<g id="Group_9741_1_" transform="translate(168.559 117.718)">
	<path id="Path_6985_1_" class="st0" d="M5.1,0.4h-7.6c-0.7,0-1.3-0.6-1.3-1.3c0-0.7,0.6-1.3,1.3-1.3h7.6c0.7,0,1.3,0.6,1.3,1.3
		C6.4-0.2,5.8,0.4,5.1,0.4L5.1,0.4L5.1,0.4z"/>
</g>
<g id="Group_9742_1_" transform="translate(194.882 149.776)">
	<path id="Path_6986_1_" class="st0" d="M4.5-0.3h-7.6c-0.7,0-1.3-0.6-1.3-1.3c0-0.7,0.6-1.3,1.3-1.3h7.6c0.7,0,1.3,0.6,1.3,1.3
		C5.8-0.9,5.3-0.4,4.5-0.3C4.6-0.3,4.6-0.3,4.5-0.3z"/>
</g>
<g id="Group_9745_1_" transform="translate(200.964 312.844)">
	<g id="Group_9743_1_" transform="translate(0 7.906)">
		<path id="Path_6987_1_" class="st0" d="M22-4.2H-3.2c-0.7,0-1.3-0.6-1.3-1.3c0-0.7,0.6-1.3,1.3-1.3l0,0H22c0.7,0,1.3,0.6,1.3,1.3
			C23.3-4.8,22.7-4.2,22-4.2C22-4.2,22-4.2,22-4.2z"/>
	</g>
	<g id="Group_9744_1_" transform="translate(8.948)">
		<path id="Path_6988_1_" class="st0" d="M12.1-4H-3.4c-0.7,0-1.3-0.6-1.3-1.3c0-0.7,0.6-1.3,1.3-1.3h15.5c0.7,0,1.3,0.6,1.3,1.3
			C13.4-4.6,12.8-4,12.1-4z"/>
	</g>
</g>
<g id="Group_9748_1_" transform="translate(192.015 88.528)">
	<g id="Group_9746_1_" transform="translate(0 7.906)">
		<path id="Path_6989_1_" class="st0" d="M22.2,0.9H-3c-0.7,0-1.3-0.6-1.3-1.3S-3.7-1.7-3-1.7h25.2c0.7,0,1.3,0.6,1.3,1.3
			S22.9,0.9,22.2,0.9L22.2,0.9L22.2,0.9z"/>
	</g>
	<g id="Group_9747_1_" transform="translate(8.861)">
		<path id="Path_6990_1_" class="st0" d="M12.3,1H-3.2c-0.7,0-1.3-0.6-1.3-1.3s0.6-1.3,1.3-1.3h15.5c0.7,0,1.3,0.6,1.3,1.3
			S13,1,12.3,1L12.3,1z"/>
	</g>
</g>
<g id="Group_9751_1_" transform="translate(255.435 154.554)">
	<g id="Group_9749_1_" transform="translate(0 7.906)">
		<path id="Path_6991_1_" class="st0" d="M20.8-0.6H-4.5c-0.7,0-1.3-0.6-1.3-1.3c0-0.7,0.6-1.3,1.3-1.3h25.2c0.7,0,1.3,0.6,1.3,1.3
			C22-1.2,21.5-0.6,20.8-0.6L20.8-0.6z"/>
	</g>
	<g id="Group_9750_1_" transform="translate(8.861)">
		<path id="Path_6992_1_" class="st0" d="M10.9-0.4H-4.7c-0.7,0-1.3-0.6-1.3-1.3C-5.9-2.4-5.4-3-4.7-3h15.5c0.7,0,1.3,0.6,1.3,1.3
			C12.2-1,11.6-0.4,10.9-0.4L10.9-0.4z"/>
	</g>
</g>
<g id="Group_9754_1_" transform="translate(262.386 203.205)">
	<g id="Group_9752_1_" transform="translate(0 7.906)">
		<path id="Path_6993_1_" class="st0" d="M20.6-1.7H-4.6c-0.7,0-1.3-0.6-1.3-1.3c0-0.7,0.6-1.3,1.3-1.3h25.2c0.7,0,1.3,0.6,1.3,1.3
			C21.9-2.3,21.3-1.7,20.6-1.7L20.6-1.7L20.6-1.7z"/>
	</g>
	<g id="Group_9753_1_" transform="translate(8.861)">
		<path id="Path_6994_1_" class="st0" d="M10.7-1.5H-4.8c-0.7,0-1.3-0.6-1.3-1.3c0-0.7,0.6-1.3,1.3-1.3h15.5c0.7,0,1.3,0.6,1.3,1.3
			C12-2.1,11.4-1.5,10.7-1.5L10.7-1.5z"/>
	</g>
</g>
<g id="Group_9757_1_" transform="translate(14.787 2.519)">
	<g id="Group_9755_1_" transform="translate(0 7.906)">
		<path id="Path_6995_1_" class="st0" d="M26.2,2.8H0.9c-0.7,0-1.3-0.6-1.3-1.3c0-0.7,0.6-1.3,1.3-1.3l0,0h25.2
			c0.7,0,1.3,0.6,1.3,1.3C27.4,2.2,26.9,2.8,26.2,2.8L26.2,2.8z"/>
	</g>
	<g id="Group_9756_1_" transform="translate(8.775)">
		<path id="Path_6996_1_" class="st0" d="M16.4,3H0.7C0,2.9-0.5,2.4-0.5,1.7C-0.5,1,0,0.4,0.7,0.4h15.5c0.7,0,1.3,0.6,1.3,1.3
			C17.6,2.4,17,2.9,16.4,3z"/>
	</g>
</g>
<g id="Group_9763_1_" transform="translate(333.885 239.259)">
	<g id="Group_9758_1_">
		<path id="Path_6997_1_" class="st0" d="M38.3,40.9c-0.3,0-0.5-0.1-0.8-0.3L22.8,29.8h-19c-6.3,0-11.3-5.1-11.3-11.4V6.5
			c0-6.3,5-11.3,11.3-11.4h33.7c6.3,0,11.3,5.1,11.3,11.4v11.9c0,5.7-4.2,10.6-9.9,11.3l0.7,9.9c0,0.5-0.3,0.9-0.7,1.2
			C38.7,40.8,38.5,40.9,38.3,40.9z M3.8-2.3c-4.9,0-8.8,4-8.7,8.8v11.9c0,4.8,3.8,8.8,8.7,8.8c0,0,0,0,0.1,0h19.4
			c0.3,0,0.5,0.1,0.8,0.3l12.8,9.4l-0.6-8.3c0-0.3,0.1-0.7,0.3-0.9c0.2-0.3,0.6-0.4,0.9-0.4c4.9,0,8.8-4,8.7-8.8V6.5
			c0-4.8-3.8-8.8-8.7-8.8c0,0,0,0-0.1,0L3.8-2.3z"/>
	</g>
	<g id="Group_9759_1_" transform="translate(11.033 8.948)">
		<path id="Path_6998_1_" class="st0" d="M20.5-2.5H-6.5c-0.7,0-1.3-0.6-1.3-1.3c0-0.7,0.6-1.3,1.3-1.3h26.9c0.7,0,1.3,0.6,1.3,1.3
			C21.7-3.1,21.2-2.6,20.5-2.5C20.5-2.5,20.5-2.5,20.5-2.5z"/>
	</g>
	<g id="Group_9760_1_" transform="translate(25.889 23.283)">
		<path id="Path_6999_1_" class="st0" d="M12.4-2.9H-6.8c-0.7,0-1.3-0.6-1.3-1.3c0-0.7,0.6-1.3,1.3-1.3h19.2c0.7,0,1.3,0.6,1.3,1.3
			C13.7-3.4,13.1-2.9,12.4-2.9L12.4-2.9L12.4-2.9z"/>
	</g>
	<g id="Group_9761_1_" transform="translate(31.71 16.159)">
		<path id="Path_7000_1_" class="st0" d="M6.6-2.7H-6.9c-0.7,0-1.3-0.6-1.3-1.3c0-0.7,0.6-1.3,1.3-1.3H6.6c0.7,0,1.3,0.6,1.3,1.3
			C7.9-3.3,7.3-2.7,6.6-2.7L6.6-2.7z"/>
	</g>
	<g id="Group_9762_1_" transform="translate(11.902 16.159)">
		<path id="Path_7001_1_" class="st0" d="M2.1-2.7h-8.6c-0.7,0-1.3-0.6-1.3-1.3c0-0.7,0.6-1.3,1.3-1.3h8.6c0.7,0,1.3,0.6,1.3,1.3
			C3.4-3.3,2.8-2.7,2.1-2.7C2.1-2.7,2.1-2.7,2.1-2.7z"/>
	</g>
</g>
<g id="Group_9769_1_" transform="translate(70.648 176.186)">
	<g id="Group_9767_1_" transform="translate(6.081 6.776)">
		<g id="Group_9764_1_" transform="translate(0 17.202)">
			<path id="Path_7002_1_" class="st0" d="M13.9-1.5H-0.5c-0.7,0-1.3-0.6-1.3-1.3C-1.7-3.4-1.2-4-0.5-4h14.4c0.7,0,1.3,0.6,1.3,1.3
				C15.2-2,14.6-1.5,13.9-1.5L13.9-1.5L13.9-1.5z"/>
		</g>
		<g id="Group_9765_1_" transform="translate(0 21.545)">
			<path id="Path_7003_1_" class="st0" d="M8.4-1.6h-8.8c-0.7,0-1.3-0.6-1.3-1.3c0-0.7,0.6-1.3,1.3-1.3h8.8c0.7,0,1.3,0.6,1.3,1.3
				C9.7-2.1,9.1-1.6,8.4-1.6L8.4-1.6L8.4-1.6z"/>
		</g>
		<g id="Group_9766_1_">
			<path id="Path_7004_1_" class="st0" d="M17.2,10.7H-0.5c-0.7,0-1.3-0.6-1.3-1.3V-2.4c0-0.7,0.6-1.3,1.3-1.3h17.8
				c0.7,0,1.3,0.6,1.3,1.3V9.4C18.5,10.2,17.9,10.7,17.2,10.7z M0.8,8.2h15.1v-9.3H0.8L0.8,8.2z"/>
		</g>
	</g>
	<g id="Group_9768_1_">
		<path id="Path_7005_1_" class="st0" d="M24.1,36H4.8c-3.5,0-6.3-2.9-6.4-6.4V2.9c0-3.5,2.9-6.3,6.4-6.4h19.4
			c3.5,0,6.3,2.9,6.4,6.4v26.8C30.5,33.1,27.7,36,24.1,36z M4.8-0.9C2.7-0.9,1,0.8,1,2.9c0,0,0,0,0,0v26.8c0,2.1,1.7,3.8,3.8,3.8
			c0,0,0,0,0,0h19.4c2.1,0,3.8-1.7,3.8-3.8c0,0,0,0,0,0V2.9c0-2.1-1.7-3.8-3.8-3.8c0,0,0,0,0,0L4.8-0.9z"/>
	</g>
</g>
<g id="Group_9775_1_" transform="translate(290.447 220.493)">
	<g id="Group_9773_1_" transform="translate(5.994 6.776)">
		<g id="Group_9770_1_" transform="translate(0.087 17.202)">
			<path id="Path_7006_1_" class="st0" d="M9-2.5H-5.4c-0.7,0-1.3-0.6-1.3-1.3C-6.7-4.4-6.1-5-5.4-5H9c0.7,0,1.3,0.6,1.3,1.3
				C10.2-3,9.7-2.5,9-2.5L9-2.5z"/>
		</g>
		<g id="Group_9771_1_" transform="translate(0.087 21.545)">
			<path id="Path_7007_1_" class="st0" d="M3.5-2.6h-8.8c-0.7,0-1.3-0.6-1.3-1.3c0-0.7,0.6-1.3,1.3-1.3h8.8c0.7,0,1.3,0.6,1.3,1.3
				C4.7-3.1,4.2-2.6,3.5-2.6L3.5-2.6z"/>
		</g>
		<g id="Group_9772_1_">
			<path id="Path_7008_1_" class="st0" d="M12.4,9.7H-5.4c-0.7,0-1.3-0.6-1.3-1.3V-3.4c0-0.7,0.6-1.3,1.3-1.3h17.8
				c0.7,0,1.3,0.6,1.3,1.3V8.4c0,0.7-0.5,1.2-1.1,1.3C12.5,9.7,12.4,9.7,12.4,9.7z M-4,7.2h15.1v-9.3H-4.1L-4,7.2L-4,7.2z"/>
		</g>
	</g>
	<g id="Group_9774_1_">
		<path id="Path_7009_1_" class="st0" d="M19.2,35H-0.1c-3.5,0-6.3-2.9-6.4-6.4V1.9c0-3.5,2.9-6.3,6.4-6.4h19.4
			c3.5,0,6.3,2.9,6.4,6.4v26.8C25.6,32.2,22.7,35,19.2,35z M-0.1-1.9C-2.2-1.9-4-0.2-4,1.9c0,0,0,0,0,0v26.8c0,2.1,1.7,3.8,3.8,3.8
			c0,0,0,0,0,0h19.4c2.1,0,3.8-1.7,3.8-3.8c0,0,0,0,0,0V1.9c0-2.1-1.7-3.8-3.8-3.8c0,0,0,0,0,0L-0.1-1.9z"/>
	</g>
</g>
<g id="Group_9781_1_" transform="translate(471.151 282.176)">
	<g id="Group_9779_1_" transform="translate(5.994 6.776)">
		<g id="Group_9776_1_" transform="translate(0.087 17.202)">
			<path id="Path_7010_1_" class="st0" d="M4.9-3.8H-9.4c-0.7,0-1.3-0.6-1.3-1.3c0-0.7,0.6-1.3,1.3-1.3H4.9c0.7,0,1.3,0.6,1.3,1.3
				C6.2-4.4,5.6-3.8,4.9-3.8L4.9-3.8z"/>
		</g>
		<g id="Group_9777_1_" transform="translate(0.087 21.545)">
			<path id="Path_7011_1_" class="st0" d="M-0.6-3.9h-8.8c-0.7,0-1.3-0.6-1.3-1.3c0-0.7,0.6-1.3,1.3-1.3h8.8c0.7,0,1.3,0.6,1.3,1.3
				C0.7-4.5,0.1-3.9-0.6-3.9L-0.6-3.9z"/>
		</g>
		<g id="Group_9778_1_">
			<path id="Path_7012_1_" class="st0" d="M8.3,8.3H-9.4c-0.7,0-1.3-0.6-1.3-1.3V-4.7c0-0.7,0.6-1.3,1.3-1.3H8.3
				C9-6,9.6-5.4,9.6-4.7V7.1c0,0.7-0.5,1.2-1.1,1.3C8.4,8.3,8.4,8.3,8.3,8.3z M-8.1,5.8H7.1v-9.3H-8.1L-8.1,5.8L-8.1,5.8z"/>
		</g>
	</g>
	<g id="Group_9780_1_">
		<path id="Path_7013_1_" class="st0" d="M15.2,33.6H-4.2c-3.5,0-6.3-2.9-6.4-6.4V0.5c0-3.5,2.9-6.3,6.4-6.4h19.4
			c3.5,0,6.3,2.9,6.4,6.4v26.8C21.5,30.8,18.7,33.6,15.2,33.6z M-4.2-3.3C-6.3-3.3-8-1.6-8,0.5c0,0,0,0,0,0v26.8
			c0,2.1,1.7,3.8,3.8,3.8c0,0,0,0,0,0h19.4c2.1,0,3.8-1.7,3.8-3.8c0,0,0,0,0,0V0.5c0-2.1-1.7-3.8-3.8-3.8c0,0,0,0,0,0L-4.2-3.3z"/>
	</g>
</g>
<g id="Group_9787_1_" transform="translate(424.237 0.695)">
	<g id="Group_9785_1_" transform="translate(5.994 6.776)">
		<g id="Group_9782_1_" transform="translate(0.087 17.202)">
			<path id="Path_7014_1_" class="st0" d="M6,2.5H-8.4c-0.7,0-1.3-0.6-1.3-1.3c0-0.7,0.6-1.3,1.3-1.3H6c0.7,0,1.3,0.6,1.3,1.3
				S6.7,2.5,6,2.5L6,2.5z"/>
		</g>
		<g id="Group_9783_1_" transform="translate(0.087 21.545)">
			<path id="Path_7015_1_" class="st0" d="M0.5,2.4h-8.8c-0.7,0-1.3-0.6-1.3-1.3c0-0.7,0.6-1.3,1.3-1.3h8.8c0.7,0,1.3,0.6,1.3,1.3
				C1.7,1.8,1.2,2.4,0.5,2.4L0.5,2.4z"/>
		</g>
		<g id="Group_9784_1_">
			<path id="Path_7016_1_" class="st0" d="M9.4,14.7H-8.4c-0.7,0-1.3-0.6-1.3-1.3V1.6c0-0.7,0.6-1.3,1.3-1.3H9.4
				c0.7,0,1.3,0.6,1.3,1.3v11.8c0,0.7-0.5,1.2-1.1,1.3C9.5,14.7,9.4,14.7,9.4,14.7z M-7,12.1H8.1V2.8H-7.1L-7,12.1L-7,12.1z"/>
		</g>
	</g>
	<g id="Group_9786_1_">
		<path id="Path_7017_1_" class="st0" d="M16.2,39.9H-3.1c-3.5,0-6.3-2.9-6.4-6.4V6.8c0-3.5,2.9-6.3,6.4-6.4h19.4
			c3.5,0,6.3,2.9,6.4,6.4v26.8C22.6,37.1,19.7,39.9,16.2,39.9z M-3.1,3C-5.2,3-7,4.7-7,6.8c0,0,0,0,0,0v26.8c0,2.1,1.7,3.8,3.8,3.8
			c0,0,0,0,0,0h19.4c2.1,0,3.8-1.7,3.8-3.8c0,0,0,0,0,0V6.8c0-2.1-1.7-3.8-3.8-3.8c0,0,0,0,0,0L-3.1,3z"/>
	</g>
</g>
<g id="Group_9793_1_" transform="translate(2.884 254.375)">
	<g id="Group_9791_1_" transform="translate(6.081 6.776)">
		<g id="Group_9788_1_" transform="translate(0 17.202)">
			<path id="Path_7018_1_" class="st0" d="M15.4-3.2H1.1c-0.7,0-1.3-0.6-1.3-1.3c0-0.7,0.6-1.3,1.3-1.3h14.4c0.7,0,1.3,0.6,1.3,1.3
				C16.7-3.8,16.1-3.2,15.4-3.2z"/>
		</g>
		<g id="Group_9789_1_" transform="translate(0 21.545)">
			<path id="Path_7019_1_" class="st0" d="M9.9-3.3H1.1c-0.7,0-1.3-0.6-1.3-1.3c0-0.7,0.6-1.3,1.3-1.3h8.8c0.7,0,1.3,0.6,1.3,1.3
				C11.2-3.9,10.6-3.3,9.9-3.3L9.9-3.3z"/>
		</g>
		<g id="Group_9790_1_">
			<path id="Path_7020_1_" class="st0" d="M18.7,9H1.1c-0.7,0-1.3-0.6-1.3-1.3V-4.1c0-0.7,0.6-1.3,1.3-1.3h17.8
				c0.7,0,1.3,0.6,1.3,1.3V7.7C20.1,8.4,19.5,9,18.7,9z M2.3,6.4h15.1v-9.3H2.3L2.3,6.4z"/>
		</g>
	</g>
	<g id="Group_9792_1_">
		<path id="Path_7021_1_" class="st0" d="M25.7,34.3H6.3c-3.5,0-6.3-2.9-6.4-6.4V1.1c0-3.5,2.9-6.3,6.4-6.4h19.4
			c3.5,0,6.3,2.9,6.4,6.4v26.8C32,31.4,29.2,34.2,25.7,34.3z M6.3-2.7C4.2-2.7,2.5-1,2.5,1.1c0,0,0,0,0,0v26.8
			c0,2.1,1.7,3.8,3.8,3.8c0,0,0,0,0,0h19.4c2.1,0,3.8-1.7,3.8-3.8c0,0,0,0,0,0V1.1c0-2.1-1.7-3.8-3.8-3.8c0,0,0,0,0,0L6.3-2.7z"/>
	</g>
</g>
<g id="Group_9814_1_" transform="translate(371.85 2.867)">
	<path id="Path_7036_1_" class="st0" d="M10.4,32.8c-2.2,0-4.5-0.5-6.5-1.4c-3.5,2.2-8,1.7-11-1.2l-0.5-0.5l-0.8-0.9l4.5-4.5
		c-4.3-7.9-1.3-17.7,6.5-22s17.7-1.3,22,6.5c4.3,7.9,1.3,17.7-6.5,22C15.8,32.2,13.1,32.8,10.4,32.8L10.4,32.8z M3.6,28.5l0.7,0.3
		c1.9,0.9,4,1.4,6.1,1.4c7.6,0,13.7-6,13.8-13.6c0-7.6-6-13.7-13.6-13.8C3,2.9-3.2,9-3.2,16.5c0,0,0,0.1,0,0.1
		c0,2.6,0.8,5.1,2.1,7.3l0.5,0.8l-4.2,4.2c2.2,1.8,5.4,1.8,7.7,0.1L3.6,28.5z"/>
</g>
<g id="Group_9996_1_" transform="translate(526.491 239.867)">
	<path id="Path_7177_1_" class="st0" d="M-27-22.5c-1.9,0-3.5-1.6-3.5-3.5s1.6-3.5,3.5-3.5s3.5,1.6,3.5,3.5
		C-23.6-24.1-25.1-22.6-27-22.5z M-27-26.9c-0.5,0-0.9,0.4-0.9,0.9c0,0.5,0.4,0.9,0.9,0.9c0.5,0,0.9-0.4,0.9-0.9l0,0
		C-26.1-26.5-26.5-26.9-27-26.9z"/>
</g>
<g id="Group_9997_1_" transform="translate(504.772 278.093)">
	<path id="Path_7178_1_" class="st0" d="M-7.8,1.2c-1.9,0-3.5-1.6-3.5-3.5s1.6-3.5,3.5-3.5s3.5,1.6,3.5,3.5
		C-4.4-0.4-5.9,1.2-7.8,1.2z M-7.8-3.2c-0.5,0-0.9,0.4-0.9,0.9s0.4,0.9,0.9,0.9c0.5,0,0.9-0.4,0.9-0.9l0,0C-6.9-2.8-7.3-3.2-7.8-3.2
		z"/>
</g>
<g id="Group_9998_1_" transform="translate(507.378 269.405)">
	<path id="Path_7179_1_" class="st0" d="M-7.9,1.4c-1.9,0-3.5-1.6-3.5-3.5s1.6-3.5,3.5-3.5S-4.4-4-4.4-2.1C-4.4-0.2-6,1.4-7.9,1.4z
		 M-7.9-3c-0.5,0-0.9,0.4-0.9,0.9s0.4,0.9,0.9,0.9C-7.4-1.2-7-1.6-7-2.1l0,0C-7-2.6-7.4-3-7.9-3z"/>
</g>
<g id="Group_9999_1_" transform="translate(481.837 253.246)">
	<path id="Path_7180_1_" class="st0" d="M-6.1,4.1c-2.6,0-4.7-2.1-4.7-4.6c0,0,0,0,0,0c0-2.5,2-4.6,4.5-4.7c0,0,0.1,0,0.1,0
		c2.6,0,4.7,2.1,4.7,4.7C-1.5,2-3.6,4.1-6.1,4.1L-6.1,4.1z M-6.1-2.6c-1.2,0-2.1,1-2.1,2.1s1,2.1,2.1,2.1S-4,0.7-4-0.5l0,0
		C-4-1.6-5-2.6-6.1-2.6z"/>
</g>
<g id="Group_10008_1_" transform="translate(518.585 174.796)">
	<path id="Path_7189_1_" class="st0" d="M-4.2,11.3c-4.1,0-7.4-3.3-7.4-7.4c0-4.1,3.3-7.4,7.4-7.4c4.1,0,7.4,3.3,7.4,7.4v0
		C3.1,8-0.2,11.3-4.2,11.3z M-4.2-0.8c-2.7-0.1-4.9,2-5,4.7c-0.1,2.7,2,4.9,4.7,5c0.1,0,0.2,0,0.3,0c2.6,0,4.8-2.1,4.8-4.7
		c0,0,0-0.1,0-0.1C0.6,1.4-1.6-0.8-4.2-0.8L-4.2-0.8z"/>
</g>
<g id="Group_10024_1_" transform="translate(532.486 256.287)">
	<path id="Path_7202_1_" class="st0" d="M-21.7-27.3h-7.6c-0.7,0-1.3-0.6-1.3-1.3c0-0.7,0.6-1.3,1.3-1.3h7.6c0.7,0,1.3,0.6,1.3,1.3
		C-20.5-27.9-21-27.3-21.7-27.3L-21.7-27.3z"/>
</g>
<g id="Group_10025_1_" transform="translate(442.134 309.282)">
	<path id="Path_7203_1_" class="st0" d="M-1-3.9h-7.6c-0.7,0-1.3-0.6-1.3-1.3c0-0.7,0.6-1.3,1.3-1.3H-1c0.7,0,1.3,0.6,1.3,1.3
		C0.3-4.5-0.3-3.9-1-3.9L-1-3.9z"/>
</g>
<g id="Group_10026_1_" transform="translate(538.567 263.237)">
	<path id="Path_7204_1_" class="st0" d="M-21.9-27.5h-7.6c-0.7,0-1.3-0.6-1.3-1.3c0-0.7,0.6-1.3,1.3-1.3h7.6c0.7,0,1.3,0.6,1.3,1.3
		C-20.6-28-21.2-27.5-21.9-27.5L-21.9-27.5z"/>
</g>
<g id="Group_9996_2_" transform="translate(526.491 239.867)">
	<path id="Path_7177_2_" class="st0" d="M-21.6-181.3c-1.9,0-3.5-1.6-3.5-3.5c0-1.9,1.6-3.5,3.5-3.5s3.5,1.6,3.5,3.5
		C-18.2-182.9-19.7-181.3-21.6-181.3z M-21.6-185.7c-0.5,0-0.9,0.4-0.9,0.9c0,0.5,0.4,0.9,0.9,0.9c0.5,0,0.9-0.4,0.9-0.9l0,0
		C-20.7-185.3-21.1-185.7-21.6-185.7z"/>
</g>
<g id="Group_10024_2_" transform="translate(532.486 256.287)">
	<path id="Path_7202_2_" class="st0" d="M-16.3-186.1H-24c-0.7,0-1.3-0.6-1.3-1.3c0-0.7,0.6-1.3,1.3-1.3h7.6c0.7,0,1.3,0.6,1.3,1.3
		C-15-186.7-15.6-186.1-16.3-186.1L-16.3-186.1z"/>
</g>
<g id="Group_10026_2_" transform="translate(538.567 263.237)">
	<path id="Path_7204_2_" class="st0" d="M-16.5-186.3h-7.6c-0.7,0-1.3-0.6-1.3-1.3c0-0.7,0.6-1.3,1.3-1.3h7.6c0.7,0,1.3,0.6,1.3,1.3
		C-15.2-186.8-15.8-186.3-16.5-186.3L-16.5-186.3z"/>
</g>
<g id="Group_10030_1_" transform="translate(447.52 318.23)">
	<path id="Path_7208_1_" class="st0" d="M-1.1-4.1h-7.6c-0.7,0-1.3-0.6-1.3-1.3c0-0.7,0.6-1.3,1.3-1.3h7.6c0.7,0,1.3,0.6,1.3,1.3
		C0.2-4.7-0.4-4.1-1.1-4.1L-1.1-4.1z"/>
</g>
<g id="Group_10089_1_" transform="translate(320.246 8.514)">
	<g id="Group_10087_1_" transform="translate(5.213)">
		<path id="Path_7253_1_" class="st0" d="M-6,13c-0.7,0-1.3-0.6-1.3-1.3V1.5c0-0.7,0.6-1.3,1.3-1.3c0.7,0,1.3,0.6,1.3,1.3v10.2
			C-4.8,12.4-5.3,13-6,13z"/>
	</g>
	<g id="Group_10088_1_" transform="translate(0 5.213)">
		<path id="Path_7254_1_" class="st0" d="M4.3,2.7H-5.9c-0.7,0-1.3-0.6-1.3-1.3c0-0.7,0.6-1.3,1.3-1.3H4.3c0.7,0,1.3,0.6,1.3,1.3
			S5,2.7,4.3,2.7L4.3,2.7z"/>
	</g>
</g>
<g id="Group_10092_1_" transform="translate(27.123 65.853)">
	<g id="Group_10090_1_" transform="translate(4.257)">
		<path id="Path_7255_1_" class="st0" d="M0.6,11.7c-0.7,0-1.3-0.6-1.3-1.3V0.3C-0.7-0.4-0.1-1,0.6-1c0.7,0,1.3,0.6,1.3,1.3v10.2
			C1.8,11.2,1.3,11.7,0.6,11.7z"/>
	</g>
	<g id="Group_10091_1_" transform="translate(0 5.213)">
		<path id="Path_7256_1_" class="st0" d="M9,1.4H0.7C0,1.4-0.6,0.9-0.6,0.1S0-1.1,0.7-1.1H9c0.7,0,1.3,0.6,1.3,1.3S9.7,1.4,9,1.4
			L9,1.4L9,1.4z"/>
	</g>
</g>
<g id="Group_10093_1_" transform="translate(28.687 302.071)">
	<path id="Path_7257_1_" class="st0" d="M4.9,4.7c-3,0-5.5-2.5-5.5-5.5s2.5-5.5,5.5-5.5s5.5,2.5,5.5,5.5C10.4,2.3,7.9,4.7,4.9,4.7
		C4.9,4.7,4.9,4.7,4.9,4.7z M4.9-3.7c-1.6,0-3,1.3-3,3c0,1.6,1.3,3,3,3s3-1.3,3-3l0,0C7.8-2.3,6.5-3.7,4.9-3.7L4.9-3.7z"/>
</g>
<g id="Group_10096_1_" transform="translate(2.798 312.583)">
	<g id="Group_10094_1_" transform="translate(4.257)">
		<path id="Path_7258_1_" class="st0" d="M1.1,6.2c-0.7,0-1.3-0.6-1.3-1.3V-5.3c0-0.7,0.6-1.3,1.3-1.3c0.7,0,1.3,0.6,1.3,1.3l0,0
			V4.9C2.4,5.6,1.8,6.2,1.1,6.2z"/>
	</g>
	<g id="Group_10095_1_" transform="translate(0 5.213)">
		<path id="Path_7259_1_" class="st0" d="M9.5-4.1H1.2c-0.7,0-1.3-0.6-1.3-1.3c0-0.7,0.6-1.3,1.3-1.3l0,0h8.3c0.7,0,1.3,0.6,1.3,1.3
			C10.8-4.7,10.2-4.1,9.5-4.1L9.5-4.1z"/>
	</g>
</g>
<g id="Group_10099_1_" transform="translate(486.702 164.023)">
	<g id="Group_10097_1_" transform="translate(4.257)">
		<path id="Path_7260_1_" class="st0" d="M-9.7,9.5C-10.4,9.5-11,9-11,8.3V-1.9c0-0.7,0.6-1.3,1.3-1.3c0.7,0,1.3,0.6,1.3,1.3V8.3
			C-8.5,9-9,9.5-9.7,9.5z"/>
	</g>
	<g id="Group_10098_1_" transform="translate(0 5.213)">
		<path id="Path_7261_1_" class="st0" d="M-1.3-0.8h-8.3c-0.7,0-1.3-0.6-1.3-1.3c0-0.7,0.6-1.3,1.3-1.3h8.3C-0.6-3.3,0-2.8,0-2.1
			C0-1.3-0.6-0.8-1.3-0.8L-1.3-0.8L-1.3-0.8z"/>
	</g>
</g>
<g id="Group_10102_1_" transform="translate(480.36 225.706)">
	<g id="Group_10100_1_" transform="translate(5.126)">
		<path id="Path_7262_1_" class="st0" d="M-9.6,8.1c-0.7,0-1.3-0.6-1.3-1.3V-3.3c0-0.7,0.6-1.3,1.3-1.3c0.7,0,1.3,0.6,1.3,1.3V6.9
			c0,0.7-0.5,1.2-1.1,1.3C-9.5,8.2-9.6,8.2-9.6,8.1z"/>
	</g>
	<g id="Group_10101_1_" transform="translate(0 5.213)">
		<path id="Path_7263_1_" class="st0" d="M0.6-2.2H-9.5c-0.7,0-1.3-0.6-1.3-1.3c0-0.7,0.6-1.3,1.3-1.3l0,0H0.6
			c0.7,0,1.3,0.6,1.3,1.3C1.9-2.7,1.3-2.2,0.6-2.2L0.6-2.2z"/>
	</g>
</g>
<g id="Group_10105_1_" transform="translate(353.693 41.093)">
	<g id="Group_10103_1_" transform="translate(8.427)">
		<path id="Path_7264_1_" class="st0" d="M-6.8,18.7c-0.7,0-1.3-0.6-1.3-1.3V0.8c0-0.7,0.6-1.3,1.3-1.3c0.7,0,1.3,0.6,1.3,1.3v16.6
			c0,0.7-0.5,1.2-1.1,1.3C-6.7,18.7-6.8,18.7-6.8,18.7z"/>
	</g>
	<g id="Group_10104_1_" transform="translate(0 8.427)">
		<path id="Path_7265_1_" class="st0" d="M9.9,1.9H-6.7c-0.7,0-1.3-0.6-1.3-1.3c0-0.7,0.6-1.3,1.3-1.3l0,0H9.9
			c0.7,0,1.3,0.6,1.3,1.3C11.2,1.3,10.6,1.9,9.9,1.9L9.9,1.9z"/>
	</g>
</g>
<g id="Group_10108_1_" transform="translate(469.891 23.587)">
	<g id="Group_10106_1_" transform="translate(0.087 0)">
		<path id="Path_7266_1_" class="st0" d="M-9.2,14.2c-0.3,0-0.7-0.1-0.9-0.3c-0.5-0.5-0.5-1.2,0-1.7c0,0,0,0,0,0L1.6,0.3
			c0.5-0.5,1.3-0.5,1.8,0c0.5,0.5,0.5,1.3,0,1.7L-8.4,13.8C-8.6,14-8.9,14.2-9.2,14.2z"/>
	</g>
	<g id="Group_10107_1_">
		<path id="Path_7267_1_" class="st0" d="M2.5,14.2c-0.3,0-0.7-0.1-0.9-0.3L-10.2,2.1c-0.5-0.5-0.5-1.3,0-1.8c0.5-0.5,1.3-0.5,1.8,0
			c0,0,0,0,0,0L3.4,12c0.5,0.5,0.5,1.2,0,1.7c0,0,0,0,0,0C3.1,14.1,2.8,14.2,2.5,14.2z"/>
	</g>
</g>
<g id="Group_10111_1_" transform="translate(496.171 73.237)">
	<g id="Group_10109_1_" transform="translate(8.427)">
		<path id="Path_7268_1_" class="st0" d="M-10,17.9c-0.7,0-1.3-0.6-1.3-1.3V0.1c0-0.7,0.6-1.3,1.3-1.3c0.7,0,1.3,0.6,1.3,1.3v16.6
			c0,0.7-0.5,1.2-1.1,1.3C-9.9,17.9-10,17.9-10,17.9z"/>
	</g>
	<g id="Group_10110_1_" transform="translate(0 8.427)">
		<path id="Path_7269_1_" class="st0" d="M6.7,1.2H-9.9c-0.7,0-1.3-0.6-1.3-1.3s0.6-1.3,1.3-1.3H6.7C7.4-1.4,8-0.8,8-0.1
			S7.4,1.2,6.7,1.2L6.7,1.2L6.7,1.2z"/>
	</g>
</g>
<g id="Group_10118_1_" transform="translate(402.24 290.169)">
	<path id="Path_7274_1_" class="st0" d="M21.2,4.8c-0.4,0-0.8-0.2-1.1-0.6L16-2.6l-4.8,6.2c-0.3,0.3-0.7,0.5-1.1,0.5
		C9.6,4,9.2,3.8,9,3.5L5.8-1.7L2.6,2.7C2.2,3.3,1.4,3.4,0.9,3C0.8,2.9,0.7,2.8,0.6,2.7l-3.3-4.6l-4.1,4.7C-7.2,3.4-8,3.5-8.6,3.1
		c-0.6-0.4-0.7-1.2-0.3-1.8c0,0,0.1-0.1,0.1-0.1l5.1-5.9c0.2-0.3,0.6-0.5,1-0.4c0.4,0,0.8,0.2,1,0.5l3.2,4.5l3.2-4.5
		C5.1-5,5.5-5.2,5.9-5.2c0.4,0,0.8,0.2,1,0.6l3.3,5.3l4.8-6.2C15.4-5.9,15.8-6,16.2-6c0.4,0,0.8,0.2,1,0.6l5.1,8.5
		c0.3,0.6,0.2,1.4-0.4,1.8C21.7,4.8,21.5,4.8,21.2,4.8z"/>
</g>
<g id="Group_10126_1_" transform="translate(461.316 55.601)">
	<path id="Path_7282_1_" class="st0" d="M19.9,10.1c-0.4,0-0.8-0.2-1.1-0.6l-4.2-6.9L9.8,8.8C9.5,9.2,9.1,9.3,8.7,9.3
		c-0.4,0-0.8-0.2-1-0.6L4.5,3.6L1.3,8C0.9,8.5,0.1,8.6-0.5,8.2C-0.6,8.2-0.7,8.1-0.7,8L-4,3.4l-4.1,4.7c-0.5,0.5-1.3,0.5-1.8,0
		c-0.5-0.4-0.5-1.1-0.2-1.7L-5,0.5C-4.7,0.2-4.3,0-4,0.1c0.4,0,0.8,0.2,1,0.5l3.2,4.5l3.2-4.5C3.8,0.2,4.2,0,4.6,0.1
		c0.4,0,0.8,0.2,1,0.6L9,5.9l4.8-6.2c0.3-0.3,0.7-0.5,1.1-0.5c0.4,0,0.8,0.2,1,0.6L21,8.3c0.3,0.6,0.2,1.4-0.4,1.8
		C20.4,10,20.1,10,19.9,10.1z"/>
</g>
<g id="Group_10126_2_" transform="translate(461.316 55.601)">
	<path id="Path_7282_2_" class="st0" d="M53.7-6.9c0-0.4,0.2-0.8,0.6-1.1l6.9-4.2L55-17c-0.3-0.3-0.5-0.7-0.5-1.1
		c0-0.4,0.2-0.8,0.6-1l5.2-3.2l-4.4-3.1c-0.6-0.4-0.7-1.2-0.3-1.8c0.1-0.1,0.2-0.2,0.3-0.3l4.6-3.3l-4.7-4.1c-0.5-0.5-0.5-1.3,0-1.8
		c0.4-0.5,1.1-0.5,1.7-0.2l5.9,5.1c0.3,0.2,0.5,0.6,0.4,1c0,0.4-0.2,0.8-0.5,1l-4.5,3.2l4.5,3.2c0.3,0.3,0.5,0.7,0.5,1.1
		c0,0.4-0.2,0.8-0.6,1l-5.3,3.3l6.2,4.8c0.3,0.3,0.5,0.7,0.5,1.1c0,0.4-0.2,0.8-0.6,1l-8.5,5.1c-0.6,0.3-1.4,0.2-1.8-0.4
		C53.8-6.4,53.8-6.7,53.7-6.9z"/>
</g>
<g id="Group_10126_3_" transform="translate(461.316 55.601)">
	<path id="Path_7282_3_" class="st0" d="M45.6,241.7c0-0.4,0.2-0.8,0.6-1.1l6.9-4.2l-6.2-4.8c-0.3-0.3-0.5-0.7-0.5-1.1
		c0-0.4,0.2-0.8,0.6-1l5.2-3.2l-4.4-3.1c-0.6-0.4-0.7-1.2-0.3-1.8c0.1-0.1,0.2-0.2,0.3-0.3l4.6-3.3l-4.7-4.1c-0.5-0.5-0.5-1.3,0-1.8
		c0.4-0.5,1.1-0.5,1.7-0.2l5.9,5.1c0.3,0.2,0.5,0.6,0.4,1c0,0.4-0.2,0.8-0.5,1l-4.5,3.2l4.5,3.2c0.3,0.3,0.5,0.7,0.5,1.1
		c0,0.4-0.2,0.8-0.6,1l-5.3,3.3l6.2,4.8c0.3,0.3,0.5,0.7,0.5,1.1c0,0.4-0.2,0.8-0.6,1l-8.5,5.1c-0.6,0.3-1.4,0.2-1.8-0.4
		C45.7,242.2,45.7,242,45.6,241.7z"/>
</g>
<g id="Group_10128_1_" transform="translate(0 169.41)">
	<path id="Path_7284_1_" class="st0" d="M30.3,7.5c-0.4,0-0.8-0.2-1.1-0.6L25,0.1l-4.8,6.2c-0.3,0.3-0.7,0.5-1.1,0.5
		c-0.4,0-0.8-0.2-1-0.6L14.8,1l-3.1,4.4C11.2,6,10.4,6.1,9.9,5.7C9.8,5.6,9.7,5.5,9.6,5.4L6.3,0.8L2.2,5.5C1.8,6,1,6.1,0.4,5.7
		c-0.5-0.5-0.6-1.2-0.2-1.8l5.1-5.9c0.2-0.3,0.6-0.5,1-0.4c0.4,0,0.8,0.2,1,0.5l3.2,4.5L13.9-2c0.2-0.4,0.7-0.6,1.1-0.5
		c0.4,0,0.8,0.2,1,0.6l3.3,5.3l4.8-6.2c0.3-0.3,0.7-0.5,1.1-0.5c0.4,0,0.8,0.2,1,0.6l5.1,8.5c0.3,0.6,0.2,1.4-0.4,1.8
		C30.7,7.5,30.5,7.5,30.3,7.5z"/>
</g>
<g id="Group_10129_1_" transform="translate(101.646 152.034)">
	<path id="Path_7285_1_" class="st0" d="M28,7.9c-0.4,0-0.8-0.2-1.1-0.6l-4.2-6.9l-4.8,6.2c-0.3,0.3-0.7,0.5-1.1,0.5
		c-0.4,0-0.8-0.2-1-0.6l-3.2-5.2L9.4,5.8C9,6.4,8.2,6.5,7.6,6.1C7.5,6,7.4,5.9,7.3,5.8L4,1.2l-4.1,4.7c-0.4,0.6-1.2,0.7-1.8,0.3
		C-2.4,5.8-2.5,5-2.1,4.4c0,0,0.1-0.1,0.1-0.1l5.1-5.9c0.2-0.3,0.6-0.5,1-0.4c0.4,0,0.8,0.2,1,0.5l3.2,4.5l3.2-4.5
		c0.3-0.3,0.7-0.5,1.1-0.5c0.4,0,0.8,0.2,1,0.6L17,3.8l4.8-6.2C22.1-2.8,22.5-3,23-2.9c0.4,0,0.8,0.2,1,0.6l5.1,8.5
		c0.3,0.6,0.2,1.4-0.4,1.8C28.4,7.9,28.2,7.9,28,7.9z"/>
</g>
</svg>
