<svg xmlns="http://www.w3.org/2000/svg" viewBox="0 0 19.79 19.679">
  <defs>
    <style>
      .cls-1 {
        fill: #3e4f67;
      }
    </style>
  </defs>
  <g id="Group_990" data-name="Group 990" transform="translate(0 0)">
    <path id="Path_152" data-name="Path 152" class="cls-1" d="M940.244,1963.4h-1.387a.978.978,0,0,1-.832-.828v-1.655a.978.978,0,0,1,.832-.828h1.387a4.994,4.994,0,0,0-1.48-2.391,5.859,5.859,0,0,0-2.4-1.471v1.38a.793.793,0,0,1-.277.552.8.8,0,0,1-.555.276h-1.665a.978.978,0,0,1-.832-.828v-1.38a5.035,5.035,0,0,0-2.4,1.471,5.817,5.817,0,0,0-1.48,2.391h1.387a.978.978,0,0,1,.832.828v1.655a.794.794,0,0,1-.277.552.8.8,0,0,1-.555.276h-1.387a5,5,0,0,0,1.48,2.39,5.86,5.86,0,0,0,2.4,1.471v-1.379a.978.978,0,0,1,.832-.828h1.665a.978.978,0,0,1,.832.828v1.379a6.079,6.079,0,0,0,3.884-3.862Zm4.346-2.391v1.655a.979.979,0,0,1-.832.828h-1.85a7.585,7.585,0,0,1-1.942,3.586,6.933,6.933,0,0,1-3.607,1.931v1.839a.794.794,0,0,1-.277.552.8.8,0,0,1-.555.276h-1.665a.978.978,0,0,1-.832-.828v-1.839a7.659,7.659,0,0,1-3.607-1.931,6.87,6.87,0,0,1-1.942-3.586h-1.849a.979.979,0,0,1-.832-.828v-1.655a.793.793,0,0,1,.277-.552.8.8,0,0,1,.555-.276h1.849a7.59,7.59,0,0,1,1.942-3.587,6.934,6.934,0,0,1,3.607-1.931v-1.839a.793.793,0,0,1,.277-.552.8.8,0,0,1,.555-.276h1.665a.978.978,0,0,1,.832.828v1.839a7.659,7.659,0,0,1,3.607,1.931,6.869,6.869,0,0,1,1.942,3.587h1.85a.8.8,0,0,1,.555.276A.654.654,0,0,1,944.59,1961.012Z" transform="translate(-924.8 -1952)"/>
  </g>
</svg>
