<svg xmlns="http://www.w3.org/2000/svg" viewBox="0 0 23.811 24.638">
  <defs>
    <style>
      .cls-1 {
        fill: #fff;
      }

      .cls-2 {
        fill: #cecece;
      }
    </style>
  </defs>
  <g id="Group_2112" data-name="Group 2112" transform="translate(0 0)">
    <path id="Path_1872" data-name="Path 1872" class="cls-1" d="M32.266,8.2H15.9v3.072H29.548V25.393h2.718v-.03h-.03Z" transform="translate(-11.203 -5.778)"/>
    <path id="Path_1873" data-name="Path 1873" class="cls-2" d="M71.23,2.422,71.2,19.586h.03l2.747-2.747V0Z" transform="translate(-50.167)"/>
    <path id="Path_1874" data-name="Path 1874" class="cls-1" d="M35.013,0H18.441L15.9,2.422H32.266Z" transform="translate(-11.203)"/>
    <path id="Path_1875" data-name="Path 1875" class="cls-2" d="M52.5,22.791V36.232l1.92-1.891.236-.236V20.9Z" transform="translate(-36.991 -14.726)"/>
    <path id="Path_1876" data-name="Path 1876" class="cls-1" d="M11.109,20.9h0L9.1,22.791H21.921L24.077,20.9Z" transform="translate(-6.412 -14.726)"/>
    <path id="Path_1877" data-name="Path 1877" class="cls-2" d="M36.03,42.048v8.094L36,52.062h.03l1.6-1.6V40.6Z" transform="translate(-25.365 -28.606)"/>
    <path id="Path_1878" data-name="Path 1878" class="cls-1" d="M7.3,40.6H5.177L3.7,42.048h9.571l1.6-1.448Z" transform="translate(-2.607 -28.606)"/>
    <path id="Path_1879" data-name="Path 1879" class="cls-2" d="M21.7,58.345v6.735h0l1.093-1.063V57.4Z" transform="translate(-15.29 -40.443)"/>
    <path id="Path_1880" data-name="Path 1880" class="cls-1" d="M4.7,57.4H1l-1,.945H6.41L7.5,57.4Z" transform="translate(0 -40.443)"/>
    <path id="Path_1881" data-name="Path 1881" class="cls-1" d="M6.41,64.234V60.6H0v6.735H6.41v-3.1Z" transform="translate(0 -42.698)"/>
    <path id="Path_1882" data-name="Path 1882" class="cls-1" d="M7.3,45.5H3.7v2.777h7.09v7.238h2.452l.03-1.92V45.5Z" transform="translate(-2.607 -32.059)"/>
    <path id="Path_1883" data-name="Path 1883" class="cls-1" d="M21.921,38.851V27.3H9.1v3.22H19.351V40.771h2.57v-1.92Z" transform="translate(-6.412 -19.235)"/>
  </g>
</svg>
