<svg xmlns="http://www.w3.org/2000/svg" viewBox="0 0 19.678 16.585">
  <defs>
    <style>
      .cls-1 {
        fill: #3e4f67;
      }
    </style>
  </defs>
  <g id="Group_987" data-name="Group 987" transform="translate(0 0)">
    <path id="Path_664" data-name="Path 664" class="cls-1" d="M1193.723,1600.969v4.554a1.424,1.424,0,0,1-.429,1.031,1.361,1.361,0,0,1-1.031.43h-6.1a1.423,1.423,0,0,1-1.031-.43,1.36,1.36,0,0,1-.43-1.031v-4.554a1.422,1.422,0,0,1,.43-1.031,1.362,1.362,0,0,1,1.031-.43h6.1a1.467,1.467,0,0,1,1.461,1.461Zm0-9.109v4.554a1.424,1.424,0,0,1-.429,1.031,1.363,1.363,0,0,1-1.031.43h-6.1a1.423,1.423,0,0,1-1.031-.43,1.361,1.361,0,0,1-.43-1.031v-4.554a1.422,1.422,0,0,1,.43-1.031,1.362,1.362,0,0,1,1.031-.43h6.1a1.467,1.467,0,0,1,1.461,1.461Zm10.656,9.109v4.554a1.423,1.423,0,0,1-.43,1.031,1.36,1.36,0,0,1-1.031.43h-6.1a1.425,1.425,0,0,1-1.032-.43,1.36,1.36,0,0,1-.429-1.031v-4.554a1.423,1.423,0,0,1,.429-1.031,1.363,1.363,0,0,1,1.032-.43h6.1a1.468,1.468,0,0,1,1.461,1.461Zm0-9.109v4.554a1.424,1.424,0,0,1-.43,1.031,1.361,1.361,0,0,1-1.031.43h-6.1a1.425,1.425,0,0,1-1.032-.43,1.361,1.361,0,0,1-.429-1.031v-4.554a1.424,1.424,0,0,1,.429-1.031,1.363,1.363,0,0,1,1.032-.43h6.1a1.468,1.468,0,0,1,1.461,1.461Z" transform="translate(-1184.7 -1590.4)"/>
  </g>
</svg>
