<svg xmlns="http://www.w3.org/2000/svg" viewBox="0 0 19.678 19.678">
  <defs>
    <style>
      .cls-1 {
        fill: #fff;
      }
    </style>
  </defs>
  <g id="Group_989" data-name="Group 989" transform="translate(0)">
    <path id="Path_199" data-name="Path 199" class="cls-1" d="M395.378,2076.755v9.2c0,.318-.19.555-.665.714a17.751,17.751,0,0,1-4.468.555,15.448,15.448,0,0,1-2.852-.317,16.332,16.332,0,0,0-2.947-.317,22.594,22.594,0,0,0-4.848.555v3.729h-2.091V2075.8a2.837,2.837,0,0,1-1.331-.873,1.841,1.841,0,0,1-.475-1.349,2.013,2.013,0,0,1,.856-1.667,3.505,3.505,0,0,1,2-.714,2.852,2.852,0,0,1,2,.714,2.452,2.452,0,0,1,.856,1.667,2.361,2.361,0,0,1-.475,1.349,2.837,2.837,0,0,1-1.331.873v.714a24.381,24.381,0,0,1,4.468-.476c.856,0,1.711.08,2.567.159q.143,0,1.426.238a11.757,11.757,0,0,0,2,.238c.665,0,1.426-.08,2.186-.159a6.87,6.87,0,0,0,1.046-.238,5.455,5.455,0,0,1,1.141-.238.893.893,0,0,1,.57.238C395.188,2076.437,395.378,2076.6,395.378,2076.755Z" transform="translate(-375.7 -2071.2)"/>
  </g>
</svg>
