<svg xmlns="http://www.w3.org/2000/svg" viewBox="0 0 40.568 24.638">
  <defs>
    <style>
      .cls-1 {
        fill: #fff;
      }
    </style>
  </defs>
  <g id="Group_2113" data-name="Group 2113" transform="translate(0)">
    <path id="Path_1884" data-name="Path 1884" class="cls-1" d="M590.5,10.051c-.154.139-.283.34-.463.4-.371.118-.633-.149-.721-.587a17.559,17.559,0,0,0-.494-2.147,9.234,9.234,0,0,0-6.945-6.255c-.52-.134-1.061-.2-1.591-.3a.563.563,0,0,1-.5-.607.578.578,0,0,1,.752-.525A21.782,21.782,0,0,1,582.77.5a10.222,10.222,0,0,1,6.492,5.231,12.181,12.181,0,0,1,1.184,3.753,1.465,1.465,0,0,0,.051.16C590.5,9.778,590.5,9.912,590.5,10.051Z" transform="translate(-549.934 -0.012)"/>
    <path id="Path_1885" data-name="Path 1885" class="cls-1" d="M383.014,98.777a9.288,9.288,0,0,1,8.34-.2,5.949,5.949,0,0,1,3.151,4.335,11.075,11.075,0,0,1,.216,2.142c.021,3.207.01,6.415.01,9.627a2.339,2.339,0,0,1-2.173,2.4,2.367,2.367,0,0,1-2.554-2,2.4,2.4,0,0,1-.021-.386c0-2.96.005-5.921-.005-8.881a10.336,10.336,0,0,0-.154-1.786,1.976,1.976,0,0,0-1.853-1.776,6.041,6.041,0,0,0-2.173.026,2.648,2.648,0,0,0-2.24,2.42,8.906,8.906,0,0,0-.1,1.282c-.01,2.9,0,5.8-.005,8.7a2.23,2.23,0,0,1-1.385,2.188,2.307,2.307,0,0,1-2.61-.407,2.241,2.241,0,0,1-.752-1.534c-.01-.1-.01-.206-.01-.309V100.337a2.389,2.389,0,0,1,4.088-1.745c.057.057.108.108.16.165A.3.3,0,0,1,383.014,98.777Z" transform="translate(-359.204 -92.641)"/>
    <path id="Path_1886" data-name="Path 1886" class="cls-1" d="M572.667,49.893a10.071,10.071,0,0,1,3.913,1.313,8.234,8.234,0,0,1,3.8,5.478c.057.242.1.489.139.731a.591.591,0,0,1-.479.747c-.335.062-.613-.17-.674-.577a8.639,8.639,0,0,0-.875-2.729,7.037,7.037,0,0,0-4.731-3.573c-.422-.108-.855-.17-1.282-.257a.57.57,0,0,1-.479-.654A.6.6,0,0,1,572.667,49.893Z" transform="translate(-542.544 -47.325)"/>
    <path id="Path_1887" data-name="Path 1887" class="cls-1" d="M16.814,121.836a7.1,7.1,0,0,0-4.927-4.808,11.242,11.242,0,0,0-5.344-.237,7.55,7.55,0,0,0-4.052,2.028,8.5,8.5,0,0,0-2.337,5.009c-.062.438-.1.88-.154,1.318v1.493a1.621,1.621,0,0,1,.046.216,11.359,11.359,0,0,0,.479,2.754,7.306,7.306,0,0,0,5.02,5.143,11.018,11.018,0,0,0,5.241.268,7.228,7.228,0,0,0,5.951-4.886A12.506,12.506,0,0,0,16.814,121.836Zm-4.175,4.057a8.171,8.171,0,0,1-.381,2.708,3.075,3.075,0,0,1-2.893,2.24,7.64,7.64,0,0,1-1.714-.062,3.027,3.027,0,0,1-2.5-2.3,9.1,9.1,0,0,1-.268-3.743,7.462,7.462,0,0,1,.448-1.864,2.83,2.83,0,0,1,2.481-1.889,7.859,7.859,0,0,1,2,.026,3.063,3.063,0,0,1,2.59,2.615c.17.736.216,1.5.319,2.26C12.685,125.888,12.665,125.888,12.639,125.893Z" transform="translate(0 -110.577)"/>
  </g>
</svg>
