<svg xmlns="http://www.w3.org/2000/svg" viewBox="0 0 19.678 13.442">
  <defs>
    <style>
      .cls-1 {
        fill: #fff;
      }
    </style>
  </defs>
  <g id="Group_988" data-name="Group 988" transform="translate(0)">
    <path id="Path_354" data-name="Path 354" class="cls-1" d="M1100.223,805.947l1.455,12.195a6.494,6.494,0,0,1-2.494-.554,9.531,9.531,0,0,0-3.742-.9,5.082,5.082,0,0,0-3.6,1.386,4.8,4.8,0,0,0-3.6-1.386,8.253,8.253,0,0,0-3.742.9,6.167,6.167,0,0,1-2.425.554H1082l1.455-12.195a9.149,9.149,0,0,1,4.642-1.247,6.436,6.436,0,0,1,3.742,1.039,6.287,6.287,0,0,1,3.742-1.039A8.968,8.968,0,0,1,1100.223,805.947Zm-4.712,9.423a7.189,7.189,0,0,1,2.217.277c.624.208,1.524.485,2.494.9l-1.178-9.77a8.75,8.75,0,0,0-3.534-.762,5.377,5.377,0,0,1-7.206,0,8.75,8.75,0,0,0-3.534.762l-1.178,9.77c.693-.277,1.178-.485,1.594-.624a6.407,6.407,0,0,1,1.455-.346,7.03,7.03,0,0,1,1.732-.139,6.616,6.616,0,0,1,3.6,1.039A5.794,5.794,0,0,1,1095.512,815.37Zm.346-.277-.554-8.73a5.059,5.059,0,0,0-3.464,1.455,4.857,4.857,0,0,0-3.6-1.455,8.778,8.778,0,0,0-3.257.624l-1.109,9.008a16.87,16.87,0,0,1,2.217-.762,10.764,10.764,0,0,1,2.148-.208,7.008,7.008,0,0,1,3.6.97,6.022,6.022,0,0,1,3.6-.97Z" transform="translate(-1082 -804.7)"/>
  </g>
</svg>
