<svg id="Group_1129" data-name="Group 1129" xmlns="http://www.w3.org/2000/svg" viewBox="0 0 125.235 32.566">
  <defs>
    <style>
      .cls-1 {
        fill: #364347;
      }
    </style>
  </defs>
  <g id="Group_1107" data-name="Group 1107" transform="translate(37.95 8.958)">
    <g id="Group_978" data-name="Group 978" transform="translate(0 0)">
      <path id="Path_846" data-name="Path 846" class="cls-1" d="M461.216-96.9h-4.325v2.78h4.81v2.162h-7.5V-103.7h7.237v2.162h-4.589v2.427h4.325V-96.9Z" transform="translate(-454.2 104.318)"/>
      <path id="Path_847" data-name="Path 847" class="cls-1" d="M481.737-105.1v9.841c0,.971.044,1.986.088,2.559h-2.339l-.132-1.236h-.044a2.959,2.959,0,0,1-2.648,1.456c-2.03,0-3.663-1.721-3.663-4.369,0-2.868,1.765-4.545,3.839-4.545a2.544,2.544,0,0,1,2.251.971h.044v-4.633h2.6Zm-2.648,7.458a1.81,1.81,0,0,0-.044-.485,1.646,1.646,0,0,0-1.544-1.324c-1.192,0-1.809,1.059-1.809,2.427,0,1.456.706,2.339,1.809,2.339a1.6,1.6,0,0,0,1.544-1.28,2.6,2.6,0,0,0,.088-.618v-1.059Z" transform="translate(-464.704 105.1)"/>
      <path id="Path_848" data-name="Path 848" class="cls-1" d="M504.631-90.619c0,1.1.044,2.03.088,2.736h-2.295l-.132-1.191h-.044a3.074,3.074,0,0,1-2.648,1.412c-1.721,0-3-1.059-3-3.707v-4.986h2.648v4.545c0,1.236.4,1.986,1.324,1.986a1.38,1.38,0,0,0,1.324-.927,1.212,1.212,0,0,0,.088-.574V-96.4h2.648Z" transform="translate(-477.89 100.239)"/>
      <path id="Path_849" data-name="Path 849" class="cls-1" d="M524.384-88.283a6.3,6.3,0,0,1-2.383.4,4.137,4.137,0,0,1-4.5-4.369c0-2.471,1.721-4.545,4.9-4.545a5.933,5.933,0,0,1,2.03.353l-.4,1.986a3.792,3.792,0,0,0-1.5-.265,2.224,2.224,0,0,0-2.295,2.383,2.211,2.211,0,0,0,2.339,2.383,3.657,3.657,0,0,0,1.5-.265Z" transform="translate(-489.567 100.463)"/>
      <path id="Path_850" data-name="Path 850" class="cls-1" d="M539.784-88.107l-.177-.838h-.044a3.127,3.127,0,0,1-2.427,1.059,2.586,2.586,0,0,1-2.736-2.6c0-2.206,1.986-3.265,4.986-3.265v-.132c0-.441-.265-1.1-1.544-1.1a4.576,4.576,0,0,0-2.339.662l-.485-1.721a6.728,6.728,0,0,1,3.31-.75c2.824,0,3.751,1.677,3.751,3.663v2.957a12.837,12.837,0,0,0,.132,2.074h-2.427Zm-.309-4.016c-1.412,0-2.471.309-2.471,1.324a.962.962,0,0,0,1.059,1.015,1.448,1.448,0,0,0,1.368-.971,1.5,1.5,0,0,0,.044-.441Z" transform="translate(-499.009 100.463)"/>
      <path id="Path_851" data-name="Path 851" class="cls-1" d="M561.284-88.283a6.3,6.3,0,0,1-2.383.4,4.137,4.137,0,0,1-4.5-4.369c0-2.471,1.721-4.545,4.9-4.545a5.934,5.934,0,0,1,2.03.353l-.4,1.986a3.792,3.792,0,0,0-1.5-.265,2.224,2.224,0,0,0-2.295,2.383,2.211,2.211,0,0,0,2.339,2.383,3.656,3.656,0,0,0,1.5-.265Z" transform="translate(-510.184 100.463)"/>
      <path id="Path_852" data-name="Path 852" class="cls-1" d="M574.977-103.476a1.323,1.323,0,0,1-1.412,1.324,1.262,1.262,0,0,1-1.368-1.324,1.3,1.3,0,0,1,1.412-1.324A1.263,1.263,0,0,1,574.977-103.476Zm-2.736,10.9v-8.517h2.648v8.517Z" transform="translate(-520.126 104.932)"/>
      <path id="Path_853" data-name="Path 853" class="cls-1" d="M590.014-92.431a4.264,4.264,0,0,1-4.5,4.545A4.191,4.191,0,0,1,581.1-92.3a4.251,4.251,0,0,1,4.545-4.5A4.146,4.146,0,0,1,590.014-92.431Zm-6.178.088c0,1.456.618,2.559,1.765,2.559,1.015,0,1.677-1.015,1.677-2.559,0-1.28-.485-2.559-1.677-2.559C584.277-94.947,583.836-93.623,583.836-92.343Z" transform="translate(-525.102 100.463)"/>
      <path id="Path_854" data-name="Path 854" class="cls-1" d="M603.888-93.943c0-1.059-.044-1.986-.088-2.736h2.295l.132,1.147h.044a3.19,3.19,0,0,1,2.648-1.368c1.765,0,3.045,1.147,3.045,3.663v5.075h-2.648v-4.722c0-1.1-.4-1.853-1.324-1.853a1.347,1.347,0,0,0-1.324,1.015,1.509,1.509,0,0,0-.088.662v4.9h-2.648v-5.781Z" transform="translate(-537.785 100.518)"/>
      <path id="Path_855" data-name="Path 855" class="cls-1" d="M630.284-88.107l-.177-.838h-.044a3.127,3.127,0,0,1-2.427,1.059,2.587,2.587,0,0,1-2.736-2.6c0-2.206,1.986-3.265,4.987-3.265v-.132c0-.441-.265-1.1-1.545-1.1a4.576,4.576,0,0,0-2.339.662l-.485-1.721a6.728,6.728,0,0,1,3.31-.75c2.824,0,3.751,1.677,3.751,3.663v2.957a12.837,12.837,0,0,0,.132,2.074h-2.427Zm-.309-4.016c-1.412,0-2.471.309-2.471,1.324a.962.962,0,0,0,1.059,1.015,1.448,1.448,0,0,0,1.368-.971,1.5,1.5,0,0,0,.044-.441Z" transform="translate(-549.574 100.463)"/>
      <path id="Path_856" data-name="Path 856" class="cls-1" d="M646-105.1h2.648v12.356H646Z" transform="translate(-561.363 105.1)"/>
    </g>
  </g>
  <g id="Group_1108" data-name="Group 1108" transform="translate(0 0)">
    <g id="Group_981" data-name="Group 981" transform="translate(0 0)">
      <path id="Path_836" data-name="Path 836" class="cls-1" d="M36.9-91.834H17.663A6.686,6.686,0,0,1,11-98.5v-19.24a6.686,6.686,0,0,1,6.663-6.663H36.9a6.686,6.686,0,0,1,6.663,6.663V-98.5A6.686,6.686,0,0,1,36.9-91.834Zm-19.24-30.713a4.915,4.915,0,0,0-4.9,4.9v19.24a4.915,4.915,0,0,0,4.9,4.9H36.9a4.915,4.915,0,0,0,4.9-4.9v-19.24a4.915,4.915,0,0,0-4.9-4.9Z" transform="translate(-11 124.4)"/>
    </g>
    <g id="Group_982" data-name="Group 982" transform="translate(3.121 8.509)">
      <path id="Path_837" data-name="Path 837" class="cls-1" d="M72.247-76.8A1.139,1.139,0,0,0,71.1-75.653a1.139,1.139,0,0,0,1.147,1.147,1.139,1.139,0,0,0,1.147-1.147A1.089,1.089,0,0,0,72.247-76.8Z" transform="translate(-47.7 89.296)"/>
      <path id="Path_838" data-name="Path 838" class="cls-1" d="M51.1-94.7c16.063-7.149,9.09-14.342,1.721-7.943C59.7-106.61,59.308-98.932,51.1-94.7Z" transform="translate(-36.526 105.118)"/>
      <path id="Path_839" data-name="Path 839" class="cls-1" d="M43.759-97.3c-10.9,8.3-6.928,16.416,8.12,7.414C39.037-84.194,38.861-92.269,43.759-97.3Z" transform="translate(-28.964 100.75)"/>
      <path id="Path_840" data-name="Path 840" class="cls-1" d="M21.968-75.864c-1.412-.618-2.692-.838-3.663.177-.265.353-.353.662,0,.838,1.368.838,4.766.75,7.281-1.1A5.058,5.058,0,0,1,21.968-75.864Z" transform="translate(-18.072 89.066)"/>
    </g>
  </g>
</svg>
