<svg xmlns="http://www.w3.org/2000/svg" viewBox="0 0 47.368 47.101">
  <defs>
    <style>
      .cls-1 {
        fill: #fff;
      }
    </style>
  </defs>
  <g id="Group_986" data-name="Group 986" transform="translate(0 0)">
    <g id="Group_981" data-name="Group 981" transform="translate(0 0)">
      <path id="Path_836" data-name="Path 836" class="cls-1" d="M48.676-77.3H20.692A9.7,9.7,0,0,1,11-86.936v-27.826a9.7,9.7,0,0,1,9.692-9.637H48.676a9.7,9.7,0,0,1,9.692,9.637v27.826A9.7,9.7,0,0,1,48.676-77.3Zm-27.984-44.42a7.129,7.129,0,0,0-7.124,7.084v27.826a7.129,7.129,0,0,0,7.124,7.084H48.676A7.129,7.129,0,0,0,55.8-86.809v-27.826a7.129,7.129,0,0,0-7.124-7.084Z" transform="translate(-11 124.4)"/>
    </g>
    <g id="Group_982" data-name="Group 982" transform="translate(4.539 12.306)">
      <path id="Path_837" data-name="Path 837" class="cls-1" d="M72.769-76.8A1.652,1.652,0,0,0,71.1-75.141a1.653,1.653,0,0,0,1.669,1.659,1.652,1.652,0,0,0,1.669-1.659A1.579,1.579,0,0,0,72.769-76.8Z" transform="translate(-37.065 94.873)"/>
      <path id="Path_838" data-name="Path 838" class="cls-1" d="M51.1-90.044c23.363-10.339,13.222-20.742,2.5-11.488C63.616-107.276,63.038-96.171,51.1-90.044Z" transform="translate(-29.902 105.118)"/>
      <path id="Path_839" data-name="Path 839" class="cls-1" d="M46.574-97.3C30.72-85.3,36.5-73.558,58.383-86.578,39.706-78.345,39.449-90.024,46.574-97.3Z" transform="translate(-25.054 102.289)"/>
      <path id="Path_840" data-name="Path 840" class="cls-1" d="M23.738-75.63c-2.054-.894-3.915-1.213-5.327.255-.385.511-.513.957,0,1.213,1.99,1.213,6.932,1.085,10.59-1.6C27.4-75.311,25.792-74.8,23.738-75.63Z" transform="translate(-18.072 94.724)"/>
    </g>
  </g>
</svg>
