<svg xmlns="http://www.w3.org/2000/svg" viewBox="0 0 22.963 22.963">
  <defs>
    <style>
      .cls-1 {
        fill: #f37b54;
      }
    </style>
  </defs>
  <g id="Group_2018" data-name="Group 2018" transform="translate(0 0)">
    <path id="Path_747" data-name="Path 747" class="cls-1" d="M680.882,1708.5a10.38,10.38,0,0,1,4.444.922,12.788,12.788,0,0,1,3.7,2.4,11.377,11.377,0,0,1,2.407,12.542,12.73,12.73,0,0,1-2.407,3.689,11.857,11.857,0,0,1-3.7,2.49,10.673,10.673,0,0,1-4.444.922,10.381,10.381,0,0,1-4.445-.922,12.45,12.45,0,0,1-3.7-2.49,11.377,11.377,0,0,1-2.407-12.542,12.728,12.728,0,0,1,2.407-3.689,10.276,10.276,0,0,1,3.7-2.4A11.961,11.961,0,0,1,680.882,1708.5Zm7.963,17.245a9.545,9.545,0,0,0,1.944-5.81,10.574,10.574,0,0,0-.741-3.781,10.009,10.009,0,0,0-5.278-5.256,9,9,0,0,0-3.8-.738,10.687,10.687,0,0,0-3.8.738,10.009,10.009,0,0,0-5.278,5.256,8.9,8.9,0,0,0-.741,3.781,9.544,9.544,0,0,0,1.944,5.81q.833-4.15,3.889-4.15a5.605,5.605,0,0,0,7.963,0C686.9,1721.6,688.289,1722.979,688.845,1725.745Zm-3.056-8.207a4.663,4.663,0,0,0-1.482-3.5,4.906,4.906,0,0,0-3.518-1.475,4.7,4.7,0,0,0-3.519,1.475,4.867,4.867,0,0,0-1.481,3.5,4.663,4.663,0,0,0,1.481,3.5,4.905,4.905,0,0,0,3.519,1.476,4.7,4.7,0,0,0,3.518-1.476A4.807,4.807,0,0,0,685.789,1717.538Z" transform="translate(-669.4 -1708.5)"/>
  </g>
</svg>
