<svg xmlns="http://www.w3.org/2000/svg" viewBox="0 0 26 26">
  <defs>
    <style>
      .cls-1 {
        fill: #fefefe;
      }
    </style>
  </defs>
  <path id="ic_ATVagendada_1_" data-name="ic_ATVagendada (1)" class="cls-1" d="M-4133-4113a1,1,0,0,1-1-1v-3.041a9.87,9.87,0,0,1-2.7-1.037,9.445,9.445,0,0,1-3.528-3.532,8.89,8.89,0,0,1-.988-2.39H-4144a1,1,0,0,1-1-1v-2a1,1,0,0,1,1-1h2.632a9.824,9.824,0,0,1,1.136-3.2,9.436,9.436,0,0,1,3.529-3.53,8.9,8.9,0,0,1,2.7-1.06V-4138a1,1,0,0,1,1-1h2a1,1,0,0,1,1,1v2.189a9.812,9.812,0,0,1,2.89,1.078,10.121,10.121,0,0,1,3.531,3.53,8.874,8.874,0,0,1,1.151,3.2H-4120a1,1,0,0,1,1,1v2a1,1,0,0,1-1,1h-2.616a9.842,9.842,0,0,1-.963,2.39,9.448,9.448,0,0,1-3.531,3.532,8.176,8.176,0,0,1-2.89,1.1v2.98a1,1,0,0,1-1,1Zm-2.345-19.29a6.328,6.328,0,0,0-2.445,2.442,6.53,6.53,0,0,0-.9,3.439,6.529,6.529,0,0,0,.9,3.44,6.33,6.33,0,0,0,2.444,2.442,6.5,6.5,0,0,0,3.439.906,6.5,6.5,0,0,0,3.438-.907,6.33,6.33,0,0,0,2.445-2.441,6.531,6.531,0,0,0,.9-3.441,6.545,6.545,0,0,0-.9-3.439,6.326,6.326,0,0,0-2.444-2.442,6.506,6.506,0,0,0-3.438-.9,6.512,6.512,0,0,0-3.438.9Zm.723,8.422a.333.333,0,0,1-.271-.09.334.334,0,0,1-.09-.271v-.817a.328.328,0,0,1,.09-.27.332.332,0,0,1,.271-.09h2.806v-4.435a.328.328,0,0,1,.092-.271.327.327,0,0,1,.271-.092h.813a.332.332,0,0,1,.271.092.331.331,0,0,1,.09.271v5.612a.338.338,0,0,1-.09.271.334.334,0,0,1-.271.09Z" transform="translate(4145 4139)"/>
</svg>
