<svg id="Group_20133" data-name="Group 20133" xmlns="http://www.w3.org/2000/svg" viewBox="0 0 25 17.253">
  <defs>
    <style>
      .cls-1 {
        fill: #3e4f67;
      }
    </style>
  </defs>
  <path id="Path_394" data-name="Path 394" class="cls-1" d="M270.2,1353.253h-4.665v4.666H270.2Zm1.585,7.835v1.584H263.95v-1.584Zm0-9.419v7.835H263.95v-7.835Zm7.746,9.419v1.584h-6.25v-1.584Zm0-3.169v1.584h-6.25v-1.584Zm0-3.081v1.585h-6.25v-1.585Zm0-3.169v1.584h-6.25v-1.584Zm-18.662,11.708v-11.708h-1.585v11.708a.75.75,0,0,0,1.32.528A.628.628,0,0,0,260.869,1363.377Zm20.246,0v-13.292h-18.75v13.292a2.568,2.568,0,0,1-.176.792h18.046a.761.761,0,0,0,.528-.264C280.939,1363.729,281.115,1363.641,281.115,1363.377Zm1.585-14.789v14.789a2.4,2.4,0,0,1-.7,1.673,2.254,2.254,0,0,1-1.673.7H260.077a2.4,2.4,0,0,1-1.673-.7,2.254,2.254,0,0,1-.7-1.673v-13.292h3.081V1348.5H282.7Z" transform="translate(-257.7 -1348.5)"/>
</svg>
