<svg id="Group_20138" data-name="Group 20138" xmlns="http://www.w3.org/2000/svg" viewBox="0 0 24.368 24.284">
  <defs>
    <style>
      .cls-1 {
        fill: #fad46b;
      }
    </style>
  </defs>
  <path id="Path_1888" data-name="Path 1888" class="cls-1" d="M9.1,0a9.1,9.1,0,1,0,7.26,14.6V14.02H11.349V11.1a3.1,3.1,0,0,1-2.337,1.085,3,3,0,1,1,3-3,2.665,2.665,0,0,1-.25,1.168h4.506V5.341h1A8.653,8.653,0,0,0,9.1,0Z"/>
  <g id="Group_2114" data-name="Group 2114" transform="translate(12.184 6.092)">
    <path id="Path_1889" data-name="Path 1889" class="cls-1" d="M26.784,12.307v2.17H21.777V19.4h-2.17V14.477H14.6v-2.17h5.007V7.3h2.17v5.007Z" transform="translate(-14.6 -7.3)"/>
  </g>
  <path id="Path_1890" data-name="Path 1890" class="cls-1" d="M6.108,24.9a3,3,0,1,1-3-3A2.992,2.992,0,0,1,6.108,24.9Z" transform="translate(-0.017 -3.624)"/>
</svg>
