<svg id="Group_20132" data-name="Group 20132" xmlns="http://www.w3.org/2000/svg" viewBox="0 0 24.638 24.638">
  <defs>
    <style>
      .cls-1 {
        fill: #3e4f67;
      }
    </style>
  </defs>
  <path id="Path_747" data-name="Path 747" class="cls-1" d="M681.719,1708.5a11.139,11.139,0,0,1,4.769.99,13.723,13.723,0,0,1,3.974,2.573,12.207,12.207,0,0,1,2.583,13.457,13.654,13.654,0,0,1-2.583,3.958,12.723,12.723,0,0,1-3.974,2.672,11.453,11.453,0,0,1-4.769.989,11.139,11.139,0,0,1-4.769-.989,13.36,13.36,0,0,1-3.974-2.672,12.207,12.207,0,0,1-2.583-13.457,13.66,13.66,0,0,1,2.583-3.958,11.028,11.028,0,0,1,3.974-2.573A12.834,12.834,0,0,1,681.719,1708.5Zm8.544,18.5a10.241,10.241,0,0,0,2.086-6.234,11.343,11.343,0,0,0-.795-4.057,10.739,10.739,0,0,0-5.663-5.64,9.65,9.65,0,0,0-4.073-.792,11.465,11.465,0,0,0-4.073.792,10.738,10.738,0,0,0-5.663,5.64,9.546,9.546,0,0,0-.795,4.057,10.242,10.242,0,0,0,2.086,6.234q.894-4.453,4.173-4.453a6.013,6.013,0,0,0,8.544,0C688.176,1722.55,689.667,1724.034,690.263,1727Zm-3.278-8.806a5,5,0,0,0-1.59-3.76,5.263,5.263,0,0,0-3.775-1.583,5.043,5.043,0,0,0-3.775,1.583,5.221,5.221,0,0,0-1.589,3.76,5,5,0,0,0,1.589,3.76,5.264,5.264,0,0,0,3.775,1.583,5.043,5.043,0,0,0,3.775-1.583A5.157,5.157,0,0,0,686.984,1718.2Z" transform="translate(-669.4 -1708.5)"/>
</svg>
