<svg id="plus-icon" xmlns="http://www.w3.org/2000/svg" xmlns:xlink="http://www.w3.org/1999/xlink" viewBox="0 0 40 40">
  <defs>
    <style>
      .cls-1 {
        fill: none;
      }

      .cls-2 {
        fill: url(#linear-gradient);
      }
    </style>
    <linearGradient id="linear-gradient" x1="0.152" y1="0.179" x2="0.845" y2="0.848" gradientUnits="objectBoundingBox">
      <stop offset="0" stop-color="#f3bc65"/>
      <stop offset="1" stop-color="#f05f5a"/>
    </linearGradient>
  </defs>
  <g id="Bounding_Boxes">
    <path id="Path_15063" data-name="Path 15063" class="cls-1" d="M0,0H40V40H0Z"/>
  </g>
  <g id="Rounded_1_" transform="translate(3.333 3.333)">
    <path id="Path_15064" data-name="Path 15064" class="cls-2" d="M18.667,10.333h0A1.672,1.672,0,0,0,17,12v5H12a1.672,1.672,0,0,0-1.667,1.667h0A1.672,1.672,0,0,0,12,20.333h5v5A1.672,1.672,0,0,0,18.667,27h0a1.672,1.672,0,0,0,1.667-1.667v-5h5A1.672,1.672,0,0,0,27,18.667h0A1.672,1.672,0,0,0,25.333,17h-5V12A1.672,1.672,0,0,0,18.667,10.333Zm0-8.333A16.667,16.667,0,1,0,35.333,18.667,16.673,16.673,0,0,0,18.667,2Zm0,30A13.333,13.333,0,1,1,32,18.667,13.351,13.351,0,0,1,18.667,32Z" transform="translate(-2 -2)"/>
  </g>
</svg>
