<svg id="Group_20141" data-name="Group 20141" xmlns="http://www.w3.org/2000/svg" viewBox="0 0 31.778 21.252">
  <defs>
    <style>
      .cls-1 {
        fill: #fefefe;
      }
    </style>
  </defs>
  <path id="Path_422" data-name="Path 422" class="cls-1" d="M1298.76,934.424l.2,4.411a2.264,2.264,0,0,1-1.1,1.8,8.444,8.444,0,0,1-3.308,1.3,20.55,20.55,0,0,1-9.022,0,8.442,8.442,0,0,1-3.308-1.3c-.8-.6-1.2-1.1-1.1-1.8l.2-4.411,7.919,2.506a1.486,1.486,0,0,0,.7.1,1.7,1.7,0,0,0,.7-.1Zm7.318-4.411c0,.2-.1.4-.3.4l-15.538,4.912h-.2l-9.022-2.907a3.57,3.57,0,0,0-1,1.5,8.519,8.519,0,0,0-.5,2.506,1.555,1.555,0,0,1,.9,1.5,1.9,1.9,0,0,1-.8,1.5l.8,6.015a.368.368,0,0,1-.1.3c-.1.1-.2.2-.3.2h-2.707c-.1,0-.2-.1-.3-.2a.369.369,0,0,1-.1-.3l.8-6.015a1.767,1.767,0,0,1-.8-1.5,1.555,1.555,0,0,1,.9-1.5,8.962,8.962,0,0,1,1.4-4.611l-4.611-1.4c-.2-.1-.3-.2-.3-.4s.1-.4.3-.4l15.538-4.912h.2l15.538,4.912C1305.977,929.612,1306.078,929.812,1306.078,930.013Z" transform="translate(-1274.3 -924.7)"/>
</svg>
