<svg xmlns="http://www.w3.org/2000/svg" viewBox="0 0 19.33 22.52"><defs><style>.cls-1{fill:#fff;}</style></defs><title>ico_audio</title><g id="Camada_2" data-name="Camada 2"><g id="Camada_1-2" data-name="Camada 1"><g id="Group_297" data-name="Group 297"><path id="Path_207" data-name="Path 207" class="cls-1" d="M18.42,4.74a2.85,2.85,0,0,1,.64,1,2.45,2.45,0,0,1,.27,1.1V21.33a.89.89,0,0,1-.37.82,1.1,1.1,0,0,1-.82.36H1.19a.88.88,0,0,1-.82-.36A1.11,1.11,0,0,1,0,21.33V1.18A.89.89,0,0,1,.37.36,1.11,1.11,0,0,1,1.19,0h11.3a2.41,2.41,0,0,1,1.09.27,3.71,3.71,0,0,1,1,.64Zm-5.56-3.1V6.38H17.6a1.51,1.51,0,0,0-.28-.55L13.41,1.91a1.66,1.66,0,0,0-.55-.27ZM17.69,21V8H12.41a.87.87,0,0,1-.82-.36,1.12,1.12,0,0,1-.37-.82V1.55H1.56V21ZM7.75,10.67c.19.09.28.18.28.36v6.84c0,.18-.09.27-.28.36H7.57a.33.33,0,0,1-.27-.09L5.2,16H3.56a.33.33,0,0,1-.37-.27V13.21a.33.33,0,0,1,.27-.36H5.2l2.1-2.1c.18-.08.27-.18.45-.08ZM13,19.32a.82.82,0,0,0,.64-.27,7,7,0,0,0,1.64-4.56,6.83,6.83,0,0,0-1.64-4.55.56.56,0,0,0-.55-.28.76.76,0,0,0-.64.19.75.75,0,0,0-.27.54.86.86,0,0,0,.18.64,5.59,5.59,0,0,1,0,7.11.89.89,0,0,0,.09,1.19ZM10.4,17.5a1,1,0,0,0,.64-.27,4.08,4.08,0,0,0,1.09-2.74A3.72,3.72,0,0,0,11,11.76a.79.79,0,0,0-.55-.27.91.91,0,0,0-.55.18.77.77,0,0,0-.27.55,1,1,0,0,0,.18.54,2.43,2.43,0,0,1,0,3.28c-.18.19-.27.37-.18.55a.79.79,0,0,0,.27.55c0,.27.18.36.46.36Z"/></g></g></g></svg>