<svg xmlns="http://www.w3.org/2000/svg" viewBox="0 0 19.63 19.22"><defs><style>.cls-1{fill:#f4bb64;}</style></defs><title>ico_portfolio-hv</title><g id="Camada_2" data-name="Camada 2"><g id="Camada_1-2" data-name="Camada 1"><path class="cls-1" d="M19.29,6.81,11.9,2.55V1.12A1.13,1.13,0,0,0,10.77,0H1.12A1.12,1.12,0,0,0,0,1.12V14A1.12,1.12,0,0,0,1.12,15.1H5.21l7,4a.68.68,0,0,0,.93-.25L19.54,7.75A.7.7,0,0,0,19.29,6.81ZM3.68,14.22H1.12A.24.24,0,0,1,.89,14V1.12A.24.24,0,0,1,1.12.89h9.65a.24.24,0,0,1,.24.23V14a.24.24,0,0,1-.24.24Z"/></g></g></svg>