<svg xmlns="http://www.w3.org/2000/svg" viewBox="0 0 16.04 19.24"><defs><style>.cls-1{fill:#f4bb64;}</style></defs><title>ico_bookmark-hv</title><g id="Camada_2" data-name="Camada 2"><g id="Camada_1-2" data-name="Camada 1"><g id="Group_149" data-name="Group 149"><path id="Path_59" data-name="Path 59" class="cls-1" d="M14.58,0a1.3,1.3,0,0,1,.55.09,1.26,1.26,0,0,1,.63.55,1.27,1.27,0,0,1,.28.82V17.69a1.52,1.52,0,0,1-.28.82,1.73,1.73,0,0,1-.63.54,1.05,1.05,0,0,1-.55.09,1.36,1.36,0,0,1-1-.36L8,13.4,2.46,18.78a1.46,1.46,0,0,1-1,.46,1.15,1.15,0,0,1-.55-.1,1.25,1.25,0,0,1-.64-.54A1.3,1.3,0,0,1,0,17.78V1.55A1.51,1.51,0,0,1,.27.73,1.85,1.85,0,0,1,.91.19,1,1,0,0,1,1.46.1H14.58Z"/></g></g></g></svg>