<svg xmlns="http://www.w3.org/2000/svg" viewBox="0 0 15.2 15.2"><defs><style>.cls-1{fill:#fff;}</style></defs><title>ico_atividades</title><g id="Camada_2" data-name="Camada 2"><g id="Camada_1-2" data-name="Camada 1"><g id="Group_242" data-name="Group 242"><path id="Path_152" data-name="Path 152" class="cls-1" d="M11.86,8.81H10.8a.76.76,0,0,1-.64-.64V6.89a.76.76,0,0,1,.64-.64h1.06A3.91,3.91,0,0,0,10.73,4.4,4.54,4.54,0,0,0,8.88,3.27V4.33A.76.76,0,0,1,8.24,5H7a.76.76,0,0,1-.64-.64V3.27A3.84,3.84,0,0,0,4.48,4.4,4.46,4.46,0,0,0,3.34,6.25H4.4A.74.74,0,0,1,5,6.89V8.17a.74.74,0,0,1-.64.64H3.34a3.78,3.78,0,0,0,1.14,1.84,4.36,4.36,0,0,0,1.84,1.14V10.73A.74.74,0,0,1,7,10.09H8.24a.74.74,0,0,1,.64.64v1.06A4.66,4.66,0,0,0,11.86,8.81ZM15.2,7V8.24a.76.76,0,0,1-.64.64H13.14a5.91,5.91,0,0,1-1.49,2.77,5.38,5.38,0,0,1-2.77,1.49v1.42a.76.76,0,0,1-.64.64H7a.76.76,0,0,1-.64-.64V13.14a5.91,5.91,0,0,1-2.77-1.49A5.38,5.38,0,0,1,2.06,8.88H.64A.76.76,0,0,1,0,8.24V7a.76.76,0,0,1,.64-.64H2.06A5.91,5.91,0,0,1,3.55,3.55,5.38,5.38,0,0,1,6.32,2.06V.64A.76.76,0,0,1,7,0H8.24a.76.76,0,0,1,.64.64V2.06a5.91,5.91,0,0,1,2.77,1.49,5.38,5.38,0,0,1,1.49,2.77h1.42a.63.63,0,0,1,.43.21A.49.49,0,0,1,15.2,7Z"/></g></g></g></svg>