<svg xmlns="http://www.w3.org/2000/svg" viewBox="0 0 22.52 22.63"><defs><style>.cls-1{fill:#fff;}</style></defs><title>ico_enviar</title><g id="Camada_2" data-name="Camada 2"><g id="Camada_1-2" data-name="Camada 1"><g id="Group_664" data-name="Group 664"><path id="Path_574" data-name="Path 574" class="cls-1" d="M22.15.21a.89.89,0,0,1,.37.82L19.33,20.44A.63.63,0,0,1,19,21a.5.5,0,0,1-.36.09.33.33,0,0,1-.27-.09l-6.66-2.73-3.73,4.1a.83.83,0,0,1-.64.27A.37.37,0,0,1,7,22.54a1.36,1.36,0,0,1-.36-.27c-.09-.19-.18-.28-.18-.46V16.07L.55,13.61A1,1,0,0,1,0,12.88a.72.72,0,0,1,.36-.73L21.33,0A.92.92,0,0,1,22.15.21ZM17.87,19.08,20.7,2.4l-18,10.39,4.28,1.73,10.85-8-6,10Z"/></g></g></g></svg>