<svg xmlns="http://www.w3.org/2000/svg" viewBox="0 0 19 19.08"><defs><style>.cls-1{fill:#fff;}</style></defs><title>ico_perfil</title><g id="Camada_2" data-name="Camada 2"><g id="Camada_1-2" data-name="Camada 1"><path id="Path_747" data-name="Path 747" class="cls-1" d="M9.5,0a8.51,8.51,0,0,1,3.68.77,10.48,10.48,0,0,1,3.06,2,9.46,9.46,0,0,1,2,10.42,10.35,10.35,0,0,1-2,3.06,9.79,9.79,0,0,1-3.06,2.07,8.81,8.81,0,0,1-3.68.77,8.51,8.51,0,0,1-3.68-.77,10.4,10.4,0,0,1-3.06-2.07,9.46,9.46,0,0,1-2-10.42,10.48,10.48,0,0,1,2-3.06,8.4,8.4,0,0,1,3.06-2A9.94,9.94,0,0,1,9.5,0Zm6.59,14.33A8,8,0,0,0,17.7,9.5a8.65,8.65,0,0,0-.62-3.14A8.27,8.27,0,0,0,12.71,2a7.36,7.36,0,0,0-3.14-.61A8.9,8.9,0,0,0,6.43,2,8.3,8.3,0,0,0,2.06,6.36,7.36,7.36,0,0,0,1.45,9.5a8,8,0,0,0,1.61,4.83q.69-3.45,3.22-3.45a4.61,4.61,0,0,0,6.53,0l0,0c1.62,0,2.77,1.15,3.23,3.45ZM13.56,7.51A3.86,3.86,0,0,0,12.33,4.6,4,4,0,0,0,9.42,3.37,3.88,3.88,0,0,0,6.51,4.6,4,4,0,0,0,5.29,7.51a3.85,3.85,0,0,0,1.22,2.91,4,4,0,0,0,2.91,1.22,3.85,3.85,0,0,0,2.91-1.22,4,4,0,0,0,1.23-2.91Z"/></g></g></svg>