<svg xmlns="http://www.w3.org/2000/svg" viewBox="0 0 21 14.05"><defs><style>.cls-1{fill:#fff;}</style></defs><title>ico_turma</title><g id="Camada_2" data-name="Camada 2"><g id="Camada_1-2" data-name="Camada 1"><g id="Group_365" data-name="Group 365"><path id="Path_275" data-name="Path 275" class="cls-1" d="M16.16,6.49l.14,2.92a1.53,1.53,0,0,1-.73,1.19,6.68,6.68,0,0,1-2.19.86,13.62,13.62,0,0,1-6,0,5.61,5.61,0,0,1-2.19-.86c-.53-.4-.79-.72-.72-1.19l.13-2.92L9.87,8.15a1.08,1.08,0,0,0,.47.07,1.2,1.2,0,0,0,.46-.07Zm4.84-3c0,.14-.07.27-.2.27L10.53,7H10.4l-6-1.92a2.34,2.34,0,0,0-.66,1,5.51,5.51,0,0,0-.34,1.65,1,1,0,0,1,.6,1,1.27,1.27,0,0,1-.53,1l.53,4a.23.23,0,0,1-.07.2c-.06.06-.13.13-.19.13H2c-.07,0-.13-.07-.2-.13a.26.26,0,0,1-.07-.2l.53-4a1.19,1.19,0,0,1-.53-1,1,1,0,0,1,.6-1,5.78,5.78,0,0,1,.93-3l-3-.93C.07,3.71,0,3.65,0,3.51s.07-.26.2-.26L10.46,0h.14L20.87,3.25a.33.33,0,0,1,.13.26Z"/></g></g></g></svg>