<svg xmlns="http://www.w3.org/2000/svg" viewBox="0 0 21.24 19.33"><defs><style>.cls-1{fill:#f4bb64;}</style></defs><title>ico_trofeu-hv</title><g id="Camada_2" data-name="Camada 2"><g id="Camada_1-2" data-name="Camada 1"><path id="Path_700" data-name="Path 700" class="cls-1" d="M6,9.57a10.91,10.91,0,0,1-.91-4.65H1.92V6.11a2.64,2.64,0,0,0,1.18,2A5.22,5.22,0,0,0,6,9.57ZM19.6,6.11V4.92H16.41a10.91,10.91,0,0,1-.91,4.65,6.57,6.57,0,0,0,3-1.46,2.79,2.79,0,0,0,1.09-2Zm1.64-1.64V6.11a3.58,3.58,0,0,1-.54,1.82,5,5,0,0,1-1.46,1.64,7.4,7.4,0,0,1-2.19,1.19,6.56,6.56,0,0,1-2.73.54,7.44,7.44,0,0,1-1.19,1.19,1.53,1.53,0,0,0-.64.91,5.07,5.07,0,0,0-.18,1.09,1.82,1.82,0,0,0,.37,1.19,1.26,1.26,0,0,0,1.18.45,2.56,2.56,0,0,1,1.64.55,1.76,1.76,0,0,1,.73,1.46V19a.31.31,0,0,1-.27.36H5.38A.31.31,0,0,1,5,19.05.14.14,0,0,1,5,19v-.82a1.9,1.9,0,0,1,.73-1.46,2.77,2.77,0,0,1,1.64-.55,1.42,1.42,0,0,0,1.18-.45,2.31,2.31,0,0,0,.37-1.19,3.37,3.37,0,0,0-.18-1.09,2.1,2.1,0,0,0-.64-.91A7.44,7.44,0,0,1,6.93,11.3a9.8,9.8,0,0,1-2.73-.54A12.21,12.21,0,0,1,2,9.57,5,5,0,0,1,.55,7.93,3.58,3.58,0,0,1,0,6.11V4.47a.87.87,0,0,1,.36-.82,1.09,1.09,0,0,1,.82-.37H4.84V2.1A2.17,2.17,0,0,1,6.94,0h7.29a2.18,2.18,0,0,1,2.1,2.1V3.29H20a.87.87,0,0,1,.82.36A1,1,0,0,1,21.24,4.47Z"/></g></g></svg>