<svg xmlns="http://www.w3.org/2000/svg" viewBox="0 0 17.78 17.78"><defs><style>.cls-1{fill:#f4bb64;}</style></defs><title>ico_blog-hv</title><g id="Camada_2" data-name="Camada 2"><g id="Camada_1-2" data-name="Camada 1"><g id="Group_858" data-name="Group 858"><path id="Path_768" data-name="Path 768" class="cls-1" d="M6.06,9.05v1.5H3.16V9.05Zm0-2.9V7.64H3.16V6.15Zm8.73,5.9v1.49H10.88V12.05Zm0-3v1.49H7.06V9.06Zm0-2.91V7.64H7.06V6.15ZM16.28,16V1.74c0-.08,0-.08-.08-.16S16.12,1.5,16,1.5H15.7L11.38,4.4,9,2.41l-2.41,2L2.24,1.5H1.91c-.08,0-.08,0-.16.08s-.08.08-.08.16V16c0,.09,0,.09.08.17s.08.08.16.08H16.2c.09,0,.09,0,.17-.08s-.09-.08-.09-.17ZM6.48,3.24,8.64,1.5H4Zm5,0L14,1.5H9.39Zm6.32-1.5V16a1.71,1.71,0,0,1-1.66,1.75H1.74A1.7,1.7,0,0,1,0,16.12V1.74A1.7,1.7,0,0,1,1.66,0H16a1.71,1.71,0,0,1,1.25.5,2,2,0,0,1,.5,1.24Z"/></g></g></g></svg>