<svg xmlns="http://www.w3.org/2000/svg" viewBox="0 0 17.19 15.31"><defs><style>.cls-1{fill:#f4bb64;}</style></defs><title>ico_bandeira-hv</title><g id="Camada_2" data-name="Camada 2"><g id="Camada_1-2" data-name="Camada 1"><g id="Group_331" data-name="Group 331"><path id="Path_241" data-name="Path 241" class="cls-1" d="M2.53,1.3a1.12,1.12,0,0,1-.65,1.08V15a.26.26,0,0,1-.22.29H.94a.26.26,0,0,1-.29-.22V2.38A1.28,1.28,0,0,1,0,1.3,1.55,1.55,0,0,1,.36.36,1.41,1.41,0,0,1,1.3,0a1.52,1.52,0,0,1,.94.36A2.11,2.11,0,0,1,2.53,1.3ZM17.18,2V9.6A.55.55,0,0,1,17,10a2,2,0,0,1-.36.29A7.88,7.88,0,0,1,13,11.41a3.43,3.43,0,0,1-1.23-.22,3.8,3.8,0,0,1-1.08-.5,8.51,8.51,0,0,0-1.16-.51A4.41,4.41,0,0,0,8.09,10a10.38,10.38,0,0,0-4.63,1.44.63.63,0,0,1-.36.07.77.77,0,0,1-.65-.65V3.4a.76.76,0,0,1,.29-.58,7.75,7.75,0,0,0,.79-.44A9.67,9.67,0,0,1,7.72,1.16a6,6,0,0,1,2,.29c.74.25,1.46.54,2.17.86a1.9,1.9,0,0,0,.87.22,3.5,3.5,0,0,0,1.15-.22A4,4,0,0,0,15,1.81c.28-.15.57-.36.86-.51a1.52,1.52,0,0,1,.58-.22.64.64,0,0,1,.43.22c.22.36.3.51.3.65Z"/></g></g></g></svg>