<svg xmlns="http://www.w3.org/2000/svg" viewBox="0 0 22.71 17.87"><defs><style>.cls-1{fill:#f4bb64;}</style></defs><title>ico_email-hv</title><g id="Camada_2" data-name="Camada 2"><g id="Camada_1-2" data-name="Camada 1"><g id="Group_276" data-name="Group 276"><path id="Path_186" data-name="Path 186" class="cls-1" d="M22.7,5.75v10a2,2,0,0,1-.64,1.46,2.18,2.18,0,0,1-1.46.64H2.1a1.92,1.92,0,0,1-1.46-.64A2.16,2.16,0,0,1,0,15.77v-10A4.61,4.61,0,0,0,1.28,6.84Q5.78,10,7.57,11.22c.45.36.91.64,1.18.82s.73.36,1.18.64A2.72,2.72,0,0,0,11.3,13h0A4.62,4.62,0,0,0,13.85,12c.28-.18.73-.46,1.19-.82,1.46-1,3.55-2.46,6.29-4.38A9,9,0,0,0,22.7,5.75ZM22.7,2a3.33,3.33,0,0,1-.64,1.92,6.52,6.52,0,0,1-1.55,1.55c-3.19,2.18-5.1,3.55-5.93,4.1a5.07,5.07,0,0,1-.54.36c-.28.18-.46.37-.64.46a4,4,0,0,1-.64.36,2.79,2.79,0,0,1-.73.37,1.71,1.71,0,0,1-.64.09h0a1.69,1.69,0,0,1-.63-.09,2.79,2.79,0,0,1-.73-.37,5.79,5.79,0,0,0-.64-.36c-.18-.09-.37-.28-.64-.46s-.46-.36-.55-.36C7.47,9,6.38,8.3,4.92,7.3S2.64,5.66,2.37,5.47A5.59,5.59,0,0,1,.91,4,3.19,3.19,0,0,1,.18,2.28,2.58,2.58,0,0,1,.73.64,1.71,1.71,0,0,1,2.19,0H20.78a2,2,0,0,1,1.46.64A1.62,1.62,0,0,1,22.7,2Z"/></g></g></g></svg>