<svg xmlns="http://www.w3.org/2000/svg" viewBox="0 0 10.1 18.49"><defs><style>.cls-1{fill:#fff;}</style></defs><title>ico_raio</title><g id="Camada_2" data-name="Camada 2"><g id="Camada_1-2" data-name="Camada 1"><g id="Group_332" data-name="Group 332"><path id="Path_242" data-name="Path 242" class="cls-1" d="M10,4.9a.4.4,0,0,1,.08.49L4,18.25a.49.49,0,0,1-.49.24H3.37c-.16,0-.24-.08-.32-.24A.51.51,0,0,1,3,17.93l2.17-9L.64,10.05H.48a.42.42,0,0,1-.32-.16C0,9.81,0,9.65,0,9.49L2.25.32c0-.08.08-.16.16-.24S2.57,0,2.73,0H6.35a.4.4,0,0,1,.32.16.58.58,0,0,1,.16.32c0,.08,0,.16-.08.16L4.82,5.79,9.24,4.66H9.4A1.45,1.45,0,0,1,10,4.9Z"/></g></g></g></svg>