<svg xmlns="http://www.w3.org/2000/svg" viewBox="0 0 20.78 22.6"><defs><style>.cls-1{fill:#fff;}</style></defs><title>ico_notificar</title><g id="Camada_2" data-name="Camada 2"><g id="Camada_1-2" data-name="Camada 1"><g id="Group_135" data-name="Group 135"><path id="Path_45" data-name="Path 45" class="cls-1" d="M10.48,21.42a.19.19,0,0,0-.18-.18,1.86,1.86,0,0,1-1.82-1.82.19.19,0,1,0-.37,0,2.18,2.18,0,0,0,2.17,2.18h0A.19.19,0,0,0,10.48,21.42Zm10.3-3.64a1.5,1.5,0,0,1-.45,1.09,1.47,1.47,0,0,1-1.1.46H13.58a3.19,3.19,0,1,1-6.38.15v-.15H1.55a1.53,1.53,0,0,1-1.09-.46A1.45,1.45,0,0,1,0,17.78a15.5,15.5,0,0,0,1.19-1.1,8,8,0,0,0,1.09-1.55,13.34,13.34,0,0,0,.91-2,14.22,14.22,0,0,0,.64-2.65A18.94,18.94,0,0,0,4.1,7.2,5.12,5.12,0,0,1,5.56,3.65a6.52,6.52,0,0,1,3.83-2,.89.89,0,0,1-.09-.45A.87.87,0,0,1,9.66.37,1.09,1.09,0,0,1,10.48,0a1,1,0,0,1,.82.37,1.11,1.11,0,0,1,.37.82.71.71,0,0,1-.09.45,6,6,0,0,1,3.82,2A5.52,5.52,0,0,1,16.86,7.2a18.94,18.94,0,0,0,.27,3.28,17.34,17.34,0,0,0,.64,2.65,14.43,14.43,0,0,0,.91,2,10.59,10.59,0,0,0,1.1,1.55,3.75,3.75,0,0,0,1,1.1Z"/></g></g></g></svg>