<svg xmlns="http://www.w3.org/2000/svg" viewBox="0 0 22.59 20.88"><defs><style>.cls-1{fill:#f4bb64;}</style></defs><title>ico_atencao-hv</title><g id="Camada_2" data-name="Camada 2"><g id="Camada_1-2" data-name="Camada 1"><g id="Group_327" data-name="Group 327"><path id="Path_237" data-name="Path 237" class="cls-1" d="M12.91,17.32V15a.32.32,0,0,0-.27-.36H10.08a.32.32,0,0,0-.36.27.14.14,0,0,0,0,.09v2.37a.32.32,0,0,0,.27.37h2.55a.33.33,0,0,0,.37-.27Zm0-4.74.18-5.83A.33.33,0,0,0,13,6.48c-.09-.09-.18-.19-.27-.19H10c-.09,0-.18.1-.27.19a.33.33,0,0,0-.09.27l.18,5.74c0,.09,0,.18.09.18a.34.34,0,0,0,.27.1h2.37a.37.37,0,0,0,.28-.1c0,.1.09,0,.09-.08ZM12.73.83,22.39,18.6a1.58,1.58,0,0,1,0,1.55,1.61,1.61,0,0,1-.55.55,2.32,2.32,0,0,1-.82.18H1.61a2.87,2.87,0,0,1-.82-.18,1.09,1.09,0,0,1-.55-.55,1.37,1.37,0,0,1,0-1.55L9.9.83a2.06,2.06,0,0,1,.64-.64A1.31,1.31,0,0,1,11.36,0a2.32,2.32,0,0,1,.82.18,3.78,3.78,0,0,1,.55.64Z"/></g></g></g></svg>