<svg xmlns="http://www.w3.org/2000/svg" viewBox="0 0 19 15.03"><defs><style>.cls-1{fill:#f4bb64;}</style></defs><title>ico_home-hv</title><g id="Camada_2" data-name="Camada 2"><g id="Camada_1-2" data-name="Camada 1"><g id="Group_542" data-name="Group 542"><path id="Path_452" data-name="Path 452" class="cls-1" d="M16.3,8.7v5.57a.89.89,0,0,1-.76.76H11.06V10.56h-3V15H3.63a.89.89,0,0,1-.76-.76V8.7h0L9.63,3.12,16.3,8.7Zm2.53-.84-.76.84c-.08.09-.17.09-.25.17h0a.32.32,0,0,1-.25-.08L9.46,2,1.35,8.79a.33.33,0,0,1-.25.08C1,8.87.93,8.79.85,8.7L.09,7.86A.3.3,0,0,1,0,7.61c0-.09.09-.17.17-.26l8.45-7A1.55,1.55,0,0,1,9.54,0a1.18,1.18,0,0,1,.93.34l2.87,2.37V.43a.3.3,0,0,1,.25-.34H16a.31.31,0,0,1,.34.25V5.15l2.53,2.11c.09.09.09.17.17.26C18.92,7.69,18.92,7.77,18.83,7.86Z"/></g></g></g></svg>