<svg xmlns="http://www.w3.org/2000/svg" viewBox="0 0 19.33 22.52"><defs><style>.cls-1{fill:#fff;}</style></defs><title>ico_pdf</title><g id="Camada_2" data-name="Camada 2"><g id="Camada_1-2" data-name="Camada 1"><g id="Group_303" data-name="Group 303"><path id="Path_213" data-name="Path 213" class="cls-1" d="M18.42,4.74a2.85,2.85,0,0,1,.64,1,2.59,2.59,0,0,1,.27,1.1V21.33a.91.91,0,0,1-.37.82,1.1,1.1,0,0,1-.82.36H1.19a.88.88,0,0,1-.82-.36A1.11,1.11,0,0,1,0,21.33V1.18A.89.89,0,0,1,.37.36,1.11,1.11,0,0,1,1.19,0h11.3a2.41,2.41,0,0,1,1.09.27,3.71,3.71,0,0,1,1,.64Zm-5.65-3.1V6.38h4.74a1.68,1.68,0,0,0-.28-.55L13.31,1.91a1.52,1.52,0,0,0-.54-.27ZM17.69,21V8H12.41a.87.87,0,0,1-.82-.36,1.61,1.61,0,0,1-.37-.82V1.55H1.56V21Zm-6.56-7.48c.27.18.63.46,1.09.73a7.9,7.9,0,0,1,1.46-.09c1.27,0,2,.18,2.19.64a.57.57,0,0,1,0,.64h0c-.1.36-.37.45-.92.45a5.16,5.16,0,0,1-1.45-.27A11.62,11.62,0,0,1,11.86,15a25.22,25.22,0,0,0-4.93,1c-1.27,2.19-2.28,3.28-3,3.28a.6.6,0,0,1-.37-.09L3.29,19l-.09-.09a.62.62,0,0,1-.09-.46,2.37,2.37,0,0,1,.72-1.18A4.75,4.75,0,0,1,5.48,16c.09-.09.18-.09.27.09v.09c.45-.73.91-1.55,1.37-2.46a21.39,21.39,0,0,0,1.27-3.28,8.49,8.49,0,0,1-.36-2,4.58,4.58,0,0,1,.09-1.65q.14-.54.54-.54h.28a.67.67,0,0,1,.45.18c.19.18.19.46.09.82,0,.09,0,.09-.09.09v.46a17,17,0,0,1-.18,2.46,7.32,7.32,0,0,0,1.92,3.19Zm-7.2,5.2a5.79,5.79,0,0,0,1.73-2,6,6,0,0,0-1.1,1.09,1.9,1.9,0,0,0-.64.91ZM8.94,7a4.58,4.58,0,0,0,0,1.65A1.67,1.67,0,0,1,9,8.12a2.53,2.53,0,0,1,.09-.55.09.09,0,0,1,.09-.09h0A2.13,2.13,0,0,0,8.94,7ZM7.39,15.41a15.63,15.63,0,0,1,3.55-1,.31.31,0,0,0-.18-.09c-.09-.09-.18-.09-.18-.18A6.78,6.78,0,0,1,8.94,12a12.82,12.82,0,0,1-1,2.46,3.85,3.85,0,0,0-.55,1Zm8.11-.18A3.22,3.22,0,0,0,13.77,15a4.13,4.13,0,0,0,1.55.36.31.31,0,0,1,.18-.09Z"/></g></g></g></svg>