<svg xmlns="http://www.w3.org/2000/svg" viewBox="0 0 22.61 22.61"><defs><style>.cls-1{fill:#fff;}</style></defs><title>ico_suporte</title><g id="Camada_2" data-name="Camada 2"><g id="Camada_1-2" data-name="Camada 1"><g id="Group_450" data-name="Group 450"><path id="Path_360" data-name="Path 360" class="cls-1" d="M11.3,0a10.31,10.31,0,0,1,4.38.91,12.74,12.74,0,0,1,3.65,2.37A10.28,10.28,0,0,1,21.7,6.93a12.16,12.16,0,0,1,.91,4.37,10.31,10.31,0,0,1-.91,4.38,12.76,12.76,0,0,1-2.37,3.64,10,10,0,0,1-3.65,2.37,12,12,0,0,1-4.38.92,10.15,10.15,0,0,1-4.37-.92,12.53,12.53,0,0,1-3.65-2.37A11.3,11.3,0,0,1,.91,6.92,12.9,12.9,0,0,1,3.28,3.28,10,10,0,0,1,6.93.91,12.16,12.16,0,0,1,11.3,0Zm0,1.64a9.89,9.89,0,0,0-4.55,1.1L9.21,5.2a5.57,5.57,0,0,1,2.1-.37,5.38,5.38,0,0,1,2.1.37l2.46-2.46A10.22,10.22,0,0,0,11.3,1.64ZM2.74,15.86,5.2,13.4a5.77,5.77,0,0,1-.36-2.1A5.37,5.37,0,0,1,5.2,9.2L2.74,6.74A9.89,9.89,0,0,0,1.65,11.3a8.84,8.84,0,0,0,1.09,4.56ZM11.3,21a9.89,9.89,0,0,0,4.56-1.09L13.4,17.41a5.57,5.57,0,0,1-2.1.37,5.41,5.41,0,0,1-2.1-.37L6.74,19.87A9.93,9.93,0,0,0,11.3,21Zm0-4.83a4.61,4.61,0,0,0,3.47-1.46,4.85,4.85,0,0,0,1.46-3.46,4.68,4.68,0,0,0-1.46-3.47A4.81,4.81,0,0,0,11.3,6.29,4.62,4.62,0,0,0,7.84,7.74a4.86,4.86,0,0,0-1.46,3.47A5,5,0,0,0,11.3,16.13Zm6.11-2.73,2.46,2.46a10,10,0,0,0,0-9.12L17.41,9.2a5.81,5.81,0,0,1,.37,2.1,7.85,7.85,0,0,1-.37,2.1Z"/></g></g></g></svg>