<svg xmlns="http://www.w3.org/2000/svg" viewBox="0 0 20.88 21.06"><defs><style>.cls-1{fill:#f4bb64;}</style></defs><title>ico_busca-hv</title><g id="Camada_2" data-name="Camada 2"><g id="Camada_1-2" data-name="Camada 1"><g id="Group_675" data-name="Group 675"><path id="Path_585" data-name="Path 585" class="cls-1" d="M14.4,8.93a5.6,5.6,0,1,0-1.64,4A5.47,5.47,0,0,0,14.4,8.93Zm6.47,10.58a1.5,1.5,0,0,1-.45,1.09,1.73,1.73,0,0,1-1.1.46,1.55,1.55,0,0,1-1.09-.46L14,16.32a8.77,8.77,0,0,1-8.48.82A9,9,0,0,1,.73,12.4a8.62,8.62,0,0,1,0-6.93A9,9,0,0,1,5.47.73a8.62,8.62,0,0,1,6.93,0,9,9,0,0,1,4.74,4.74,9.32,9.32,0,0,1,.73,3.46,8.91,8.91,0,0,1-1.55,5l4.28,4.28a6.08,6.08,0,0,1,.28,1.28Z"/></g></g></g></svg>