<svg xmlns="http://www.w3.org/2000/svg" viewBox="0 0 19.33 22.52"><defs><style>.cls-1{fill:#f4bb64;}</style></defs><title>ico_zipado-hv</title><g id="Camada_2" data-name="Camada 2"><g id="Camada_1-2" data-name="Camada 1"><g id="Group_296" data-name="Group 296"><path id="Path_206" data-name="Path 206" class="cls-1" d="M8,4.83V3.19H6.38V4.83ZM9.58,6.38V4.74H7.93V6.38ZM8,8V6.38H6.38V8ZM9.58,9.66V8H7.93V9.66Zm8.84-4.92a2.85,2.85,0,0,1,.64,1,2.45,2.45,0,0,1,.27,1.1V21.33a.89.89,0,0,1-.37.82,1.1,1.1,0,0,1-.82.36H1.19a.88.88,0,0,1-.82-.36A1.11,1.11,0,0,1,0,21.33V1.18A.89.89,0,0,1,.37.36,1.11,1.11,0,0,1,1.19,0h11.3a2.41,2.41,0,0,1,1.09.27,3.71,3.71,0,0,1,1,.64Zm-5.56-3.1V6.38H17.6a1.68,1.68,0,0,0-.28-.55L13.4,1.91ZM17.69,21V8H12.4a.89.89,0,0,1-.82-.36,1.11,1.11,0,0,1-.36-.82V1.55H9.58V3.19H7.94V1.55H1.47V21ZM9.76,11.85l1.37,4.38a1.69,1.69,0,0,1,.09.63,2,2,0,0,1-.91,1.74A3.77,3.77,0,0,1,8,19.32a3.59,3.59,0,0,1-2.28-.72,2,2,0,0,1-.91-1.74,1.36,1.36,0,0,1,.09-.63c.18-.55.63-2.19,1.55-5V9.57H8.12v1.64h1a.63.63,0,0,1,.64.61v0ZM8,17.68a2.43,2.43,0,0,0,1.18-.27c.37-.18.46-.37.46-.55s-.18-.36-.46-.54A2.31,2.31,0,0,0,8,16a2.57,2.57,0,0,0-1.19.28c-.27.18-.45.36-.45.54s.18.37.45.55A2.45,2.45,0,0,0,8,17.68Z"/></g></g></g></svg>