<svg xmlns="http://www.w3.org/2000/svg" viewBox="0 0 17.37 16.14"><defs><style>.cls-1{fill:#fff;}</style></defs><title>ico_grupo</title><g id="Camada_2" data-name="Camada 2"><g id="Camada_1-2" data-name="Camada 1"><g id="Group_845" data-name="Group 845"><path id="Path_755" data-name="Path 755" class="cls-1" d="M5.4,8A3,3,0,0,0,3,9.18H1.76A1.89,1.89,0,0,1,.52,8.79a1.28,1.28,0,0,1-.52-1C0,5.6.39,4.56,1.11,4.56a1,1,0,0,1,.39.19,4.56,4.56,0,0,0,.84.39,3.42,3.42,0,0,0,1,.2,3.55,3.55,0,0,0,1.17-.2c0,.2-.06.39-.06.59A6.23,6.23,0,0,0,5.4,8Zm9.69,5.79a2.12,2.12,0,0,1-.65,1.7,2.67,2.67,0,0,1-1.75.65H4.82a2.39,2.39,0,0,1-1.76-.65,2.2,2.2,0,0,1-.65-1.7v-.91a4.61,4.61,0,0,1,.13-1,4.89,4.89,0,0,1,.26-1,1.86,1.86,0,0,1,.39-.84,3.39,3.39,0,0,1,.58-.72,1.61,1.61,0,0,1,.79-.45,2.51,2.51,0,0,1,1-.2,1,1,0,0,1,.39.2l.65.45a6.75,6.75,0,0,0,1,.46A3.68,3.68,0,0,0,8.78,10,4,4,0,0,0,10,9.83a3.26,3.26,0,0,0,1-.46,6.87,6.87,0,0,0,.65-.45.91.91,0,0,1,.39-.2,2.17,2.17,0,0,1,1,.2,2.88,2.88,0,0,1,.78.45,8.06,8.06,0,0,1,.59.72,4.56,4.56,0,0,1,.39.84c.06.33.19.65.26,1a5.38,5.38,0,0,1,.13,1,2,2,0,0,0-.06.91ZM5.85,2.28A2.22,2.22,0,1,1,3.69,0,2.2,2.2,0,0,1,5.2.65,2.4,2.4,0,0,1,5.85,2.28Zm6.32,3.45a3.5,3.5,0,0,1-6,2.47,3.43,3.43,0,0,1-1-2.47,3.31,3.31,0,0,1,1-2.48,3.47,3.47,0,0,1,2.47-1A3.58,3.58,0,0,1,12.17,5.73Zm5.2,2a1.18,1.18,0,0,1-.52,1,1.91,1.91,0,0,1-1.24.39H14.38A3.44,3.44,0,0,0,12,8a4.17,4.17,0,0,0,.71-2.27,1.94,1.94,0,0,0-.06-.59,3.6,3.6,0,0,0,1.17.2,3.05,3.05,0,0,0,1-.2,4.65,4.65,0,0,0,.85-.39.89.89,0,0,1,.39-.19c.91,0,1.3,1,1.3,3.18ZM16.2,2.28A2.22,2.22,0,1,1,15.55.65a2.13,2.13,0,0,1,.65,1.63Z"/></g></g></g></svg>