<svg xmlns="http://www.w3.org/2000/svg" viewBox="0 0 19.33 22.52"><defs><style>.cls-1{fill:#fff;}</style></defs><title>ico_excel</title><g id="Camada_2" data-name="Camada 2"><g id="Camada_1-2" data-name="Camada 1"><g id="Group_299" data-name="Group 299"><path id="Path_209" data-name="Path 209" class="cls-1" d="M18.42,4.74a2.85,2.85,0,0,1,.64,1,2.45,2.45,0,0,1,.27,1.1V21.33a.89.89,0,0,1-.37.82,1.1,1.1,0,0,1-.82.36H1.19a.88.88,0,0,1-.82-.36A1.11,1.11,0,0,1,0,21.33V1.18A.89.89,0,0,1,.37.36,1.11,1.11,0,0,1,1.19,0h11.3a2.41,2.41,0,0,1,1.09.27,3.71,3.71,0,0,1,1,.64Zm-5.56-3.1V6.38H17.6a1.51,1.51,0,0,0-.28-.55L13.4,1.91ZM17.69,21V8H12.41a.87.87,0,0,1-.82-.36,1.61,1.61,0,0,1-.37-.82V1.55H1.56V21ZM5.29,18v1.36H8.84V18H7.93l1.28-2c0-.09.09-.09.09-.18s.09-.09.09-.18V15.5h0l.18.18.09.09.09.09,1.37,2h-1v1.36h3.65V17.87H13L10.49,14.4,13,10.85h.82V9.48H10.21v1.37h.91l-1.27,2c0,.09-.09.09-.09.18s-.09.1-.09.19h0a.09.09,0,0,0-.09-.09h0c-.09-.1-.09-.19-.18-.28L8,10.85H9V9.48H5.38v1.37H6.2l2.37,3.46L6.11,17.87H5.29Z"/></g></g></g></svg>