<svg xmlns="http://www.w3.org/2000/svg" viewBox="0 0 12.93 16.96"><defs><style>.cls-1{fill:#f4bb64;}</style></defs><title>ico_marcador-hv</title><g id="Camada_2" data-name="Camada 2"><g id="Camada_1-2" data-name="Camada 1"><g id="Group_761" data-name="Group 761"><path id="Path_671" data-name="Path 671" class="cls-1" d="M5.76,7.74,7.19,3.47A.28.28,0,0,0,7,3.09a.28.28,0,0,0-.38.15s0,0,0,0L5.21,7.55a.3.3,0,0,0,.21.38.34.34,0,0,0,.2,0A.36.36,0,0,0,5.76,7.74ZM11,13.26a.79.79,0,0,1-.83.41L6.13,12.3l-2,4.45c0,.07-.11.11-.14.18a.24.24,0,0,1-.23,0h0a.27.27,0,0,1-.2-.32s0,0,0-.05l.8-4.86L.42,10.38A.78.78,0,0,1,0,9.55,3.65,3.65,0,0,1,1.49,7.68a2.23,2.23,0,0,1,2-.39L5.17,2.41a1.21,1.21,0,0,1-.71-.62A1.14,1.14,0,0,1,4.4.85,1.27,1.27,0,0,1,5,.14,1.14,1.14,0,0,1,6,.07l6.12,2.06a1.21,1.21,0,0,1,.71.62,1.15,1.15,0,0,1,.07.94,1.33,1.33,0,0,1-.63.71,1.14,1.14,0,0,1-.94.07L9.65,9.35A2.46,2.46,0,0,1,11,10.9a4.3,4.3,0,0,1,0,2.36Z"/></g></g></g></svg>