<svg xmlns="http://www.w3.org/2000/svg" viewBox="0 0 19.28 15.85"><defs><style>.cls-1{fill:#fff;}</style></defs><title>ico_starb</title><g id="Camada_2" data-name="Camada 2"><g id="Camada_1-2" data-name="Camada 1"><path class="cls-1" d="M17.53,0H1.75A1.76,1.76,0,0,0,0,1.75V14.1a1.76,1.76,0,0,0,1.75,1.75H17.53a1.76,1.76,0,0,0,1.75-1.75V1.75A1.76,1.76,0,0,0,17.53,0Zm.25,14.1a.26.26,0,0,1-.25.25H1.75a.25.25,0,0,1-.25-.25V1.75a.25.25,0,0,1,.25-.25H17.53a.25.25,0,0,1,.25.25Z"/><path class="cls-1" d="M13.28,6.87l-2.34-.33-1-2.14c-.06-.13-.13-.2-.23-.2s-.17.07-.24.2L8.37,6.54,6,6.87a.25.25,0,0,0-.27.21.34.34,0,0,0,.11.23L7.56,9l-.41,2.34v.1a.2.2,0,0,0,.17.24.48.48,0,0,0,.2-.07l2.1-1.12,2.1,1.12a.48.48,0,0,0,.2.07.21.21,0,0,0,.14-.07.25.25,0,0,0,0-.17v-.1L11.69,9l1.69-1.66a.34.34,0,0,0,.13-.23A.23.23,0,0,0,13.28,6.87Z"/></g></g></svg>