<svg xmlns="http://www.w3.org/2000/svg" viewBox="0 0 18.29 12.91"><defs><style>.cls-1{fill:#f4bb64;}</style></defs><title>ico_turma2-hv</title><g id="Camada_2" data-name="Camada 2"><g id="Camada_1-2" data-name="Camada 1"><path class="cls-1" d="M17.92.27A.77.77,0,0,0,17.38,0a1.81,1.81,0,0,0-.71.27c-.36.18-.72.45-1.08.63a4.8,4.8,0,0,1-1.34.62,4.43,4.43,0,0,1-1.44.27,2.24,2.24,0,0,1-1.07-.27C10.86,1.12,10,.76,9.05.45A7.63,7.63,0,0,0,6.54.09a11.91,11.91,0,0,0-5.2,1.52c-.44.27-.8.45-1,.54A.92.92,0,0,0,0,2.87V12.1a1,1,0,0,0,.81.8.68.68,0,0,0,.44-.09A13.09,13.09,0,0,1,7,11a6,6,0,0,1,1.79.27,11.43,11.43,0,0,1,1.44.63,4.42,4.42,0,0,0,1.34.62,4.39,4.39,0,0,0,1.52.27,9.74,9.74,0,0,0,4.57-1.43A2,2,0,0,0,18.1,11a.67.67,0,0,0,.18-.45V1.07h0C18.29.89,18.19.72,17.92.27ZM11.7,2.4a1.08,1.08,0,0,1,1.05,1.09h0a1.06,1.06,0,0,1-1.09,1,1.09,1.09,0,0,1-1.05-1.1A1.07,1.07,0,0,1,11.7,2.4ZM9.11,3.46a1.72,1.72,0,0,1,1.69,1.7A1.68,1.68,0,0,1,7.92,6.35a1.65,1.65,0,0,1-.5-1.19A1.6,1.6,0,0,1,7.92,4,1.66,1.66,0,0,1,9.11,3.46ZM6.72,2.4a1.07,1.07,0,0,1,.73.31,1.18,1.18,0,0,1,.31.78,1.07,1.07,0,1,1-2.14-.05A1.06,1.06,0,0,1,6.72,2.4ZM5.19,6.63a.62.62,0,0,1-.25-.5c0-1,.19-1.54.53-1.54a.44.44,0,0,1,.19.1,3,3,0,0,0,.41.18,1.71,1.71,0,0,0,.5.1,1.54,1.54,0,0,0,.56-.1c0,.1,0,.19,0,.29a3.25,3.25,0,0,0,.44,1.09,1.47,1.47,0,0,0-1.16.57H5.79A.92.92,0,0,1,5.19,6.63Zm7,2.41h0a1,1,0,0,1-.31.82,1.33,1.33,0,0,1-.85.31H7.26a1.17,1.17,0,0,1-.85-.31A1.08,1.08,0,0,1,6.1,9V8.6a4,4,0,0,1,.06-.47,2.75,2.75,0,0,1,.13-.47.92.92,0,0,1,.19-.4,1.35,1.35,0,0,1,.28-.35.78.78,0,0,1,.37-.22A1.27,1.27,0,0,1,7.6,6.6a.56.56,0,0,1,.19.09l.32.22a2.52,2.52,0,0,0,.47.22,1.7,1.7,0,0,0,.59.1,2.51,2.51,0,0,0,.6-.1,1.82,1.82,0,0,0,.47-.22,2.18,2.18,0,0,0,.31-.22.66.66,0,0,1,.19-.09,1.09,1.09,0,0,1,.47.09,1.72,1.72,0,0,1,.37.22,3.17,3.17,0,0,1,.29.35,2.93,2.93,0,0,1,.19.4c0,.16.09.32.12.47a2,2,0,0,1,.06.47A1.11,1.11,0,0,0,12.21,9Zm1.1-2.91a.58.58,0,0,1-.25.5,1,1,0,0,1-.6.19h-.59a1.7,1.7,0,0,0-1.16-.57,2.09,2.09,0,0,0,.34-1.09,1,1,0,0,0,0-.29,1.54,1.54,0,0,0,.56.1,1.24,1.24,0,0,0,.5-.1,2.54,2.54,0,0,0,.41-.18.5.5,0,0,1,.19-.1c.44,0,.63.5.63,1.54Z"/></g></g></svg>