<svg xmlns="http://www.w3.org/2000/svg" viewBox="0 0 10.76 16.56"><defs><style>.cls-1{fill:#fff;}</style></defs><title>ico_ideia</title><g id="Camada_2" data-name="Camada 2"><g id="Camada_1-2" data-name="Camada 1"><g id="Group_451" data-name="Group 451"><path id="Path_361" data-name="Path 361" class="cls-1" d="M7.62,4.82a.3.3,0,0,1-.28.34A.31.31,0,0,1,7,4.88V4.82a.79.79,0,0,0-.54-.77,3.35,3.35,0,0,0-1.17-.24A.31.31,0,0,1,5,3.53a.32.32,0,0,1,.29-.34h0a5.73,5.73,0,0,1,1.09.16,1.8,1.8,0,0,1,.93.54A1.57,1.57,0,0,1,7.62,4.82Zm1.71,0A3.15,3.15,0,0,0,9,3.35,3.19,3.19,0,0,0,8,2.26a4.09,4.09,0,0,0-1.32-.7,4.8,4.8,0,0,0-2.95,0,4.24,4.24,0,0,0-1.33.7,3.06,3.06,0,0,0-.93,1.09,3.16,3.16,0,0,0-.39,1.47,3,3,0,0,0,.7,1.95c.08.08.16.23.31.39a4.23,4.23,0,0,1,.31.39A6.4,6.4,0,0,1,4,10.73H6.46A5.73,5.73,0,0,1,8,7.55c.08-.08.16-.24.31-.39a3.88,3.88,0,0,0,.31-.39A3.09,3.09,0,0,0,9.33,4.82Zm1.4,0A5.25,5.25,0,0,1,9.64,7.7c-.31.39-.62.7-.77.93s-.39.63-.63,1a3.37,3.37,0,0,0-.38,1.16,1.05,1.05,0,0,1,.54.85,1.3,1.3,0,0,1-.23.7,1,1,0,0,1,.23.7.9.9,0,0,1-.47.86,1.13,1.13,0,0,1,.16.54.92.92,0,0,1-.31.78,1.36,1.36,0,0,1-.86.23,3.09,3.09,0,0,1-.62.78,2.18,2.18,0,0,1-.93.31,1.53,1.53,0,0,1-.93-.31,1.52,1.52,0,0,0-1.48-1,.91.91,0,0,1-.31-.78,1.67,1.67,0,0,1,.15-.54,1,1,0,0,1-.46-.86,1.2,1.2,0,0,1,.23-.7.93.93,0,0,1-.23-.7.84.84,0,0,1,.54-.85,2.33,2.33,0,0,0-.39-1.17l-.62-1a6.86,6.86,0,0,0-.78-.93A3.94,3.94,0,0,1,0,4.82a4.57,4.57,0,0,1,.47-2A6.22,6.22,0,0,1,1.71,1.25,4.41,4.41,0,0,1,3.5.31a5.86,5.86,0,0,1,2-.31,6.31,6.31,0,0,1,2,.31A4.37,4.37,0,0,1,10.73,4.82Z"/></g></g></g></svg>