<svg xmlns="http://www.w3.org/2000/svg" viewBox="0 0 21.74 14.86"><defs><style>.cls-1{fill:#f4bb64;}</style></defs><title>ico_livro-hv</title><g id="Camada_2" data-name="Camada 2"><g id="Camada_1-2" data-name="Camada 1"><path class="cls-1" d="M15,2.53h-.32a4.44,4.44,0,0,0-2.45.74l-1.38.91L9.5,3.27A4.58,4.58,0,0,0,7,2.52H6.7A7.59,7.59,0,0,0,4,3.05L3,11.43a11.67,11.67,0,0,1,3.88-.7h.31a7.76,7.76,0,0,1,3.76,1,8,8,0,0,1,3.83-1h.21a12.86,12.86,0,0,1,3.86.71L17.79,3A7.48,7.48,0,0,0,15,2.53Z"/><path class="cls-1" d="M20.13,1.38A9.9,9.9,0,0,0,15,0a7,7,0,0,0-4.14,1.14A7.11,7.11,0,0,0,6.74,0,10.11,10.11,0,0,0,1.61,1.38L0,14.86H.08a6.94,6.94,0,0,0,2.68-.61,9,9,0,0,1,4.13-1,5.31,5.31,0,0,1,4,1.53,5.66,5.66,0,0,1,4-1.53,10.63,10.63,0,0,1,4.14,1,7.24,7.24,0,0,0,2.75.61ZM17.38,12.11a7.85,7.85,0,0,0-2.45-.31h0A6.35,6.35,0,0,0,11,13a7.29,7.29,0,0,0-4-1.15A7.71,7.71,0,0,0,5.13,12a6.86,6.86,0,0,0-1.61.38c-.46.16-1,.39-1.76.69L3.06,2.31a7.85,7.85,0,0,1,3.79-1,6,6,0,0,1,4,1.72,6.7,6.7,0,0,1,4-1.71,8.53,8.53,0,0,1,4,1l1.3,10.79C19.06,12.64,18.07,12.34,17.38,12.11Z"/></g></g></svg>