<svg xmlns="http://www.w3.org/2000/svg" viewBox="0 0 18.43 16.82"><defs><style>.cls-1{fill:#f4bb64;}</style></defs><title>ico_book-hv</title><g id="Camada_2" data-name="Camada 2"><g id="Camada_1-2" data-name="Camada 1"><g id="Group_323" data-name="Group 323"><path id="Path_233" data-name="Path 233" class="cls-1" d="M18.13,3.81a1.33,1.33,0,0,1,.16,1.43l-3,9.92a2.46,2.46,0,0,1-2.23,1.66H2.9a2.79,2.79,0,0,1-1.67-.55A3.19,3.19,0,0,1,.12,14.84a2.19,2.19,0,0,1,0-1.43v-.32A.58.58,0,0,1,.2,12.7v-.24c0-.08-.08-.16,0-.24s.08-.16.08-.24.08-.16.16-.24.15-.16.15-.23c.16-.32.32-.64.48-1a7.23,7.23,0,0,0,.32-1V8.81c0-.08.08-.16.16-.32a1,1,0,0,1,.15-.24,6.43,6.43,0,0,0,.48-1,2.61,2.61,0,0,0,.24-1V5.63a.42.42,0,0,1,.24-.31l.23-.24a2.51,2.51,0,0,0,.48-1c.16-.4.24-.8.32-1V2.46a.27.27,0,0,1,.08-.16c.08-.08.08-.16.16-.23s.15-.16.15-.24.08-.24.16-.32.08-.24.16-.4.08-.24.16-.4A1.45,1.45,0,0,1,5.11.16c.16-.08.24-.16.4-.16a1.52,1.52,0,0,1,.56.08h0A2,2,0,0,1,6.62,0H15a1.52,1.52,0,0,1,1.27.64,1.3,1.3,0,0,1,.16,1.42l-3,9.92a4.17,4.17,0,0,1-.8,1.67,2,2,0,0,1-1.43.39H1.63a.65.65,0,0,0-.4.16q-.12.12,0,.48c.16.48.71.79,1.59.79H13a1.77,1.77,0,0,0,.64-.16.79.79,0,0,0,.39-.47L17.33,4a1.4,1.4,0,0,0,.08-.64A1,1,0,0,1,18.13,3.81Zm-11.66,0v.24c.07.08.07.08.23.08h6.67a.72.72,0,0,0,.32-.08.23.23,0,0,0,.15-.24l.24-.71V2.86c0-.08-.08-.08-.24-.08H7.18a.61.61,0,0,0-.32.08c-.16.08-.16.16-.16.24ZM5.59,6.67V6.9c.08.08.08.08.24.08H12.5a.48.48,0,0,0,.31-.08c.08-.07.16-.15.16-.23L13.21,6V5.71c0-.08-.08-.08-.24-.08H6.31A.72.72,0,0,0,6,5.71c-.08.08-.16.16-.16.24Z"/></g></g></g></svg>