<svg xmlns="http://www.w3.org/2000/svg" viewBox="0 0 19.33 22.52"><defs><style>.cls-1{fill:#f4bb64;}</style></defs><title>ico_video-hv</title><g id="Camada_2" data-name="Camada 2"><g id="Camada_1-2" data-name="Camada 1"><g id="Group_301" data-name="Group 301"><path id="Path_211" data-name="Path 211" class="cls-1" d="M18.42,4.74a2.85,2.85,0,0,1,.64,1,2.59,2.59,0,0,1,.27,1.1V21.33a.91.91,0,0,1-.37.82,1.1,1.1,0,0,1-.82.36H1.19a.88.88,0,0,1-.82-.36A1.11,1.11,0,0,1,0,21.33V1.18A.89.89,0,0,1,.37.36,1.11,1.11,0,0,1,1.19,0h11.3a2.41,2.41,0,0,1,1.09.27,3.71,3.71,0,0,1,1,.64Zm-5.56-3.1V6.38H17.6a1.51,1.51,0,0,0-.28-.55L13.41,1.91a1.66,1.66,0,0,0-.55-.27ZM17.69,21V8H12.41a.87.87,0,0,1-.82-.36,1.09,1.09,0,0,1-.37-.82V1.55H1.56V21Zm-8-11.3a1.5,1.5,0,0,1,1.09.45,1.46,1.46,0,0,1,.46,1.1v4.83a1.5,1.5,0,0,1-.46,1.09,1.45,1.45,0,0,1-1.09.46H4.84a1.51,1.51,0,0,1-1.1-.46,1.41,1.41,0,0,1-.45-1.09V11.22a1.5,1.5,0,0,1,.45-1.1,1.43,1.43,0,0,1,1.1-.45Zm6.2,0c.18.09.27.18.27.36v7.29a.39.39,0,0,1-.27.37h-.18a.37.37,0,0,1-.28-.09L12,14.22V13.13l3.37-3.37a.33.33,0,0,1,.28-.09Z"/></g></g></g></svg>