<svg xmlns="http://www.w3.org/2000/svg" viewBox="0 0 19.33 22.52"><defs><style>.cls-1{fill:#fff;}</style></defs><title>ico_ppt</title><g id="Camada_2" data-name="Camada 2"><g id="Camada_1-2" data-name="Camada 1"><g id="Group_306" data-name="Group 306"><path id="Path_216" data-name="Path 216" class="cls-1" d="M18.42,4.74a2.85,2.85,0,0,1,.64,1,2.59,2.59,0,0,1,.27,1.1V21.33a.91.91,0,0,1-.37.82,1.1,1.1,0,0,1-.82.36H1.19a.88.88,0,0,1-.82-.36A1.11,1.11,0,0,1,0,21.33V1.18A.89.89,0,0,1,.37.36,1.11,1.11,0,0,1,1.19,0H12.41A2.44,2.44,0,0,1,13.5.27a4.05,4.05,0,0,1,1,.64Zm-5.65-3.1V6.38h4.74a1.68,1.68,0,0,0-.28-.55L13.31,1.91a1.52,1.52,0,0,0-.54-.27ZM17.6,21V8H12.4a.87.87,0,0,1-.82-.36,1.12,1.12,0,0,1-.37-.82V1.55H1.46V21ZM5.11,18v1.36h4.1V18H8v-2.1H9.76a5.88,5.88,0,0,0,1.45-.18,2.66,2.66,0,0,0,1.37-1.1A3.24,3.24,0,0,0,13,12.76a4.09,4.09,0,0,0-.46-1.82,2.16,2.16,0,0,0-1.27-1.1,3.88,3.88,0,0,0-1.65-.27H5.11v1.36H6.29v7Zm4.47-3.47H8.12V11.12H9.67a2.46,2.46,0,0,1,1,.18,1.56,1.56,0,0,1,.73,1.46,1.61,1.61,0,0,1-.82,1.55,3.15,3.15,0,0,1-1,.18Z"/></g></g></g></svg>