<svg xmlns="http://www.w3.org/2000/svg" viewBox="0 0 16.75 12.5"><defs><style>.cls-1{fill:#fff;}</style></defs><title>ico_arquivos</title><g id="Camada_2" data-name="Camada 2"><g id="Camada_1-2" data-name="Camada 1"><g id="Group_337" data-name="Group 337"><path id="Path_247" data-name="Path 247" class="cls-1" d="M16.75,7.28a.8.8,0,0,1-.26.58l-3,3.54a2.72,2.72,0,0,1-1.09.77,3.61,3.61,0,0,1-1.29.33H1.42a1.33,1.33,0,0,1-.52-.13A.43.43,0,0,1,.65,12,.79.79,0,0,1,.9,11.4l3-3.54A2.75,2.75,0,0,1,5,7.09a3.56,3.56,0,0,1,1.28-.33H16a1.33,1.33,0,0,1,.52.13A.58.58,0,0,1,16.75,7.28Zm-3-3V5.67H6.31a3.41,3.41,0,0,0-1.73.45A3.75,3.75,0,0,0,3.09,7.21l-3,3.55L0,10.82V2A2,2,0,0,1,.58.58,1.92,1.92,0,0,1,2,0H4.83A2,2,0,0,1,6.25.58,1.92,1.92,0,0,1,6.83,2v.25h4.83a2,2,0,0,1,1.42.58,1.76,1.76,0,0,1,.64,1.42Z"/></g></g></g></svg>