<svg xmlns="http://www.w3.org/2000/svg" viewBox="0 0 13.62 17.32"><defs><style>.cls-1{fill:#f4bb64;}</style></defs><title>ico_escola-hv</title><g id="Camada_2" data-name="Camada 2"><g id="Camada_1-2" data-name="Camada 1"><path class="cls-1" d="M3.63,7.55a.23.23,0,0,0-.21-.07H2.79a.08.08,0,0,0-.07,0,.25.25,0,0,0-.21.28v.7a.25.25,0,0,0,.28.2h.7a.24.24,0,0,0,.21-.28V7.76h0C3.7,7.61,3.7,7.54,3.63,7.55Z"/><path class="cls-1" d="M6.15,7.55a.25.25,0,0,0-.21-.07H5.31a.08.08,0,0,0-.07,0A.24.24,0,0,0,5,7.76v.7a.24.24,0,0,0,.28.2H6a.25.25,0,0,0,.21-.28V7.76h0C6.22,7.61,6.22,7.61,6.15,7.55Z"/><path class="cls-1" d="M5.94,9.92h-.7A.25.25,0,0,0,5,10.2v.63a.09.09,0,0,0,0,.07.25.25,0,0,0,.28.21H6a.26.26,0,0,0,.21-.28v-.7A.25.25,0,0,0,5.94,9.92Z"/><path class="cls-1" d="M3.42,12.36h-.7a.25.25,0,0,0-.21.28v.7a.25.25,0,0,0,.28.21h.7a.24.24,0,0,0,.21-.28v-.7A.25.25,0,0,0,3.42,12.36Z"/><path class="cls-1" d="M6.9,1.71a.9.9,0,0,0-.84.87H7.64A.76.76,0,0,0,6.9,1.71Z"/><path class="cls-1" d="M3.42,9.92h-.7a.25.25,0,0,0-.21.28v.7a.25.25,0,0,0,.28.21h.7a.25.25,0,0,0,.21-.28v-.7A.24.24,0,0,0,3.42,9.92Z"/><path class="cls-1" d="M8.38,9.92h-.7a.25.25,0,0,0-.21.28v.7a.25.25,0,0,0,.28.21h.7a.25.25,0,0,0,.21-.28v-.7A.24.24,0,0,0,8.38,9.92Z"/><path class="cls-1" d="M10.27,13.55H11a.24.24,0,0,0,.2-.28v-.63h0a.08.08,0,0,0,0-.07.25.25,0,0,0-.28-.21h-.7a.25.25,0,0,0-.2.28v.63a.08.08,0,0,0,0,.07A.24.24,0,0,0,10.27,13.55Z"/><path class="cls-1" d="M13.62,4.33a.39.39,0,0,0-.28-.42.62.62,0,0,0-.42-.2H9.85V.91A.88.88,0,0,0,9.57.28.71.71,0,0,0,8.94,0H4.61A.92.92,0,0,0,4,.28.69.69,0,0,0,3.7.91v2.8H.63A.73.73,0,0,0,0,4.33V16.69a.73.73,0,0,0,.63.63H13a.73.73,0,0,0,.63-.63V4.33ZM7,1.08A1.56,1.56,0,0,1,8.5,2.84a1.74,1.74,0,0,1,0,.38H6.06c0,.65.53.93,1.11.93a2.79,2.79,0,0,0,1-.16l.13.63a3.5,3.5,0,0,1-1.25.22A1.71,1.71,0,0,1,5.19,3,1.79,1.79,0,0,1,7,1.08Zm5.41,15H8.66V13.9a.09.09,0,0,0,0-.07.25.25,0,0,0-.28-.21H5.24A.25.25,0,0,0,5,13.9v2.17H1.33V5H3.77v.28a.88.88,0,0,0,.28.63.69.69,0,0,0,.63.28H9a.84.84,0,0,0,.63-.28.67.67,0,0,0,.28-.63V5h2.44Z"/><path class="cls-1" d="M10.27,11.11H11a.25.25,0,0,0,.2-.28V10.2a.09.09,0,0,0,0-.07.24.24,0,0,0-.28-.21H10.2a.25.25,0,0,0-.21.28v.63a.09.09,0,0,0,0,.07A.25.25,0,0,0,10.27,11.11Z"/><path class="cls-1" d="M10.27,8.66H11a.24.24,0,0,0,.2-.28V7.76h0c0-.14,0-.14-.07-.2a.23.23,0,0,0-.21-.07h-.62a.08.08,0,0,0-.07,0,.24.24,0,0,0-.21.28v.62a.11.11,0,0,0,0,.08A.24.24,0,0,0,10.27,8.66Z"/><path class="cls-1" d="M8.59,7.55a.23.23,0,0,0-.21-.07H7.75a.08.08,0,0,0-.07,0,.25.25,0,0,0-.21.28v.7a.25.25,0,0,0,.28.2h.7a.24.24,0,0,0,.21-.28V7.76h0C8.66,7.61,8.66,7.61,8.59,7.55Z"/></g></g></svg>