<svg xmlns="http://www.w3.org/2000/svg" viewBox="0 0 18.55 13.55"><defs><style>.cls-1{fill:#f4bb64;}</style></defs><title>ico_download-hv</title><g id="Camada_2" data-name="Camada 2"><g id="Camada_1-2" data-name="Camada 1"><g id="Group_215" data-name="Group 215"><path id="Path_125" data-name="Path 125" class="cls-1" d="M12.44,7.64a.24.24,0,0,0-.21-.27H10V4a.24.24,0,0,0-.2-.27h-2a.25.25,0,0,0-.28.2V7.37H5.42a.3.3,0,0,0-.28.31.26.26,0,0,0,.07.17l3.4,3.41a.36.36,0,0,0,.42,0l3.4-3.41C12.37,7.85,12.44,7.78,12.44,7.64ZM18.55,9.8a3.8,3.8,0,0,1-3.75,3.75H4.31A4.27,4.27,0,0,1,0,9.32V9.24A3.83,3.83,0,0,1,.7,7a4,4,0,0,1,1.8-1.6V4.93A4.68,4.68,0,0,1,4,1.46,4.78,4.78,0,0,1,7.43,0a5.06,5.06,0,0,1,2.78.83A4.77,4.77,0,0,1,12,3.06a2.4,2.4,0,0,1,3.39.12,2.43,2.43,0,0,1,.64,1.68,2.28,2.28,0,0,1-.42,1.32A3.73,3.73,0,0,1,17.71,7.5a3.6,3.6,0,0,1,.84,2.3Z"/></g></g></g></svg>