<svg xmlns="http://www.w3.org/2000/svg" viewBox="0 0 15.79 18.39"><defs><style>.cls-1{fill:#f4bb64;}</style></defs><title>ico_page-hv</title><g id="Camada_2" data-name="Camada 2"><g id="Camada_1-2" data-name="Camada 1"><g id="Group_308" data-name="Group 308"><path id="Path_218" data-name="Path 218" class="cls-1" d="M15,3.87a2.21,2.21,0,0,1,.52.82,2,2,0,0,1,.23.89V17.42a.73.73,0,0,1-.3.67.91.91,0,0,1-.67.3H1a.74.74,0,0,1-.67-.3.93.93,0,0,1-.3-.67V1A.75.75,0,0,1,.3.3.91.91,0,0,1,1,0H10.2a2,2,0,0,1,.9.22,3.29,3.29,0,0,1,.81.52ZM10.5,1.34V5.21h3.87a1.22,1.22,0,0,0-.22-.44L11,1.56Zm3.95,15.78V6.55H10.13a.72.72,0,0,1-.67-.3,1.37,1.37,0,0,1-.3-.66V1.27H1.27V17.12ZM3.88,8.19a.26.26,0,0,1,.22-.3h7.3a.26.26,0,0,1,.29.22.11.11,0,0,1,0,.08v.67a.27.27,0,0,1-.22.3H4.17a.27.27,0,0,1-.3-.22V8.19Zm7.59,2.31a.26.26,0,0,1,.3.22v.75a.26.26,0,0,1-.22.29H4.25a.25.25,0,0,1-.3-.22V10.8a.26.26,0,0,1,.23-.3h7.29Zm0,2.68a.26.26,0,0,1,.3.22v.75a.26.26,0,0,1-.22.29H4.25a.25.25,0,0,1-.3-.22v-.74a.26.26,0,0,1,.23-.3h7.29Z"/></g></g></g></svg>