<svg xmlns="http://www.w3.org/2000/svg" viewBox="0 0 19.28 13.3"><defs><style>.cls-1{fill:#fff;}</style></defs><title>ico_noticia</title><g id="Camada_2" data-name="Camada 2"><g id="Camada_1-2" data-name="Camada 1"><g id="Group_484" data-name="Group 484"><path id="Path_394" data-name="Path 394" class="cls-1" d="M9.64,3.67H6V7.26h3.6Zm1.22,6v1.22h-6V9.71Zm0-7.27v6h-6v-6Zm6,7.27v1.22H12V9.71Zm0-2.45V8.48H12V7.26Zm0-2.37V6.11H12V4.89Zm0-2.45V3.67H12V2.44Zm-14.39,9v-9H1.22v9a.58.58,0,0,0,1,.4A.46.46,0,0,0,2.44,11.47Zm15.61,0V1.22H3.6V11.47a2.16,2.16,0,0,1-.14.61H17.38a.59.59,0,0,0,.4-.21c.14-.13.27-.2.27-.4ZM19.28.06V11.47a1.87,1.87,0,0,1-.55,1.29,1.73,1.73,0,0,1-1.29.54H1.83a1.9,1.9,0,0,1-1.29-.54A1.76,1.76,0,0,1,0,11.47V1.22H2.38V0h16.9Z"/></g></g></g></svg>