<svg xmlns="http://www.w3.org/2000/svg" viewBox="0 0 134 134"><defs><style>.cls-1{fill:#f05f5a;}.cls-2{fill:#fff;}.cls-3{fill:#f3bc65;}.cls-4{fill:#fed284;}.cls-5{fill:#ffdca0;}.cls-6{fill:#3e4f67;}</style></defs><title>agendadas</title><g id="Camada_2" data-name="Camada 2"><g id="Camada_1-2" data-name="Camada 1"><circle class="cls-1" cx="85.84" cy="48.16" r="45.54"/><circle class="cls-2" cx="85.84" cy="48.16" r="34.02"/><path class="cls-3" d="M55.07,94.29H23.45A20.82,20.82,0,0,0,2.62,115.12v16.26H75.9V115.12A20.83,20.83,0,0,0,55.07,94.29Z"/><polygon class="cls-2" points="52.41 94.29 52.41 108.44 39.26 99.98 26.1 108.44 26.1 94.29 52.41 94.29"/><path class="cls-4" d="M39.26,51.32h0A16.11,16.11,0,0,0,23.14,67.44v3.88H31A17.68,17.68,0,0,0,44.59,65h0l10.79,6.34V67.44A16.12,16.12,0,0,0,39.26,51.32Z"/><path class="cls-5" d="M41.12,68.15A17.68,17.68,0,0,1,31,71.32H23.14v6.85A16.12,16.12,0,0,0,39.26,94.29h0A16.12,16.12,0,0,0,55.38,78.17V71.32L50,68.15,44.59,65Z"/><path class="cls-6" d="M55.07,91.67H52.23A18.68,18.68,0,0,0,58,78.17V71.94a36.61,36.61,0,1,0-8.8-23.78c0,1.18.06,2.36.17,3.52A18.72,18.72,0,0,0,20.52,67.44V78.17a18.68,18.68,0,0,0,5.77,13.5H23.45A23.48,23.48,0,0,0,0,115.12v16.26A2.62,2.62,0,0,0,2.62,134H75.9a2.62,2.62,0,0,0,2.62-2.62V115.12A23.48,23.48,0,0,0,55.07,91.67Zm-5.2,5.24a2.35,2.35,0,0,0-.07.6v6.13l-9.13-5.86a2.59,2.59,0,0,0-2.83,0l-9.12,5.86V96.91Zm36-80.16a31.41,31.41,0,1,1-31.4,31.41A31.44,31.44,0,0,1,85.84,16.75ZM25.75,67.44a13.5,13.5,0,0,1,27-.7l-6.82-4a2.61,2.61,0,0,0-3.33.57A15.07,15.07,0,0,1,31,68.7H25.75V67.44Zm0,10.73V73.94H31A20.29,20.29,0,0,0,45.07,68.3l7.69,4.52v5.35a13.51,13.51,0,0,1-27,0Zm47.53,50.6h-68V115.12A18.23,18.23,0,0,1,23.45,96.91h0v11.53a2.61,2.61,0,0,0,4,2.2l9.12-5.87v5.69a2.62,2.62,0,0,0,5.24,0v-5.69L51,110.64a2.58,2.58,0,0,0,1.41.42,2.71,2.71,0,0,0,1.26-.32,2.62,2.62,0,0,0,1.36-2.3V97.51a2.9,2.9,0,0,0-.07-.6h.11a18.23,18.23,0,0,1,18.21,18.21Z"/><path class="cls-2" d="M39.26,117.38a2.62,2.62,0,1,0,1.85,4.47,2.61,2.61,0,0,0,0-3.7A2.63,2.63,0,0,0,39.26,117.38Z"/><path class="cls-2" d="M65.3,114.63H53.52a2.62,2.62,0,0,0,0,5.24H65.3a2.62,2.62,0,1,0,0-5.24Z"/><path class="cls-6" d="M85.84,0a48.18,48.18,0,0,0-47.5,40.23,2.62,2.62,0,1,0,5.16.86,42.93,42.93,0,1,1,42.34,50,2.62,2.62,0,0,0,0,5.23A48.16,48.16,0,1,0,85.84,0Z"/><path class="cls-6" d="M77.76,90.32h0a2.62,2.62,0,0,0-1,5.14,2.21,2.21,0,0,0,.51,0,2.61,2.61,0,0,0,.51-5.18Z"/><path class="cls-6" d="M84,50a2.63,2.63,0,0,0,3.7,0L100,37.79a2.62,2.62,0,0,0-3.7-3.7L85.89,44.45,80.43,39a2.62,2.62,0,0,0-3.7,3.7Z"/><path class="cls-6" d="M85.84,27a2.62,2.62,0,0,0,2.62-2.62V22.53a2.62,2.62,0,1,0-5.23,0v1.85A2.61,2.61,0,0,0,85.84,27Z"/><path class="cls-6" d="M85.84,69.31a2.61,2.61,0,0,0-2.61,2.62v1.85a2.62,2.62,0,1,0,5.23,0V71.93A2.62,2.62,0,0,0,85.84,69.31Z"/><path class="cls-6" d="M109.62,50.77h1.85a2.62,2.62,0,1,0,0-5.23h-1.85a2.62,2.62,0,1,0,0,5.23Z"/><path class="cls-6" d="M64.69,48.16a2.62,2.62,0,0,0-2.62-2.62H60.22a2.62,2.62,0,1,0,0,5.23h1.85A2.61,2.61,0,0,0,64.69,48.16Z"/></g></g></svg>