<svg xmlns="http://www.w3.org/2000/svg" viewBox="0 0 127.98 127.99"><defs><style>.cls-1{fill:#fff;}.cls-2{fill:#f05f5a;}.cls-3{fill:#f3bc65;}.cls-4{fill:#ff5d5d;}.cls-5{fill:#3e4f67;}</style></defs><title>agenda</title><g id="Camada_2" data-name="Camada 2"><g id="Camada_1-2" data-name="Camada 1"><path class="cls-1" d="M12.5,12.5h91a10,10,0,0,1,10,10v75H7.5a5,5,0,0,1-5-5v-70A10,10,0,0,1,12.5,12.5Z"/><path class="cls-2" d="M103.48,12.5h-91a10,10,0,0,0-10,10V32h111V22.5A10,10,0,0,0,103.48,12.5Z"/><path class="cls-3" d="M23,85.49h0a7,7,0,0,1-7-7h0a7,7,0,0,1,7-7h0a7,7,0,0,1,7,7h0A7,7,0,0,1,23,85.49Z"/><path class="cls-3" d="M46.33,85.49h0a7,7,0,0,1-7-7h0a7,7,0,0,1,7-7h0a7,7,0,0,1,7,7h0A7,7,0,0,1,46.33,85.49Z"/><path class="cls-3" d="M69.66,85.49h0a7,7,0,0,1-7-7h0a7,7,0,0,1,7-7h0a7,7,0,0,1,7,7h0A7,7,0,0,1,69.66,85.49Z"/><path class="cls-3" d="M23,59.49h0a7,7,0,0,1-7-7h0a7,7,0,0,1,7-7h0a7,7,0,0,1,7,7h0A7,7,0,0,1,23,59.49Z"/><path class="cls-3" d="M69.66,59.49h0a7,7,0,0,1-7-7h0a7,7,0,0,1,7-7h0a7,7,0,0,1,7,7h0A7,7,0,0,1,69.66,59.49Z"/><path class="cls-3" d="M46.33,59.49h0a7,7,0,0,1-7-7h0a7,7,0,0,1,7-7h0a7,7,0,0,1,7,7h0A7,7,0,0,1,46.33,59.49Z"/><path class="cls-4" d="M93,59.49h0a7,7,0,0,1-7-7h0a7,7,0,0,1,7-7h0a7,7,0,0,1,7,7h0A7,7,0,0,1,93,59.49Z"/><circle class="cls-3" cx="100.48" cy="100.49" r="25"/><path class="cls-5" d="M113.48,65.86a2.51,2.51,0,1,0,1.77.74A2.52,2.52,0,0,0,113.48,65.86Z"/><path class="cls-5" d="M62.66,95H7.5A2.5,2.5,0,0,1,5,92.48v-70A7.5,7.5,0,0,1,12.5,15h13v1.79a3.5,3.5,0,0,1-3.5,3.5,2.5,2.5,0,0,0,0,5,8.5,8.5,0,0,0,8.49-8.5V15h31v1.79a3.5,3.5,0,0,1-3.5,3.5,2.5,2.5,0,0,0,0,5,8.51,8.51,0,0,0,8.5-8.5V15h31v1.79a3.5,3.5,0,0,1-3.5,3.5,2.5,2.5,0,0,0,0,5,8.51,8.51,0,0,0,8.5-8.5V15h1a7.5,7.5,0,0,1,7.5,7.5v7H23.5a2.5,2.5,0,1,0,0,5H111V57.62a2.5,2.5,0,0,0,5,0V22.5A12.51,12.51,0,0,0,103.48,10h-1V8.5a8.5,8.5,0,1,0-17,0V10h-19V8.5a8.5,8.5,0,1,0-17,0V10h-19V8.5a8.5,8.5,0,1,0-17,0V10h-1A12.51,12.51,0,0,0,0,22.5v70A7.5,7.5,0,0,0,7.5,100H62.66a2.5,2.5,0,0,0,0-5ZM90.49,8.5a3.5,3.5,0,1,1,7,0V10h-7Zm-36,0a3.5,3.5,0,0,1,7,0V10h-7V8.5Zm-36,0a3.5,3.5,0,0,1,7,0V10h-7Z"/><path class="cls-5" d="M23,69a9.5,9.5,0,1,0,9.49,9.5A9.51,9.51,0,0,0,23,69Zm0,14a4.5,4.5,0,1,1,4.5-4.5A4.51,4.51,0,0,1,23,83Z"/><path class="cls-5" d="M46.33,69a9.5,9.5,0,1,0,9.49,9.5A9.51,9.51,0,0,0,46.33,69Zm0,14a4.5,4.5,0,1,1,4.49-4.5A4.5,4.5,0,0,1,46.33,83Z"/><path class="cls-5" d="M79.15,78.49A9.5,9.5,0,1,0,69.66,88,9.51,9.51,0,0,0,79.15,78.49ZM69.66,83a4.5,4.5,0,1,1,4.49-4.5A4.5,4.5,0,0,1,69.66,83Z"/><path class="cls-5" d="M23,43a9.5,9.5,0,1,0,9.49,9.5A9.51,9.51,0,0,0,23,43Zm0,14a4.5,4.5,0,1,1,4.5-4.5A4.51,4.51,0,0,1,23,57Z"/><path class="cls-5" d="M60.16,52.49a9.5,9.5,0,1,0,9.5-9.5A9.51,9.51,0,0,0,60.16,52.49Zm14,0A4.5,4.5,0,1,1,69.66,48,4.5,4.5,0,0,1,74.15,52.49Z"/><path class="cls-5" d="M83.49,52.49A9.5,9.5,0,1,0,93,43,9.51,9.51,0,0,0,83.49,52.49Zm14,0A4.5,4.5,0,1,1,93,48,4.5,4.5,0,0,1,97.48,52.49Z"/><path class="cls-5" d="M46.33,43a9.5,9.5,0,1,0,9.49,9.5A9.51,9.51,0,0,0,46.33,43Zm0,14a4.5,4.5,0,1,1,4.49-4.5A4.5,4.5,0,0,1,46.33,57Z"/><path class="cls-5" d="M100.48,73A27.5,27.5,0,1,0,128,100.49,27.52,27.52,0,0,0,100.48,73Zm0,50a22.5,22.5,0,1,1,22.5-22.5A22.52,22.52,0,0,1,100.48,123Z"/><path class="cls-1" d="M114.73,90.73h-5.5a2.5,2.5,0,0,0-.75,4.89l-6.83,6.83-5.52-5.53a2.52,2.52,0,0,0-3.54,0l-8.37,8.38a2.5,2.5,0,1,0,3.53,3.53l6.61-6.6,5.52,5.52a2.5,2.5,0,0,0,3.54,0l8.82-8.82a2.5,2.5,0,0,0,5-.2v-5.5A2.5,2.5,0,0,0,114.73,90.73Z"/></g></g></svg>