<svg xmlns="http://www.w3.org/2000/svg" viewBox="0 0 128.36 119.94"><defs><style>.cls-1{fill:#f3bc65;}.cls-2{fill:#f05f5a;}.cls-3{fill:#fff;}.cls-4{fill:#3e4f67;}</style></defs><title>destaques</title><g id="Camada_2" data-name="Camada 2"><g id="Camada_1-2" data-name="Camada 1"><path class="cls-1" d="M95,38.9H33.4a3.34,3.34,0,0,0-2.81,1.52L16.58,62a3.34,3.34,0,0,0,.31,4l44.79,50.29a3.34,3.34,0,0,0,5,0L111.47,66a3.34,3.34,0,0,0,.31-4l-14-21.57A3.36,3.36,0,0,0,95,38.9Z"/><path class="cls-2" d="M97.82,40.42A3.36,3.36,0,0,0,95,38.9H33.4a3.34,3.34,0,0,0-2.81,1.52L16.58,62a3.3,3.3,0,0,0-.51,2.19h96.22a3.31,3.31,0,0,0-.51-2.19Z"/><polygon class="cls-2" points="80.44 64.18 64.18 116.96 47.92 64.18 80.44 64.18"/><polygon class="cls-1" points="47.92 64.18 64.18 39.05 80.44 64.18 47.92 64.18"/><polygon class="cls-3" points="14.74 64.18 31 39.05 47.26 64.18 14.74 64.18"/><polygon class="cls-3" points="80.01 64.18 96.27 39.05 112.53 64.18 80.01 64.18"/><path class="cls-4" d="M99.92,39.06A5.83,5.83,0,0,0,95,36.39H33.4a5.85,5.85,0,0,0-4.91,2.66l-14,21.57A5.87,5.87,0,0,0,15,67.7L59.81,118a5.84,5.84,0,0,0,4.37,2h0a5.84,5.84,0,0,0,4.37-2l44.79-50.29a5.85,5.85,0,0,0,.55-7.06ZM77,66.69,64.18,108.44,51.32,66.69Zm-24.51-5,11.65-18,11.65,18ZM68.69,41.4H92.18L80.44,59.57ZM48,59.52,36.24,41.4H59.67ZM59.41,110,20.84,66.69H46.07Zm22.88-43.3h25.23L69,110Zm26.3-5H85.05L96.81,43.48Zm-77-18.2,11.78,18.2H19.78Z"/><path class="cls-4" d="M7.6,61.67H2.51a2.51,2.51,0,0,0,0,5H7.6a2.51,2.51,0,1,0,0-5Z"/><path class="cls-4" d="M125.86,61.67h-5.1a2.51,2.51,0,0,0,0,5h5.1a2.51,2.51,0,0,0,0-5Z"/><path class="cls-4" d="M99.5,31.42a2.5,2.5,0,0,0,1.77-.74l8.33-8.32a2.51,2.51,0,0,0-3.55-3.55l-8.33,8.33a2.51,2.51,0,0,0,1.78,4.28Z"/><path class="cls-4" d="M27.2,30.64a2.51,2.51,0,1,0,3.55-3.55l-8.33-8.32a2.5,2.5,0,1,0-3.54,3.54Z"/><path class="cls-4" d="M64.24,21.35a2.5,2.5,0,0,0,2.51-2.5V2.51a2.51,2.51,0,1,0-5,0V18.85A2.5,2.5,0,0,0,64.24,21.35Z"/><path class="cls-4" d="M64.24,29.83A2.51,2.51,0,0,0,66,25.55a2.51,2.51,0,0,0-4.28,1.78,2.49,2.49,0,0,0,2.5,2.5Z"/></g></g></svg>