<svg xmlns="http://www.w3.org/2000/svg" viewBox="0 0 137.61 108.58"><defs><style>.cls-1{fill:#f05f5a;}.cls-2{fill:#f3bc65;}.cls-3{fill:#3e4f67;}.cls-4{fill:#fff;}</style></defs><title>digala</title><g id="Camada_2" data-name="Camada 2"><g id="Camada_1-2" data-name="Camada 1"><path class="cls-1" d="M101.64,3,34.92,26.93V66.71l66.72,23.93a5.37,5.37,0,0,0,7.19-5.06V8.06A5.38,5.38,0,0,0,101.64,3Z"/><path class="cls-2" d="M101.64,3,97.92,4.34v85l3.72,1.33a5.37,5.37,0,0,0,7.19-5.06V8.06A5.38,5.38,0,0,0,101.64,3Z"/><path class="cls-2" d="M34.92,66.71H13.44A10.75,10.75,0,0,1,2.69,56V37.68A10.75,10.75,0,0,1,13.44,26.93H34.92Z"/><path class="cls-1" d="M35.4,66.71H15.57L29.36,104a3,3,0,0,0,2.8,1.94H45.63a3,3,0,0,0,2.8-4Z"/><path class="cls-3" d="M108.1,1.47a8.1,8.1,0,0,0-7.37-1L65.6,13.07a2.69,2.69,0,1,0,1.82,5.06l35.13-12.6a2.69,2.69,0,0,1,3.6,2.53V85.58a2.69,2.69,0,0,1-3.6,2.53l-1.94-.69V59.82a2.69,2.69,0,1,0-5.37,0V85.49L37.61,64.82v-36l11.64-4.18a2.69,2.69,0,1,0-1.81-5.06l-13,4.66h-21A13.45,13.45,0,0,0,0,37.68V56A13.46,13.46,0,0,0,13.44,69.4h.26l13.14,35.48a5.7,5.7,0,0,0,5.32,3.7H45.63A5.68,5.68,0,0,0,51,100.94L40,71.39l60.73,21.78a8.06,8.06,0,0,0,10.79-7.59V8.06A8.07,8.07,0,0,0,108.1,1.47ZM5.38,56V37.69a8.07,8.07,0,0,1,8.06-8.07h18.8V64H13.44A8.07,8.07,0,0,1,5.38,56Zm40.49,47.12a.27.27,0,0,1-.24.13H32.16a.31.31,0,0,1-.28-.2L19.44,69.4H33.53l12.38,33.41A.29.29,0,0,1,45.87,103.08Z"/><path class="cls-3" d="M57.15,21.65a2.7,2.7,0,1,0-1.9-.79A2.7,2.7,0,0,0,57.15,21.65Z"/><path class="cls-3" d="M122,35.1a2.69,2.69,0,0,0-3.8,3.8,11.21,11.21,0,0,1,0,15.85,2.69,2.69,0,0,0,3.8,3.8,16.57,16.57,0,0,0,0-23.45Z"/><path class="cls-3" d="M129.61,27.5a2.69,2.69,0,1,0-3.8,3.8,22,22,0,0,1,0,31.05,2.69,2.69,0,0,0,3.8,3.8,27.34,27.34,0,0,0,0-38.65Z"/><path class="cls-4" d="M43.87,53a2.69,2.69,0,0,0,0,3.8,2.65,2.65,0,0,0,1.9.79,2.68,2.68,0,0,0,1.9-.79L61.41,43l9.23,9.22a2.69,2.69,0,0,0,3.8,0l21-21a2.69,2.69,0,0,0,5.34-.43v-6a2.68,2.68,0,0,0-2.69-2.69h-6a2.69,2.69,0,0,0-.43,5.34l-19.1,19.1-9.23-9.23a2.69,2.69,0,0,0-3.8,0Z"/><path class="cls-4" d="M97.92,46a2.72,2.72,0,0,0-1.9.79,2.7,2.7,0,0,0,0,3.8A2.69,2.69,0,1,0,97.92,46Z"/></g></g></svg>