<svg xmlns="http://www.w3.org/2000/svg" viewBox="0 0 129 86.13"><defs><style>.cls-1{fill:#f3bc65;}.cls-2{fill:#f05f5a;}.cls-3{fill:#fff;}.cls-4{fill:#6e7b8d;}.cls-5{fill:#3e4f67;}</style></defs><title>embreve</title><g id="Camada_2" data-name="Camada 2"><g id="Camada_1-2" data-name="Camada 1"><path class="cls-1" d="M122.47,40.52,106.82,16A14.44,14.44,0,0,0,94.65,9.38H71.39a6.86,6.86,0,1,0-13.71,0H34.36A14.45,14.45,0,0,0,22.19,16L6.54,40.52Z"/><rect class="cls-2" x="56.4" y="39.16" width="16.2" height="21.11"/><circle class="cls-2" cx="64.5" cy="63.62" r="6.05"/><circle class="cls-3" cx="30.99" cy="55.14" r="28.47"/><circle class="cls-3" cx="98.01" cy="55.14" r="28.47"/><path class="cls-4" d="M126.49,55.13a28.33,28.33,0,0,0-4.15-14.8S129.78,60.71,108,73.16c-14,8-32.21-.23-32.21-.23a28.47,28.47,0,0,0,50.7-17.8Z"/><path class="cls-4" d="M59.49,55.13a28.33,28.33,0,0,0-4.15-14.8S62.78,60.71,41,73.16c-14,8-32.21-.23-32.21-.23a28.47,28.47,0,0,0,50.7-17.8Z"/><path class="cls-5" d="M59.46,17.37a2.53,2.53,0,0,0-2.52,2.52,2.5,2.5,0,0,0,.74,1.78,2.54,2.54,0,0,0,1.78.74A2.53,2.53,0,0,0,62,19.89a2.54,2.54,0,0,0-.74-1.78A2.5,2.5,0,0,0,59.46,17.37Z"/><path class="cls-5" d="M116.42,73.43l-.07.08a2.51,2.51,0,0,0,1.8,4.28,2.47,2.47,0,0,0,1.79-.76,2.52,2.52,0,0,0-3.52-3.6Z"/><path class="cls-5" d="M128.69,50.69a30.88,30.88,0,0,0-4-11.27c0-.08-.09-.17-.15-.26l-.39-.61-.35-.55L108.94,14.68A16.87,16.87,0,0,0,94.65,6.86H73.57a9.38,9.38,0,0,0-18.07,0H34.36a16.87,16.87,0,0,0-14.29,7.82L4.42,39.16a2.09,2.09,0,0,0-.19.36A31,31,0,1,0,58.39,69.61a8.56,8.56,0,0,0,12.22,0A31,31,0,0,0,111.68,83a2.52,2.52,0,0,0-2.22-4.52,26,26,0,0,1-29.8-5c-.14-.15-.28-.3-.43-.44l-3.13-4a26,26,0,0,1,40.26-32.27,26.88,26.88,0,0,1,3.29,4l.56.88A25.8,25.8,0,0,1,121,67.21a2.52,2.52,0,1,0,4.46,2.35A31.27,31.27,0,0,0,128.69,50.69ZM31,81.09a25.89,25.89,0,0,1-18.48-7.75L9.32,69.4A25.94,25.94,0,1,1,31,81.09Zm33.51-14A3.53,3.53,0,1,1,68,63.62,3.53,3.53,0,0,1,64.5,67.14ZM76.1,33.22a31.06,31.06,0,0,0-4,5V19.89a2.52,2.52,0,0,0-5,0V55.13a2.64,2.64,0,0,0,0,.29h0a8.61,8.61,0,0,0-5.06,0v-27a2.52,2.52,0,1,0-5,0v9.77A30.93,30.93,0,0,0,18.25,26.89l6.07-9.49a11.84,11.84,0,0,1,10-5.5H57.68A2.52,2.52,0,0,0,60.2,9.38a4.34,4.34,0,1,1,8.67,0,2.52,2.52,0,0,0,2.52,2.52H94.65a11.87,11.87,0,0,1,10,5.5l6.06,9.49A31,31,0,0,0,76.1,33.22Z"/><path class="cls-5" d="M96.17,61.63a2.15,2.15,0,0,0,3,0l10-10a2.14,2.14,0,1,0-3-3L97.68,57.1l-4.45-4.45a2.14,2.14,0,1,0-3,3Z"/><path class="cls-5" d="M97.64,38.86a2.14,2.14,0,0,0,2.14-2.14V35.21a2.14,2.14,0,1,0-4.27,0v1.51A2.13,2.13,0,0,0,97.64,38.86Z"/><path class="cls-5" d="M97.64,73.38a2.13,2.13,0,0,0-2.13,2.13V77a2.14,2.14,0,0,0,4.27,0V75.51A2.13,2.13,0,0,0,97.64,73.38Z"/><path class="cls-5" d="M117,58.25h1.51a2.14,2.14,0,1,0,0-4.27H117a2.14,2.14,0,1,0,0,4.27Z"/><path class="cls-5" d="M80.38,56.12A2.13,2.13,0,0,0,78.25,54H76.74a2.14,2.14,0,1,0,0,4.27h1.51A2.13,2.13,0,0,0,80.38,56.12Z"/><path class="cls-5" d="M30.17,60.63a2.15,2.15,0,0,0,3,0l10-10a2.14,2.14,0,0,0-3-3L31.68,56.1l-4.45-4.45a2.14,2.14,0,1,0-3,3Z"/><path class="cls-5" d="M31.64,37.86a2.14,2.14,0,0,0,2.14-2.14V34.21a2.14,2.14,0,1,0-4.27,0v1.51A2.13,2.13,0,0,0,31.64,37.86Z"/><path class="cls-5" d="M31.64,72.38a2.13,2.13,0,0,0-2.13,2.13V76a2.14,2.14,0,0,0,4.27,0V74.51A2.13,2.13,0,0,0,31.64,72.38Z"/><path class="cls-5" d="M51,57.25h1.51a2.14,2.14,0,1,0,0-4.27H51a2.14,2.14,0,1,0,0,4.27Z"/><path class="cls-5" d="M14.38,55.12A2.13,2.13,0,0,0,12.25,53H10.74a2.14,2.14,0,1,0,0,4.27h1.51A2.13,2.13,0,0,0,14.38,55.12Z"/></g></g></svg>