<svg xmlns="http://www.w3.org/2000/svg" viewBox="0 0 128 128.01"><defs><style>.cls-1{fill:#f3bc65;}.cls-2{fill:#f05f5a;}.cls-3{fill:#fff3dd;}.cls-4{fill:#3e4f67;}.cls-5{fill:#fff;}</style></defs><title>indicacoes</title><g id="Camada_2" data-name="Camada 2"><g id="Camada_1-2" data-name="Camada 1"><path class="cls-1" d="M59.37,122.9,91.09,75.32a1.67,1.67,0,0,1,2.79,0l31.69,47.54a1.7,1.7,0,0,1-1.41,2.65H60.76A1.68,1.68,0,0,1,59.37,122.9Z"/><path class="cls-2" d="M2.92,121.62l47.33-71a2.5,2.5,0,0,1,4.16,0l49.92,74.89H5A2.5,2.5,0,0,1,2.92,121.62Z"/><polygon class="cls-1" points="109.5 38.5 52 38.5 52 2.5 109.5 2.5 103.08 20.5 109.5 38.5"/><path class="cls-2" d="M82.24,25.32H76.32a10,10,0,0,0-10,10V38.5h26V35.37A10,10,0,0,0,82.24,25.32Z"/><path class="cls-3" d="M79.28,13.32h0a5.5,5.5,0,0,0-5.5,5.5v1a5.5,5.5,0,0,0,5.5,5.5h0a5.5,5.5,0,0,0,5.5-5.5v-1A5.5,5.5,0,0,0,79.28,13.32Z"/><path class="cls-4" d="M92.66,72.69a4.62,4.62,0,0,0-3.84,2l-2.95,4.43A2.5,2.5,0,1,0,90,81.94L92.66,78l5.72,8.59a2.5,2.5,0,0,0,4.16-2.78l-6.05-9.07A4.61,4.61,0,0,0,92.66,72.69Z"/><path class="cls-4" d="M104,91.41A2.51,2.51,0,0,0,104,95a2.5,2.5,0,1,0,0-3.54Z"/><path class="cls-4" d="M127.23,120.84,113.12,99.68a2.5,2.5,0,1,0-4.16,2.77L122.66,123h-17L56.49,49.24a5,5,0,0,0-2-1.74h0V41h55a2.47,2.47,0,0,0,2-1.06,2.5,2.5,0,0,0,.32-2.28L105.74,20.5l6.12-17.16A2.51,2.51,0,0,0,109.5,0H52a2.5,2.5,0,0,0-2.5,2.5v45a2.22,2.22,0,0,0,0,.37,5.07,5.07,0,0,0-1.36,1.37l-47.33,71h0A5,5,0,0,0,5,128H123.39a4.62,4.62,0,0,0,3.84-7.17ZM68.78,36v-.63a7.55,7.55,0,0,1,7.54-7.55h5.92a7.55,7.55,0,0,1,7.54,7.55V36Zm13.5-16.18a3,3,0,0,1-6,0v-1a3,3,0,1,1,6,0Zm18.45-.16a2.55,2.55,0,0,0,0,1.68L106,36H94.78v-.63a12.56,12.56,0,0,0-8.41-11.84,8,8,0,0,0,.91-3.71v-1a8,8,0,1,0-16,0v1a8,8,0,0,0,.91,3.71,12.56,12.56,0,0,0-8.41,11.84V36H54.5V5H106ZM5,123H5L52.33,52l47.33,71Z"/><path class="cls-5" d="M43.58,78a2.51,2.51,0,1,0,1.77.74A2.52,2.52,0,0,0,43.58,78Z"/><path class="cls-5" d="M40.09,85.43a2.49,2.49,0,0,0-3.46.69l-12.3,18.44A2.51,2.51,0,0,0,25,108a2.49,2.49,0,0,0,3.46-.7l12.3-18.44A2.5,2.5,0,0,0,40.09,85.43Z"/></g></g></svg>