<svg xmlns="http://www.w3.org/2000/svg" viewBox="0 0 128.64 128.64"><defs><style>.cls-1{fill:#f05f5a;}.cls-2{fill:#f3bc65;}.cls-3{fill:#fff;}.cls-4{fill:#3e4f67;}</style></defs><title>inicio</title><g id="Camada_2" data-name="Camada 2"><g id="Camada_1-2" data-name="Camada 1"><path class="cls-1" d="M52.12,94.69h0a32.45,32.45,0,0,1-23.23,9.52l-4.43,0,0-4.44A32.45,32.45,0,0,1,34,76.52h0Z"/><path class="cls-2" d="M123,5.65h0a81.17,81.17,0,0,0-78.61,21L18.45,52.51a5.67,5.67,0,0,0,0,8l49.67,49.67a5.67,5.67,0,0,0,8,0L102,84.27A81.15,81.15,0,0,0,123,5.65Z"/><path class="cls-1" d="M84.39,4.71l39.54,39.54a81,81,0,0,0-1-38.6h0A81.12,81.12,0,0,0,84.39,4.71Z"/><circle class="cls-3" cx="73.72" cy="54.92" r="22.94"/><path class="cls-1" d="M89.94,71.14a22.81,22.81,0,0,0,5.84-10H68.69V50H51.33A22.93,22.93,0,0,0,89.94,71.14Z"/><path class="cls-4" d="M48.52,49.59a26.1,26.1,0,1,0,.11-.49A2.68,2.68,0,0,0,48.52,49.59Zm11,19.54A20.08,20.08,0,0,1,53.74,52.8H65.86v8.39A2.83,2.83,0,0,0,68.69,64h23a19.59,19.59,0,0,1-3.7,5.11A20.13,20.13,0,0,1,59.5,69.13ZM87.94,40.7a20.09,20.09,0,0,1,5.58,17.66h-22V50a2.84,2.84,0,0,0-2.83-2.84H55.19A20.09,20.09,0,0,1,87.94,40.7Z"/><path class="cls-4" d="M105.91,84.34A84,84,0,0,0,125.72,4.91a2.82,2.82,0,0,0-2-2A84,84,0,0,0,44.3,22.73a27.22,27.22,0,0,0-29.32,6L.83,42.9a2.83,2.83,0,0,0,0,4L30.26,76.33a35.58,35.58,0,0,0-8.67,23.44l0,4.43a2.8,2.8,0,0,0,.83,2,2.76,2.76,0,0,0,2,.83l4.43,0a35.52,35.52,0,0,0,23.44-8.66l6.19,6.2L48.17,114.92a2.83,2.83,0,0,0,4,4l10.34-10.33,19.22,19.22a2.83,2.83,0,0,0,4,0l14.15-14.15A27.22,27.22,0,0,0,105.91,84.34ZM120.66,8a78,78,0,0,1,1.44,30.43L90.23,6.54A78,78,0,0,1,120.66,8ZM46.37,28.6A78.18,78.18,0,0,1,71.3,11.85l9.07,9.07a2.84,2.84,0,0,0,4-4L77.13,9.66c2.1-.69,4.24-1.3,6.39-1.82L120.8,45.12A78.45,78.45,0,0,1,100,82.27L74.12,108.18a2.82,2.82,0,0,1-4,0L20.45,58.52a2.84,2.84,0,0,1,0-4ZM19,32.76a21.55,21.55,0,0,1,20.8-5.58L16.45,50.51a8.59,8.59,0,0,0-1.66,2.35l-7.95-8Zm9.94,68.62H27.27V99.72a29.91,29.91,0,0,1,7-19.37l14,14A29.91,29.91,0,0,1,28.92,101.38ZM83.73,121.8l-8-8a8.59,8.59,0,0,0,2.35-1.66l23.33-23.33a21.55,21.55,0,0,1-5.58,20.8Z"/><path class="cls-4" d="M87.64,28.18a2.85,2.85,0,0,0,2,.83,2.83,2.83,0,0,0,0-5.66,2.83,2.83,0,0,0-2.83,2.83A2.81,2.81,0,0,0,87.64,28.18Z"/><path class="cls-4" d="M16.7,73.49a2.85,2.85,0,0,0-4,0L6.53,79.66a2.83,2.83,0,0,0,4,4L16.7,77.5A2.83,2.83,0,0,0,16.7,73.49Z"/></g></g></svg>