<svg xmlns="http://www.w3.org/2000/svg" viewBox="0 0 123.91 127.09"><defs><style>.cls-1{fill:#f3bc65;}.cls-2{fill:#f05f5a;}.cls-3{fill:#3e4f67;}</style></defs><title>links</title><g id="Camada_2" data-name="Camada 2"><g id="Camada_1-2" data-name="Camada 1"><path class="cls-1" d="M73.92,93.58l-22.65,24c-9.22,9.76-26.28,8.67-38-2.44S-.58,87,8.64,77.28l22.65-24a6.54,6.54,0,0,1,9.51,9l-22.65,24c-4.19,4.44-2.33,13.29,4.07,19.34s15.34,7.4,19.54,3l22.65-24a6.54,6.54,0,1,1,9.51,9Z"/><path class="cls-1" d="M92.62,73.79a6.54,6.54,0,0,1-9.51-9l22.64-24c4.2-4.44,2.33-13.29-4.06-19.34s-15.35-7.4-19.54-3L59.5,42.5a6.54,6.54,0,1,1-9.51-9l22.64-24C81.86-.23,98.92.86,110.67,12s13.82,28.08,4.6,37.84Z"/><path class="cls-2" d="M42.43,93.74a6.55,6.55,0,1,1-9.52-9l48.57-51.4a6.54,6.54,0,1,1,9.51,9Z"/><path class="cls-3" d="M76,95.56l-22.65,24c-10.31,10.91-29.21,9.87-42.12-2.32s-15-31-4.71-41.92l22.65-24A9.43,9.43,0,1,1,42.9,64.27l-22.65,24C17.18,91.5,19,98.62,24.2,103.51s12.4,6.32,15.46,3.08l22.65-24A9.43,9.43,0,1,1,76,95.56ZM10.73,79.26C2.6,87.87,4.61,103,15.21,113s25.84,11.16,34,2.56l22.65-24a3.66,3.66,0,1,0-5.33-5l-22.65,24c-5.35,5.67-15.94,4.39-23.61-2.85S10.7,90,16.06,84.29l22.65-24a3.66,3.66,0,0,0-5.33-5l-22.65,24Z"/><path class="cls-3" d="M94.72,75.77h0A9.43,9.43,0,1,1,81,62.82l22.65-24c3.06-3.24,1.21-10.37-4-15.26S87.31,17.26,84.25,20.5l-22.65,24A9.43,9.43,0,0,1,47.89,31.53l22.65-24c10.31-10.91,29.2-9.87,42.12,2.32s15,31,4.71,41.92ZM80.05,16.54c5.36-5.67,16-4.39,23.62,2.85s9.54,17.74,4.18,23.41l-22.65,24a3.66,3.66,0,0,0,5.33,5l22.64-24c8.13-8.61,6.12-23.75-4.48-33.76s-25.83-11.16-34-2.56l-22.65,24a3.66,3.66,0,1,0,5.33,5Z"/><path class="cls-3" d="M93.09,44.32,66.23,72.75a2.89,2.89,0,0,1-4.19-4L88.9,40.35a3.66,3.66,0,0,0-5.33-5L35,86.74a3.66,3.66,0,0,0,5.32,5,2.89,2.89,0,0,1,4.2,4,9.43,9.43,0,1,1-13.71-13l48.56-51.4a9.43,9.43,0,1,1,13.71,13Z"/><path class="cls-3" d="M58.51,80.92l-6.14,6.5a2.88,2.88,0,1,1-4.19-4L54.32,77a2.88,2.88,0,0,1,4.19,4Z"/></g></g></svg>