<svg xmlns="http://www.w3.org/2000/svg" viewBox="0 0 132 111.05"><defs><style>.cls-1{fill:#f05f5a;}.cls-2{fill:#fff;}.cls-3{fill:#f3bc65;}.cls-4{fill:#3e4f67;}</style></defs><title>perfil</title><g id="Camada_2" data-name="Camada 2"><g id="Camada_1-2" data-name="Camada 1"><path class="cls-1" d="M33.17,105a4.54,4.54,0,0,0,5.52,3.26L126,85.9a4.54,4.54,0,0,0,3.27-5.52l-1.16-4.52L32,100.5Z"/><rect class="cls-2" x="29.26" y="78.69" width="99.16" height="9.65" transform="translate(-18.27 22.2) rotate(-14.38)"/><path class="cls-3" d="M116.66,31.37a4.53,4.53,0,0,0-5.52-3.27L23.87,50.49A4.53,4.53,0,0,0,20.6,56l9,35.15,96.05-24.64Z"/><path class="cls-3" d="M97.26,62.29H7.16a4.53,4.53,0,0,1-4.53-4.53V7.16A4.53,4.53,0,0,1,7.16,2.63h90.1a4.53,4.53,0,0,1,4.53,4.53v50.6A4.53,4.53,0,0,1,97.26,62.29Z"/><path class="cls-1" d="M17.13,51.45c0-8.23,7.13-14.9,15.92-14.9S49,43.22,49,51.45Z"/><circle class="cls-2" cx="32.87" cy="21.79" r="8.64"/><path class="cls-4" d="M88.69,22.31h1.65a2.63,2.63,0,0,0,0-5.26H88.69a2.63,2.63,0,1,0,0,5.26Z"/><path class="cls-4" d="M119.2,30.71a7.15,7.15,0,0,0-8.71-5.15l-6.07,1.55V7.16A7.17,7.17,0,0,0,97.26,0H7.16A7.17,7.17,0,0,0,0,7.16v50.6a7.17,7.17,0,0,0,7.16,7.16h13l10.45,40.75a7.17,7.17,0,0,0,6.92,5.38,7.25,7.25,0,0,0,1.79-.22l87.28-22.39a7.16,7.16,0,0,0,5.15-8.71ZM33.91,97.3l-1.09-4.25,91-23.34L124.87,74ZM5.26,57.76V7.16a1.9,1.9,0,0,1,1.9-1.9h90.1a1.9,1.9,0,0,1,1.9,1.9v50.6a1.9,1.9,0,0,1-1.9,1.9H7.16A1.9,1.9,0,0,1,5.26,57.76ZM31.51,88l-5.91-23H97.26a7.17,7.17,0,0,0,7.16-7.16V32.54l7.37-1.89A1.91,1.91,0,0,1,114.11,32l8.36,32.6Zm93.8-4.6L38,105.73a1.88,1.88,0,0,1-1.45-.2,1.92,1.92,0,0,1-.87-1.17l-.5-2,91-23.33.5,2A1.9,1.9,0,0,1,125.31,83.35Z"/><path class="cls-4" d="M63.31,22.31H79a2.63,2.63,0,0,0,0-5.26H63.31a2.63,2.63,0,0,0,0,5.26Z"/><path class="cls-4" d="M63.31,35.52h27a2.63,2.63,0,0,0,0-5.26h-27a2.63,2.63,0,0,0,0,5.26Z"/><path class="cls-4" d="M90.45,43.47H63.31a2.63,2.63,0,0,0,0,5.26H90.45a2.63,2.63,0,0,0,0-5.26Z"/><path class="cls-4" d="M33.05,33.92c-10.23,0-18.54,7.86-18.54,17.53a2.62,2.62,0,0,0,2.62,2.63H49a2.63,2.63,0,0,0,2.63-2.63C51.59,41.78,43.27,33.92,33.05,33.92Zm-13,14.9c1.31-5.51,6.63-9.64,13-9.64s11.66,4.13,13,9.64Z"/><path class="cls-4" d="M32.87,33.06A11.27,11.27,0,1,0,21.6,21.79,11.28,11.28,0,0,0,32.87,33.06Zm0-17.28a6,6,0,1,1-6,6A6,6,0,0,1,32.87,15.78Z"/></g></g></svg>