<svg xmlns="http://www.w3.org/2000/svg" viewBox="0 0 130 130"><defs><style>.cls-1{fill:#f3bc65;}.cls-2{fill:#ffb487;}.cls-3{fill:#ffcdac;}.cls-4{fill:#6e7b8d;}.cls-5{fill:#f05f5a;}.cls-6{fill:#f5b955;}.cls-7{fill:#3e4f67;}</style></defs><title>professores</title><g id="Camada_2" data-name="Camada 2"><g id="Camada_1-2" data-name="Camada 1"><path class="cls-1" d="M55.15,89.73a15.05,15.05,0,0,0-7.37-4.22L37.33,83h0V76.63H24.58V83h0L14.16,85.52A15.13,15.13,0,0,0,2.54,100.24V117.3H25.63Z"/><polygon class="cls-2" points="37.61 76.63 37.61 83.18 30.99 99.03 24.38 83.2 24.38 76.63 37.61 76.63"/><path class="cls-3" d="M45.18,54.66v8.83A14.22,14.22,0,0,1,31,77.71h0A14.22,14.22,0,0,1,16.75,63.49V54.66Z"/><path class="cls-4" d="M45.18,57.45V54A14.21,14.21,0,0,0,31,39.81h0A14.21,14.21,0,0,0,16.75,54v3.42h9.8A33.94,33.94,0,0,0,44,52.63h0"/><path class="cls-1" d="M74.85,89.73a15.05,15.05,0,0,1,7.37-4.22L92.67,83h0V76.63h12.75V83h0l10.42,2.49a15.13,15.13,0,0,1,11.62,14.72V117.3H104.37Z"/><path class="cls-5" d="M56.1,89.48,41.55,93a21.1,21.1,0,0,0-16.17,20.51v14h79.19v-14A21.09,21.09,0,0,0,88.38,93L73.87,89.51Z"/><polygon class="cls-2" points="105.63 76.63 105.63 83.2 99.01 99.03 92.39 83.18 92.39 76.63 105.63 76.63"/><path class="cls-2" d="M65,109.87l9.48-21.5a7.77,7.77,0,0,1-1.11-4V82.29H56.62v2.07a7.82,7.82,0,0,1-1.1,4Z"/><path class="cls-3" d="M84.8,48.63V62.29A19.8,19.8,0,0,1,65,82.1h0A19.8,19.8,0,0,1,45.2,62.29V48.63Z"/><path class="cls-6" d="M65,29.31h0a19.8,19.8,0,0,0-19.8,19.8v4.77h9.68A21.78,21.78,0,0,0,71.56,46.1h0L84.8,53.88V49.11A19.8,19.8,0,0,0,65,29.31Z"/><path class="cls-3" d="M84.82,54.66v8.83A14.22,14.22,0,0,0,99,77.71h0a14.22,14.22,0,0,0,14.21-14.22V54.66Z"/><path class="cls-4" d="M84.82,57.45V54A14.21,14.21,0,0,1,99,39.81h0A14.21,14.21,0,0,1,113.25,54v3.42h-9.8A33.94,33.94,0,0,1,86,52.63h0"/><path class="cls-7" d="M64.93,124.92a2.56,2.56,0,0,0-2.54,2.54,2.6,2.6,0,0,0,.75,1.8,2.54,2.54,0,0,0,3.59-3.59A2.53,2.53,0,0,0,64.93,124.92Z"/><path class="cls-7" d="M116.43,83.05,108,81V77.66a16.75,16.75,0,0,0,7.83-14.17V54A16.74,16.74,0,0,0,86.5,42.93,22.39,22.39,0,0,0,65,26.77h0A22.4,22.4,0,0,0,43.54,43,16.74,16.74,0,0,0,14.21,54v9.46A16.75,16.75,0,0,0,22,77.66V81l-8.47,2A17.6,17.6,0,0,0,0,100.24V117.3a2.54,2.54,0,0,0,2.54,2.54h20.3v7.62A2.54,2.54,0,0,0,25.38,130H53.24a2.54,2.54,0,0,0,0-5.08H41.9V113.75a2.54,2.54,0,1,0-5.08,0v11.17h-8.9V113.47a18.5,18.5,0,0,1,14.22-18l12.49-3,8,18.28A2.53,2.53,0,0,0,65,112.24h0a2.53,2.53,0,0,0,2.32-1.52l8-18.25,12.45,3a18.49,18.49,0,0,1,14.24,18v2.83a2.58,2.58,0,0,0,0,2v6.62H93.18V113.75a2.54,2.54,0,1,0-5.08,0v11.17H75.66a2.54,2.54,0,0,0,0,5.08h28.91a2.54,2.54,0,0,0,2.54-2.54v-7.62h20.35A2.54,2.54,0,0,0,130,117.3V100.24A17.6,17.6,0,0,0,116.43,83.05Zm-13.54.11L99,92.45l-3.82-9.16c0-.1,0-.19,0-.28a.15.15,0,0,0,0-.07V79.8a16.61,16.61,0,0,0,7.68,0V83S102.89,83.12,102.89,83.16Zm-49.33,2A17.45,17.45,0,0,0,48.37,83l-8.5-2V77.67a16.8,16.8,0,0,0,5.25-5.23,22.58,22.58,0,0,0,8.44,9Zm-5.8-22.91V56.42H54.9a24.23,24.23,0,0,0,17.16-7.09l10.22,6v7.56a17.27,17.27,0,0,1-34.52-.6ZM76.41,81.51a22.51,22.51,0,0,0,8.5-9,16.76,16.76,0,0,0,5.22,5.18V81l-8.5,2a17.41,17.41,0,0,0-5.22,2.18V81.51ZM99,75.17A11.69,11.69,0,0,1,87.36,63.49v-.41c0-.26,0-6.83,0-6.83A36.49,36.49,0,0,0,103.45,60h7.27v3.5A11.69,11.69,0,0,1,99,75.17Zm0-32.82A11.69,11.69,0,0,1,110.72,54v.88h-7.27a31.36,31.36,0,0,1-15.62-4.17A11.7,11.7,0,0,1,99,42.35ZM47.76,49.12a17.27,17.27,0,1,1,34.53,0v.33l-9.42-5.54a2.53,2.53,0,0,0-3.23.56A19.18,19.18,0,0,1,54.9,51.34H47.76ZM19.28,54a11.68,11.68,0,0,1,22.89-3.29,31.36,31.36,0,0,1-15.62,4.17H19.28V54Zm0,6h7.27a36.41,36.41,0,0,0,16.09-3.75v7.25a11.68,11.68,0,0,1-23.36,0ZM31,80.25a16.81,16.81,0,0,0,3.84-.45v3.07a.61.61,0,0,0,0,.14,1.94,1.94,0,0,0,0,.24L31,92.45l-3.86-9.24c0-.06,0-.12,0-.18V79.8A16.75,16.75,0,0,0,31,80.25Zm-8.12,33.22v1.3H15.23V103.48a2.54,2.54,0,0,0-5.07,0v11.29H5.08V100.24A12.55,12.55,0,0,1,14.75,88l8.05-1.92,5.25,12.58A23.58,23.58,0,0,0,22.84,113.47ZM41,90.49A23.61,23.61,0,0,0,36.67,92l2.47-5.92,8,1.93a12.88,12.88,0,0,1,1.82.59Zm24,12.9L58.64,88.94V83.71a22.34,22.34,0,0,0,12.69,0V89Zm16-14.81a13.57,13.57,0,0,1,1.87-.6l8-1.93,2.48,6A24,24,0,0,0,89,90.5Zm44,26.19h-5.08V103.48a2.54,2.54,0,0,0-5.07,0v11.29h-7.66v-1.29a23.57,23.57,0,0,0-5.2-14.81l5.27-12.61L115.25,88a12.55,12.55,0,0,1,9.67,12.26Z"/><path class="cls-7" d="M56.48,58.72a2.53,2.53,0,1,0,1.8.74A2.56,2.56,0,0,0,56.48,58.72Z"/><path class="cls-7" d="M73.46,63.79a2.54,2.54,0,1,0-1.79-.74A2.57,2.57,0,0,0,73.46,63.79Z"/><path class="cls-7" d="M69.89,68a2.54,2.54,0,0,0-3.59,0,1.94,1.94,0,0,1-2.73,0A2.54,2.54,0,0,0,60,71.6a7,7,0,0,0,9.91,0A2.54,2.54,0,0,0,69.89,68Z"/><path class="cls-7" d="M103.24,18.79H105a2.54,2.54,0,0,0,0-5.08h-1.74a2.54,2.54,0,1,0,0,5.08Z"/><path class="cls-7" d="M115.56,18.79h1.74a2.54,2.54,0,1,0,0-5.08h-1.74a2.54,2.54,0,0,0,0,5.08Z"/><path class="cls-7" d="M110.27,25.82a2.54,2.54,0,0,0,2.54-2.54V21.54a2.54,2.54,0,1,0-5.07,0v1.74A2.54,2.54,0,0,0,110.27,25.82Z"/><path class="cls-7" d="M110.27,13.5A2.54,2.54,0,0,0,112.81,11V9.22a2.54,2.54,0,1,0-5.07,0V11A2.54,2.54,0,0,0,110.27,13.5Z"/><path class="cls-7" d="M12.55,18.79H14.3a2.54,2.54,0,0,0,0-5.08H12.55a2.54,2.54,0,0,0,0,5.08Z"/><path class="cls-7" d="M24.87,18.79h1.75a2.54,2.54,0,0,0,0-5.08H24.87a2.54,2.54,0,0,0,0,5.08Z"/><path class="cls-7" d="M19.58,25.82a2.54,2.54,0,0,0,2.54-2.54V21.54a2.54,2.54,0,1,0-5.07,0v1.74A2.54,2.54,0,0,0,19.58,25.82Z"/><path class="cls-7" d="M19.58,13.5A2.54,2.54,0,0,0,22.12,11V9.22a2.54,2.54,0,1,0-5.07,0V11A2.54,2.54,0,0,0,19.58,13.5Z"/><path class="cls-7" d="M65,21.43a2.54,2.54,0,0,0,2.54-2.54V12.21a2.54,2.54,0,0,0-5.08,0v6.68A2.54,2.54,0,0,0,65,21.43Z"/><path class="cls-7" d="M65,5.08a2.51,2.51,0,0,0,1.79-.75,2.51,2.51,0,0,0,.75-1.79A2.54,2.54,0,0,0,65,0a2.59,2.59,0,0,0-1.8.74,2.59,2.59,0,0,0-.74,1.8A2.54,2.54,0,0,0,65,5.08Z"/><path class="cls-7" d="M52.51,13.78a2.57,2.57,0,0,0,1.8.74,2.54,2.54,0,0,0,1.79-4.33L52.39,6.47a2.54,2.54,0,0,0-3.59,3.59Z"/><path class="cls-7" d="M75.57,14.51a2.5,2.5,0,0,0,1.79-.75L81.2,9.92a2.54,2.54,0,0,0-3.59-3.59l-3.84,3.84a2.55,2.55,0,0,0,1.8,4.34Z"/></g></g></svg>