<svg xmlns="http://www.w3.org/2000/svg" viewBox="0 0 128 128"><defs><style>.cls-1{fill:#fff;}.cls-2{fill:#fec96b;}.cls-3{fill:#f3bc65;}.cls-4{fill:#f05f5a;}.cls-5{fill:#3e4f67;}</style></defs><title>turma</title><g id="Camada_2" data-name="Camada 2"><g id="Camada_1-2" data-name="Camada 1"><path class="cls-1" d="M32.11,93.39v2.28A9.11,9.11,0,0,1,23,104.78h0a9.11,9.11,0,0,1-9.11-9.11V93.39A9.11,9.11,0,0,1,23,84.28h0A9.11,9.11,0,0,1,32.11,93.39Z"/><path class="cls-1" d="M73.11,93.39v2.28A9.11,9.11,0,0,1,64,104.78h0a9.11,9.11,0,0,1-9.11-9.11V93.39A9.11,9.11,0,0,1,64,84.28h0A9.11,9.11,0,0,1,73.11,93.39Z"/><path class="cls-1" d="M114.11,93.39v2.28a9.11,9.11,0,0,1-9.11,9.11h0a9.11,9.11,0,0,1-9.11-9.11V93.39A9.11,9.11,0,0,1,105,84.28h0A9.11,9.11,0,0,1,114.11,93.39Z"/><path class="cls-2" d="M89.75,2.5H38.25a5,5,0,0,0-5,5v38a5,5,0,0,0,5,5h51.5a5,5,0,0,0,5-5V7.5A5,5,0,0,0,89.75,2.5Z"/><path class="cls-3" d="M32.11,104.78H13.89A11.39,11.39,0,0,0,2.5,116.17v9.33h41v-9.33A11.39,11.39,0,0,0,32.11,104.78Z"/><path class="cls-4" d="M73.11,104.78H54.89A11.39,11.39,0,0,0,43.5,116.17v9.33h41v-9.33A11.39,11.39,0,0,0,73.11,104.78Z"/><path class="cls-3" d="M114.11,104.78H95.89A11.39,11.39,0,0,0,84.5,116.17v9.33h41v-9.33A11.39,11.39,0,0,0,114.11,104.78Z"/><path class="cls-5" d="M114.53,102.29a11.54,11.54,0,0,0,2.08-6.62V93.39a11.61,11.61,0,0,0-23.22,0v2.28a11.54,11.54,0,0,0,2.08,6.62,13.89,13.89,0,0,0-11,5.95,13.89,13.89,0,0,0-11-5.95,11.54,11.54,0,0,0,2.08-6.62V93.39a11.61,11.61,0,0,0-23.22,0v2.28a11.54,11.54,0,0,0,2.08,6.62,13.89,13.89,0,0,0-11,5.95,13.89,13.89,0,0,0-11-5.95,11.54,11.54,0,0,0,2.08-6.62V93.39a11.61,11.61,0,0,0-23.22,0v2.28a11.54,11.54,0,0,0,2.08,6.62A13.9,13.9,0,0,0,0,116.17v9.33A2.5,2.5,0,0,0,2.5,128h123a2.5,2.5,0,0,0,2.5-2.5v-9.33A13.9,13.9,0,0,0,114.53,102.29Zm-16.14-8.9a6.61,6.61,0,0,1,13.22,0v2.28a6.61,6.61,0,0,1-13.22,0Zm-41,0a6.61,6.61,0,0,1,13.22,0v2.28a6.61,6.61,0,0,1-13.22,0Zm-41,0a6.61,6.61,0,0,1,13.22,0v2.28a6.61,6.61,0,0,1-13.22,0ZM5,116.17a8.9,8.9,0,0,1,8.89-8.89H20.5v7.86a2.5,2.5,0,0,0,5,0v-7.86h6.61A8.9,8.9,0,0,1,41,116.17V123H5Zm41,0a8.9,8.9,0,0,1,8.89-8.89h6.64v7.86a2.5,2.5,0,1,0,5,0v-7.86h6.58A8.9,8.9,0,0,1,82,116.17V123H46ZM123,123H87v-6.83a8.9,8.9,0,0,1,8.89-8.89h6.67v7.86a2.5,2.5,0,0,0,5,0v-7.86h6.55a8.9,8.9,0,0,1,8.89,8.89Z"/><path class="cls-5" d="M23,78.27a2.5,2.5,0,0,0,2.5-2.5V72.5h36v3.27a2.5,2.5,0,0,0,5,0V72.5H77.31a2.5,2.5,0,0,0,0-5H66.5V60.6a2.5,2.5,0,1,0-5,0v6.9H23A2.5,2.5,0,0,0,20.5,70v5.77A2.5,2.5,0,0,0,23,78.27Z"/><path class="cls-5" d="M84.73,68.23a2.51,2.51,0,1,0,1.77-.73A2.55,2.55,0,0,0,84.73,68.23Z"/><path class="cls-5" d="M92.88,70a2.49,2.49,0,0,0,2.5,2.5h7.18v3.27a2.5,2.5,0,0,0,5,0V70a2.5,2.5,0,0,0-2.5-2.5H95.38A2.49,2.49,0,0,0,92.88,70Z"/><path class="cls-5" d="M38.25,53h51.5a7.5,7.5,0,0,0,7.5-7.5V7.5A7.5,7.5,0,0,0,89.75,0H38.25a7.5,7.5,0,0,0-7.5,7.5v38A7.5,7.5,0,0,0,38.25,53ZM35.75,7.5A2.5,2.5,0,0,1,38.25,5h51.5a2.5,2.5,0,0,1,2.5,2.5v38a2.5,2.5,0,0,1-2.5,2.5H38.25a2.5,2.5,0,0,1-2.5-2.5Z"/><path class="cls-1" d="M44.08,15a2.49,2.49,0,1,0-1.77-.73A2.53,2.53,0,0,0,44.08,15Z"/><path class="cls-1" d="M53.25,15a2.49,2.49,0,1,0-1.77-.73A2.55,2.55,0,0,0,53.25,15Z"/><path class="cls-1" d="M62.42,15a2.49,2.49,0,1,0-1.77-.73A2.55,2.55,0,0,0,62.42,15Z"/><path class="cls-5" d="M46,26.09H42.2a1.65,1.65,0,0,1-1.15-.34,1.63,1.63,0,0,1-.37-1.23,1.28,1.28,0,0,1,.46-1.13,4.69,4.69,0,0,1,1.68-.57l1.1-.24a3.06,3.06,0,0,0,1.69-.83,7,7,0,0,0,1.1-1.57,5.61,5.61,0,0,1,.89-1.3,2,2,0,0,1,2.49.05,2.18,2.18,0,0,1,.46,1.57V37.38A3,3,0,0,1,50,39.3a2,2,0,0,1-1.72.7,2,2,0,0,1-1.73-.7A3.11,3.11,0,0,1,46,37.38Z"/><path class="cls-5" d="M67.78,35.87a2.1,2.1,0,0,1,1.43.46,1.76,1.76,0,0,1,.53,1.41,1.7,1.7,0,0,1-.56,1.43,2.64,2.64,0,0,1-1.63.44H56.4A2.36,2.36,0,0,1,54.59,39,2.16,2.16,0,0,1,54,37.41q0-3.27,5.59-6.8c.22-.14.7-.44,1.46-.89s1.57-1,2-1.33a8.14,8.14,0,0,0,1.18-1,3,3,0,0,0,.68-1,3.85,3.85,0,0,0,.21-1.34,2.78,2.78,0,0,0-.91-2.2,3.23,3.23,0,0,0-2.21-.8,3.91,3.91,0,0,0-2.42.71,4.45,4.45,0,0,0-1.42,2.44,2.78,2.78,0,0,1-.62,1.28,1.7,1.7,0,0,1-1.25.38,2.41,2.41,0,0,1-1.57-.47,1.82,1.82,0,0,1-.6-1.52,5.44,5.44,0,0,1,.61-2.51,6.53,6.53,0,0,1,1.71-2.05A8.23,8.23,0,0,1,59,19a9.7,9.7,0,0,1,3.06-.48,9.13,9.13,0,0,1,3.13.51,7.44,7.44,0,0,1,2.41,1.37,6,6,0,0,1,1.51,1.9,4.56,4.56,0,0,1,.53,2.08,8.56,8.56,0,0,1-.33,2.52,6,6,0,0,1-1,1.89,7.47,7.47,0,0,1-1.5,1.47,22.35,22.35,0,0,1-2.19,1.4q-2.94,1.66-4.23,2.57a3.92,3.92,0,0,0-1.56,1.68Z"/><path class="cls-5" d="M72.18,33.36a2.07,2.07,0,0,1,1.52-.58,1.6,1.6,0,0,1,1.17.37,5.14,5.14,0,0,1,.79,1.14,4.93,4.93,0,0,0,1.19,1.59,4.24,4.24,0,0,0,4.69-.34,3.11,3.11,0,0,0,.89-2.32,2.65,2.65,0,0,0-.61-1.84,3.11,3.11,0,0,0-2.06-.83H79.7c-.34,0-.62-.08-.85-.13a4.84,4.84,0,0,1-.71-.23,1.4,1.4,0,0,1-.61-.46,1.26,1.26,0,0,1-.24-.79,1.69,1.69,0,0,1,.61-1.5,4.16,4.16,0,0,1,2-.46,2.11,2.11,0,0,0,2.26-2.31,2.34,2.34,0,0,0-.85-2,3.28,3.28,0,0,0-2.12-.67,3.25,3.25,0,0,0-2,.5A5.2,5.2,0,0,0,76,24a5.23,5.23,0,0,1-.84,1.07,1.53,1.53,0,0,1-1.1.36A2.31,2.31,0,0,1,72.63,25a1.6,1.6,0,0,1-.57-1.36,3.88,3.88,0,0,1,.69-2.27,5.4,5.4,0,0,1,1.76-1.63,8.53,8.53,0,0,1,2.34-.95,9.79,9.79,0,0,1,2.4-.32,9.68,9.68,0,0,1,3.23.48,6.13,6.13,0,0,1,2.2,1.29,5.13,5.13,0,0,1,1.23,1.84,6.08,6.08,0,0,1,.39,2.16,4.44,4.44,0,0,1-2.53,4.16,4,4,0,0,1,2.39,1.66,5.36,5.36,0,0,1,.79,3,7.07,7.07,0,0,1-.62,3,6.24,6.24,0,0,1-1.71,2.18,7.3,7.3,0,0,1-2.56,1.31,11,11,0,0,1-3.13.43,9.57,9.57,0,0,1-3.39-.54,6.58,6.58,0,0,1-2.29-1.35A5.6,5.6,0,0,1,72,36.43a3.72,3.72,0,0,1-.4-1.57A2,2,0,0,1,72.18,33.36Z"/></g></g></svg>